<svg width="27" height="19" viewBox="0 0 27 19" fill="none" xmlns="http://www.w3.org/2000/svg">
<path d="M2.97667 0H23.9558C25.935 0 26.9325 0.934167 26.9325 2.83417V16.1658C26.9325 18.05 25.935 19 23.9558 19H2.97667C0.9975 19 0 18.05 0 16.1658V2.83417C0 0.934167 0.9975 0 2.97667 0ZM13.4583 13.6167L24.13 4.86083C24.51 4.54417 24.8108 3.81583 24.3358 3.16667C23.8767 2.5175 23.0375 2.50167 22.4833 2.8975L13.4583 9.00917L4.44917 2.8975C3.895 2.50167 3.05583 2.5175 2.59667 3.16667C2.12167 3.81583 2.4225 4.54417 2.8025 4.86083L13.4583 13.6167Z" fill="#A7AECE"/>
</svg>
