<svg width="29" height="28" viewBox="0 0 29 28" fill="none" xmlns="http://www.w3.org/2000/svg">
<path d="M5.45308 0.237305C2.6579 0.237305 0.407227 2.48797 0.407227 5.28315V22.8257C0.407227 25.6209 2.6579 27.8715 5.45308 27.8715H14.961V17.0683H12.1043V13.1788H14.961V9.85575C14.961 7.24501 16.6489 4.84791 20.5371 4.84791C22.1113 4.84791 23.2755 4.99904 23.2755 4.99904L23.1839 8.63123C23.1839 8.63123 21.9967 8.62001 20.7011 8.62001C19.299 8.62001 19.0742 9.26604 19.0742 10.3385V13.1788H23.2953L23.1114 17.0683H19.0742V27.8716H22.9956C25.7908 27.8716 28.0415 25.6209 28.0415 22.8257V5.28317C28.0415 2.488 25.7908 0.237332 22.9956 0.237332H5.45305L5.45308 0.237305Z" fill="#A7AECE"/>
</svg>
