<svg width="28" height="28" viewBox="0 0 28 28" fill="none" xmlns="http://www.w3.org/2000/svg">
<path fill-rule="evenodd" clip-rule="evenodd" d="M8.13737 0.0830729C9.6138 0.0151041 10.0845 0 13.8455 0C17.6064 0 18.0772 0.0163628 19.5523 0.0830729C21.0275 0.149783 22.0345 0.385156 22.9155 0.726259C23.8381 1.07491 24.6752 1.61992 25.3674 2.32478C26.0723 3.0158 26.6161 3.85156 26.9634 4.77543C27.3058 5.65651 27.5399 6.66345 27.6079 8.13611C27.6759 9.61506 27.691 10.0858 27.691 13.8455C27.691 17.6064 27.6746 18.0772 27.6079 19.5536C27.5412 21.0263 27.3058 22.0332 26.9634 22.9143C26.616 23.8383 26.0714 24.6754 25.3674 25.3674C24.6752 26.0723 23.8381 26.6161 22.9155 26.9634C22.0345 27.3058 21.0275 27.5399 19.5549 27.6079C18.0772 27.6759 17.6064 27.691 13.8455 27.691C10.0845 27.691 9.6138 27.6746 8.13737 27.6079C6.66471 27.5412 5.65777 27.3058 4.77669 26.9634C3.85272 26.616 3.01557 26.0714 2.32352 25.3674C1.61914 24.676 1.07405 23.8393 0.726259 22.9155C0.385156 22.0345 0.151042 21.0275 0.0830729 19.5549C0.0151041 18.0759 0 17.6052 0 13.8455C0 10.0845 0.0163628 9.6138 0.0830729 8.13863C0.149783 6.66345 0.385156 5.65651 0.726259 4.77543C1.07456 3.85166 1.62007 3.01493 2.32478 2.32352C3.01585 1.61929 3.85216 1.07421 4.77543 0.726259C5.65651 0.385156 6.66345 0.151042 8.13611 0.0830729H8.13737ZM19.4403 2.57526C17.9802 2.50855 17.5422 2.4947 13.8455 2.4947C10.1487 2.4947 9.71072 2.50855 8.25065 2.57526C6.90008 2.63693 6.16753 2.86224 5.67917 3.0523C5.03346 3.30404 4.57153 3.60234 4.08694 4.08694C3.62757 4.53383 3.27405 5.07787 3.0523 5.67917C2.86224 6.16753 2.63693 6.90008 2.57526 8.25065C2.50855 9.71072 2.4947 10.1487 2.4947 13.8455C2.4947 17.5422 2.50855 17.9802 2.57526 19.4403C2.63693 20.7909 2.86224 21.5234 3.0523 22.0118C3.27383 22.6122 3.62752 23.1572 4.08694 23.604C4.53377 24.0634 5.07877 24.4171 5.67917 24.6387C6.16753 24.8287 6.90008 25.054 8.25065 25.1157C9.71072 25.1824 10.1475 25.1963 13.8455 25.1963C17.5435 25.1963 17.9802 25.1824 19.4403 25.1157C20.7909 25.054 21.5234 24.8287 22.0118 24.6387C22.6575 24.3869 23.1194 24.0886 23.604 23.604C24.0634 23.1572 24.4171 22.6122 24.6387 22.0118C24.8287 21.5234 25.054 20.7909 25.1157 19.4403C25.1824 17.9802 25.1963 17.5422 25.1963 13.8455C25.1963 10.1487 25.1824 9.71072 25.1157 8.25065C25.054 6.90008 24.8287 6.16753 24.6387 5.67917C24.3869 5.03346 24.0886 4.57153 23.604 4.08694C23.1571 3.62761 22.6131 3.27409 22.0118 3.0523C21.5234 2.86224 20.7909 2.63693 19.4403 2.57526ZM12.077 18.1137C13.0647 18.5248 14.1644 18.5803 15.1884 18.2707C16.2124 17.961 17.0971 17.3055 17.6915 16.416C18.2859 15.5265 18.553 14.4583 18.4473 13.3937C18.3415 12.3292 17.8695 11.3344 17.1118 10.5792C16.6287 10.0965 16.0447 9.72684 15.4016 9.49693C14.7586 9.26701 14.0726 9.18253 13.393 9.24956C12.7134 9.31659 12.0571 9.53347 11.4714 9.88458C10.8856 10.2357 10.385 10.7123 10.0056 11.2801C9.62621 11.8479 9.37741 12.4928 9.27712 13.1683C9.17684 13.8438 9.22758 14.5331 9.42568 15.1866C9.62378 15.8402 9.96432 16.4416 10.4228 16.9478C10.8812 17.4539 11.4462 17.8521 12.077 18.1137ZM8.81328 8.81328C9.47412 8.15244 10.2586 7.62824 11.1221 7.27059C11.9855 6.91295 12.9109 6.72887 13.8455 6.72887C14.78 6.72887 15.7055 6.91295 16.5689 7.27059C17.4323 7.62823 18.2168 8.15244 18.8777 8.81328C19.5385 9.47412 20.0627 10.2586 20.4204 11.1221C20.778 11.9855 20.9621 12.9109 20.9621 13.8455C20.9621 14.78 20.778 15.7055 20.4204 16.5689C20.0627 17.4323 19.5385 18.2168 18.8777 18.8777C17.5431 20.2123 15.7329 20.9621 13.8455 20.9621C11.958 20.9621 10.1479 20.2123 8.81328 18.8777C7.47866 17.5431 6.72887 15.7329 6.72887 13.8455C6.72887 11.958 7.47866 10.1479 8.81328 8.81328ZM22.5404 7.78871C22.7042 7.63423 22.8353 7.44847 22.926 7.24241C23.0167 7.03636 23.0651 6.8142 23.0684 6.5891C23.0716 6.364 23.0297 6.14053 22.9451 5.93192C22.8605 5.72331 22.7348 5.5338 22.5756 5.37461C22.4165 5.21543 22.2269 5.0898 22.0183 5.00516C21.8097 4.92053 21.5863 4.87861 21.3611 4.8819C21.136 4.88518 20.9139 4.93359 20.7078 5.02427C20.5018 5.11495 20.316 5.24605 20.1615 5.40981C19.8611 5.72829 19.6966 6.15132 19.703 6.5891C19.7094 7.02688 19.8861 7.44494 20.1957 7.75453C20.5053 8.06412 20.9234 8.24087 21.3611 8.24725C21.7989 8.25363 22.222 8.08915 22.5404 7.78871Z" fill="#A7AECE"/>
</svg>
