<svg width="31" height="28" viewBox="0 0 31 28" fill="none" xmlns="http://www.w3.org/2000/svg">
<path d="M14.9913 27.8704L14.9633 27.8716C14.8766 27.8714 14.7919 27.8457 14.7199 27.7979L14.7211 27.799C14.4287 27.5722 14.5359 27.0206 14.6593 26.3816C14.7999 25.8561 14.8387 25.3091 14.7735 24.7695L14.7758 24.7902C14.7212 24.5199 14.5805 24.274 14.3742 24.0885C14.168 23.903 13.907 23.7878 13.6296 23.7596H13.6238C11.7241 23.5558 9.87178 23.0417 8.14226 22.2385L8.24826 22.2823C7.50176 21.9397 6.78427 21.5385 6.1027 21.0824L6.15745 21.117C5.51319 20.6898 4.90581 20.2107 4.34152 19.6845L4.34851 19.6903C3.8127 19.1905 3.32698 18.6505 2.89135 18.0713L2.86805 18.0379C2.45013 17.4812 2.08774 16.8858 1.78595 16.26L1.75683 16.1944C1.13168 14.903 0.809561 13.4887 0.814509 12.0571C0.814509 11.2119 0.924 10.3921 1.13133 9.6102L1.11619 9.67698C1.32115 8.88626 1.62232 8.12302 2.01309 7.40395L1.9863 7.45807C2.37648 6.73711 2.84434 6.05994 3.38173 5.43837L3.36892 5.45334C3.91073 4.81999 4.51256 4.2393 5.1662 3.71921L5.19183 3.69963C5.85997 3.17048 6.5736 2.70004 7.32458 2.29367L7.40145 2.25567C8.17712 1.83719 8.98722 1.48435 9.82307 1.20091L9.93839 1.16637C10.8177 0.86707 11.7209 0.641353 12.6384 0.491599L12.7421 0.477781C14.7723 0.152199 16.8427 0.157255 18.8712 0.49275L18.7617 0.477781C19.8357 0.652806 20.7792 0.892315 21.6901 1.20322L21.5654 1.16637C22.552 1.498 23.3895 1.86647 24.1874 2.29828L24.1024 2.25567C24.9433 2.7082 25.6667 3.18607 26.3411 3.72151L26.312 3.69963C26.9852 4.23392 27.5816 4.80851 28.1197 5.43492L28.1349 5.45334C28.6416 6.0406 29.0982 6.69809 29.4814 7.4005L29.5117 7.46038C29.8623 8.09484 30.1616 8.83179 30.3701 9.60559L30.3864 9.67583C30.5899 10.4539 30.6917 11.2546 30.6893 12.0583C30.6907 13.2024 30.4851 14.3376 30.0824 15.4102L30.1046 15.3434C29.7106 16.408 29.1497 17.4047 28.4424 18.297L28.4599 18.274C28.3754 18.3947 28.2823 18.5093 28.1815 18.6171L28.1838 18.6148L28.1745 18.6252C27.676 19.2101 27.1448 19.734 26.5706 20.2108L26.5508 20.2269C24.5287 22.0435 22.3802 23.7177 20.1211 25.237L19.9184 25.3659C19.0078 25.9873 18.065 26.5612 17.0938 27.0851L16.9214 27.1703C16.5759 27.3554 16.2197 27.52 15.8544 27.6632L15.7845 27.6873C15.5357 27.7922 15.2706 27.8541 15.0006 27.8704H14.9936H14.9913ZM21.9603 8.59229C21.7541 8.59289 21.5566 8.67413 21.4108 8.81825C21.265 8.96237 21.1828 9.15766 21.1822 9.36148V15.0705C21.1828 15.2743 21.265 15.4696 21.4108 15.6138C21.5566 15.7579 21.7541 15.8391 21.9603 15.8397H24.9725C25.1786 15.8391 25.3762 15.7579 25.522 15.6138C25.6678 15.4696 25.7499 15.2743 25.7505 15.0705V15.006C25.7499 14.8022 25.6678 14.6069 25.522 14.4628C25.3762 14.3187 25.1786 14.2375 24.9725 14.2369H22.8024V13.0197H24.9713C25.1775 13.0191 25.375 12.9379 25.5208 12.7938C25.6666 12.6497 25.7488 12.4544 25.7494 12.2505V12.1861C25.7488 11.9823 25.6666 11.787 25.5208 11.6428C25.375 11.4987 25.1775 11.4175 24.9713 11.4169H22.8024V10.1975H24.9713C25.1775 10.1968 25.375 10.1156 25.5208 9.97149C25.6666 9.82737 25.7488 9.63208 25.7494 9.42826V9.36263C25.7488 9.15881 25.6666 8.96352 25.5208 8.8194C25.375 8.67528 25.1775 8.59404 24.9713 8.59344L21.9603 8.59229ZM15.0053 8.57847C14.7991 8.57907 14.6015 8.66031 14.4558 8.80443C14.31 8.94855 14.2278 9.14384 14.2272 9.34766V15.0567C14.2278 15.2605 14.31 15.4558 14.4558 15.5999C14.6015 15.7441 14.7991 15.8253 15.0053 15.8259H15.0705C15.2767 15.8253 15.4742 15.7441 15.62 15.5999C15.7658 15.4558 15.848 15.2605 15.8486 15.0567V11.6414L18.6837 15.4701C18.7012 15.4975 18.7207 15.5237 18.7419 15.5484L18.7408 15.5472C18.8154 15.6472 18.9178 15.7236 19.0355 15.7672L19.0401 15.7683C19.1275 15.8052 19.2288 15.8259 19.3348 15.8259H19.4035C19.5317 15.8262 19.6579 15.7945 19.7705 15.7338L19.7658 15.7361C19.8386 15.7039 19.9034 15.6563 19.9557 15.5968V15.5956C20.0999 15.4525 20.1807 15.2587 20.1805 15.0567V9.34766C20.1805 9.14366 20.0985 8.94801 19.9526 8.80376C19.8067 8.65951 19.6087 8.57847 19.4024 8.57847H19.3337C19.1275 8.57907 18.9299 8.66031 18.7842 8.80443C18.6384 8.94855 18.5562 9.14384 18.5556 9.34766V12.6996L15.7437 8.96767C15.676 8.84916 15.578 8.75037 15.4594 8.68124C15.3408 8.61211 15.2058 8.57507 15.0682 8.57386L15.0053 8.57847ZM12.2866 8.57847C12.0805 8.57907 11.8829 8.66031 11.7371 8.80443C11.5913 8.94855 11.5092 9.14384 11.5085 9.34766V15.0567C11.5092 15.2605 11.5913 15.4558 11.7371 15.5999C11.8829 15.7441 12.0805 15.8253 12.2866 15.8259H12.3519C12.558 15.8253 12.7556 15.7441 12.9014 15.5999C13.0471 15.4558 13.1293 15.2605 13.1299 15.0567V9.34766C13.1293 9.14384 13.0471 8.94855 12.9014 8.80443C12.7556 8.66031 12.558 8.57907 12.3519 8.57847H12.2866ZM7.08929 8.57847C6.88311 8.57907 6.68556 8.66031 6.53977 8.80443C6.39399 8.94855 6.31181 9.14384 6.3112 9.34766V15.0567C6.31181 15.2605 6.39399 15.4558 6.53977 15.5999C6.68556 15.7441 6.88311 15.8253 7.08929 15.8259H10.0991C10.3053 15.8253 10.5029 15.7441 10.6486 15.5999C10.7944 15.4558 10.8766 15.2605 10.8772 15.0567V14.9991C10.8772 14.7951 10.7952 14.5995 10.6493 14.4552C10.5034 14.311 10.3055 14.2299 10.0991 14.2299H7.93144V9.34881C7.93082 9.14499 7.84865 8.9497 7.70286 8.80558C7.55707 8.66146 7.35952 8.58023 7.15335 8.57962L7.08929 8.57847Z" fill="#A7AECE"/>
</svg>
