<svg width="28" height="28" viewBox="0 0 28 28" fill="none" xmlns="http://www.w3.org/2000/svg">
<path fill-rule="evenodd" clip-rule="evenodd" d="M0.122315 2.54118C0.122315 1.93016 0.365044 1.34416 0.797104 0.912097C1.22916 0.480037 1.81516 0.237308 2.42619 0.237308H25.3922C25.695 0.236813 25.995 0.296049 26.2748 0.411623C26.5547 0.527198 26.8091 0.696841 27.0233 0.910841C27.2375 1.12484 27.4074 1.379 27.5233 1.65875C27.6392 1.93851 27.6988 2.23837 27.6986 2.54118V25.5072C27.6989 25.8101 27.6395 26.11 27.5238 26.3899C27.4081 26.6698 27.2384 26.9241 27.0243 27.1384C26.8102 27.3526 26.5559 27.5225 26.2761 27.6383C25.9963 27.7542 25.6963 27.8138 25.3935 27.8136H2.42619C2.12353 27.8136 1.82385 27.754 1.54424 27.6381C1.26464 27.5222 1.01061 27.3524 0.79666 27.1384C0.58271 26.9243 0.413034 26.6702 0.297327 26.3905C0.18162 26.1108 0.12215 25.8111 0.122315 25.5085V2.54118ZM11.0375 10.7514H14.7716V12.6266C15.3106 11.5486 16.6894 10.5784 18.7614 10.5784C22.7336 10.5784 23.675 12.7256 23.675 16.6653V23.9629H19.6551V17.5627C19.6551 15.319 19.1161 14.053 17.7473 14.053C15.8483 14.053 15.0586 15.4181 15.0586 17.5627V23.9629H11.0375V10.7514ZM4.14344 23.7912H8.16456V10.5784H4.14344V23.79V23.7912ZM8.73991 6.26899C8.74749 6.61329 8.68622 6.95563 8.55971 7.27592C8.43319 7.59622 8.24397 7.88802 8.00316 8.13419C7.76234 8.38037 7.47478 8.57597 7.15735 8.7095C6.83991 8.84304 6.49901 8.91183 6.15463 8.91183C5.81025 8.91183 5.46934 8.84304 5.15191 8.7095C4.83448 8.57597 4.54692 8.38037 4.3061 8.13419C4.06528 7.88802 3.87607 7.59622 3.74955 7.27592C3.62303 6.95563 3.56177 6.61329 3.56935 6.26899C3.58423 5.59319 3.86314 4.95008 4.34636 4.4774C4.82957 4.00471 5.47866 3.74002 6.15463 3.74002C6.83059 3.74002 7.47969 4.00471 7.9629 4.4774C8.44611 4.95008 8.72502 5.59319 8.73991 6.26899Z" fill="#A7AECE"/>
</svg>
