<svg width="40" height="40" viewBox="0 0 40 40" fill="none" xmlns="http://www.w3.org/2000/svg">
<path fill-rule="evenodd" clip-rule="evenodd" d="M0.788971 29.6299V11.0346C0.788971 5.44093 5.3622 0.867706 10.9937 0.867706H29.589C35.1827 0.867706 39.7937 5.44093 39.7937 11.0346V29.6299C39.7937 35.2614 35.1827 39.8346 29.589 39.8346H10.9937C5.3622 39.8346 0.788971 35.2614 0.788971 29.6299Z" fill="url(#paint0_linear_8_57)"/>
<path fill-rule="evenodd" clip-rule="evenodd" d="M15.3024 27.1354C14.8488 26.5307 14.5843 25.8126 14.622 25.0567C14.622 23.1669 16.1339 21.6173 18.0236 21.6173C18.4016 21.6173 18.7417 21.6551 19.0819 21.7685V17.611C18.7039 17.5732 18.2882 17.5354 17.9102 17.5732V20.7858C17.5701 20.6725 17.1921 20.6347 16.852 20.6347C14.9622 20.6347 13.4126 22.1465 13.4126 24.074C13.4126 25.3969 14.1685 26.5685 15.3024 27.1354ZM27.0189 12.6599C26.2252 11.7906 25.6583 10.6189 25.5449 9.37166V8.84253H24.4488C24.7134 10.4677 25.6961 11.8284 27.0189 12.6599ZM25.5449 16.7795C27.1701 17.9134 29.0976 18.5937 31.2142 18.5937V14.5118C30.8362 14.5118 30.4205 14.474 30.0425 14.3984V17.611C27.926 17.611 25.9606 16.9307 24.3732 15.7969V24.074C24.3732 28.2315 21.0094 31.5575 16.852 31.5575C15.3024 31.5575 13.8661 31.1039 12.6945 30.3102C14.0551 31.7087 15.9449 32.578 18.0614 32.578C22.1811 32.578 25.5449 29.2142 25.5449 25.0567V16.7795Z" fill="#E74059"/>
<path fill-rule="evenodd" clip-rule="evenodd" d="M24.3732 15.7969C25.9606 16.9307 27.926 17.611 30.0425 17.611V14.3984C28.8331 14.1339 27.8126 13.5291 27.0189 12.6599C25.6961 11.8284 24.7134 10.4677 24.4488 8.84253H21.463V25.0567C21.463 26.9465 19.9134 28.4961 18.0236 28.4961C16.9276 28.4961 15.9449 27.9291 15.3024 27.1354C14.1685 26.5685 13.4126 25.3969 13.4126 24.074C13.4126 22.1465 14.9622 20.6347 16.852 20.6347C17.2299 20.6347 17.5701 20.6725 17.9102 20.7858V17.5732C13.8284 17.6488 10.5402 20.9748 10.5402 25.0567C10.5402 27.0976 11.3717 28.9496 12.6945 30.3102C13.8661 31.1039 15.3024 31.5575 16.852 31.5575C21.0095 31.5575 24.3732 28.2315 24.3732 24.074V15.7969Z" fill="#FEFEFE"/>
<path fill-rule="evenodd" clip-rule="evenodd" d="M17.9102 17.5732V16.6283C17.5323 16.5905 17.1921 16.5527 16.852 16.5527C12.7323 16.5527 9.3685 19.9165 9.3685 24.074C9.3685 26.6819 10.6913 28.9496 12.6945 30.3102C11.3716 28.9496 10.5402 27.0976 10.5402 25.0567C10.5402 20.9748 13.8283 17.6488 17.9102 17.5732ZM24.4488 8.84251C24.411 8.69133 24.3732 8.54015 24.3732 8.38897V7.85983H20.2913V24.074C20.2913 25.9638 18.7417 27.4756 16.852 27.4756C16.285 27.4756 15.7559 27.3622 15.3024 27.1354C15.9449 27.9291 16.9276 28.4961 18.0236 28.4961C19.9134 28.4961 21.463 26.9464 21.463 25.0567V8.84251H24.4488ZM30.0425 14.3984V13.5291C28.9842 13.5291 27.926 13.2268 27.0189 12.6598C27.8126 13.5669 28.8709 14.1716 30.0425 14.3984Z" fill="#21B6BF"/>
<defs>
<linearGradient id="paint0_linear_8_57" x1="3.90935" y1="3.9741" x2="36.6612" y2="36.726" gradientUnits="userSpaceOnUse">
<stop stop-color="#28284F"/>
<stop offset="1" stop-color="#1E1A1E"/>
</linearGradient>
</defs>
</svg>
