<svg width="35" height="28" viewBox="0 0 35 28" fill="none" xmlns="http://www.w3.org/2000/svg">
<path d="M34.9999 3.52098C33.7473 4.07605 32.4016 4.45109 30.987 4.62061C32.4466 3.7472 33.5387 2.37255 34.0593 0.753165C32.6879 1.56774 31.187 2.14112 29.6218 2.44836C28.5693 1.32453 27.1751 0.579634 25.6558 0.329327C24.1366 0.0790205 22.5771 0.337305 21.2197 1.06408C19.8622 1.79085 18.7827 2.94546 18.1487 4.34863C17.5147 5.75181 17.3617 7.32504 17.7134 8.82409C14.9346 8.68457 12.2162 7.96232 9.73466 6.7042C7.25307 5.44609 5.06375 3.68024 3.30878 1.52125C2.70871 2.55637 2.36368 3.75651 2.36368 5.03466C2.36301 6.18528 2.64636 7.31828 3.18859 8.33313C3.73082 9.34798 4.51516 10.2133 5.47203 10.8523C4.36232 10.817 3.27709 10.5172 2.30667 9.97772V10.0677C2.30656 11.6815 2.86478 13.2457 3.88662 14.4947C4.90847 15.7438 6.33099 16.6009 7.91281 16.9205C6.88337 17.1991 5.80408 17.2402 4.75645 17.0405C5.20275 18.4291 6.07209 19.6434 7.24279 20.5133C8.41348 21.3833 9.82691 21.8654 11.2852 21.8921C8.80966 23.8354 5.75239 24.8896 2.6052 24.8849C2.04771 24.8851 1.49069 24.8525 0.937012 24.7874C4.13159 26.8414 7.85031 27.9315 11.6482 27.9273C24.5047 27.9273 31.533 17.2791 31.533 8.044C31.533 7.74397 31.5255 7.44093 31.512 7.1409C32.8791 6.15225 34.0592 4.92799 34.9969 3.52548L34.9999 3.52098Z" fill="#A7AECE"/>
</svg>
