<svg width="26" height="26" viewBox="0 0 26 26" fill="none" xmlns="http://www.w3.org/2000/svg">
<path fill-rule="evenodd" clip-rule="evenodd" d="M18.8662 15.5805C18.5434 15.4191 16.9606 14.6413 16.666 14.5329C16.3713 14.4257 16.1568 14.3726 15.9412 14.6954C15.7267 15.0161 15.1103 15.7419 14.9229 15.9564C14.7344 16.172 14.547 16.198 14.2252 16.0377C13.9035 15.8752 12.8656 15.5361 11.6361 14.4398C10.6795 13.5861 10.0327 12.532 9.84532 12.2092C9.6579 11.8874 9.82473 11.713 9.98615 11.5527C10.1313 11.4086 10.3079 11.1768 10.4693 10.9894C10.6307 10.8009 10.6838 10.6665 10.7911 10.4509C10.8994 10.2364 10.8452 10.049 10.764 9.88761C10.6838 9.72619 10.0403 8.14128 9.77165 7.4967C9.51057 6.86945 9.24515 6.95503 9.04799 6.9442C8.85948 6.93553 8.64499 6.93337 8.43049 6.93337C8.21599 6.93337 7.86715 7.01353 7.57249 7.33637C7.27674 7.65811 6.44582 8.43703 6.44582 10.0219C6.44582 11.6058 7.59849 13.1365 7.7599 13.3521C7.92132 13.5666 10.0295 16.8188 13.2589 18.213C14.0281 18.5445 14.6271 18.7428 15.0941 18.8901C15.8654 19.136 16.5674 19.1013 17.1221 19.0179C17.7396 18.9258 19.0266 18.239 19.2952 17.4872C19.5628 16.7353 19.5628 16.0908 19.4826 15.9564C19.4025 15.8221 19.188 15.7419 18.8651 15.5805H18.8662ZM12.9924 23.6004H12.9881C11.0699 23.6008 9.18705 23.0851 7.53674 22.1076L7.14674 21.8758L3.09291 22.9396L4.17516 18.9876L3.92058 18.5824C2.84823 16.8755 2.28073 14.8999 2.28366 12.8841C2.28583 6.97995 7.08932 2.17646 12.9967 2.17646C15.8567 2.17646 18.5456 3.29229 20.567 5.31595C21.5641 6.30891 22.3544 7.48973 22.8922 8.79008C23.4299 10.0904 23.7045 11.4845 23.7 12.8917C23.6979 18.7958 18.8944 23.6004 12.9924 23.6004ZM22.1054 3.7787C20.9118 2.57721 19.4916 1.62454 17.9271 0.97591C16.3626 0.32728 14.6849 -0.00441593 12.9913 4.43923e-05C5.89116 4.43923e-05 0.1105 5.77962 0.108333 12.883C0.105043 15.1437 0.698071 17.3652 1.82758 19.3234L0 26L6.82932 24.2082C8.71851 25.2375 10.8356 25.7768 12.987 25.7768H12.9924C20.0925 25.7768 25.8732 19.9973 25.8754 12.8928C25.8806 11.1998 25.5501 9.52264 24.903 7.95823C24.2559 6.39383 23.305 4.97326 22.1054 3.7787Z" fill="#A7AECE"/>
</svg>
