<svg width="40" height="28" viewBox="0 0 40 28" fill="none" xmlns="http://www.w3.org/2000/svg">
<path d="M15.7124 19.1039L26.3057 13.6321L15.7124 8.09473V19.1039ZM19.7615 0.237305C22.2128 0.237305 24.5803 0.270135 26.8638 0.335796C29.1474 0.401457 30.8217 0.470766 31.8869 0.543723L33.4846 0.631271C33.4992 0.631271 33.6233 0.642214 33.8567 0.664101C34.0902 0.685988 34.258 0.707875 34.3601 0.729762C34.4623 0.751649 34.6337 0.784479 34.8745 0.828253C35.1152 0.872027 35.3231 0.930393 35.4982 1.00335C35.6733 1.07631 35.8776 1.17115 36.1111 1.28788C36.3445 1.40461 36.5707 1.54688 36.7896 1.71468C37.0084 1.88248 37.22 2.07581 37.4243 2.29468C37.5118 2.38223 37.6249 2.5172 37.7635 2.69959C37.9022 2.88198 38.1137 3.30878 38.3983 3.97998C38.6828 4.65118 38.8761 5.38804 38.9783 6.19057C39.095 7.12441 39.1862 8.12027 39.2519 9.17814C39.3175 10.236 39.3576 11.0641 39.3722 11.6623V15.5144C39.3868 17.6302 39.2555 19.7459 38.9783 21.8617C38.8761 22.6642 38.6937 23.3901 38.4311 24.0394C38.1685 24.6887 37.935 25.1374 37.7307 25.3855L37.4243 25.7575C37.22 25.9764 37.0084 26.1697 36.7896 26.3375C36.5707 26.5053 36.3445 26.644 36.1111 26.7534C35.8776 26.8628 35.6733 26.954 35.4982 27.027C35.3231 27.0999 35.1152 27.1583 34.8745 27.2021C34.6337 27.2459 34.4586 27.2787 34.3492 27.3006C34.2397 27.3225 34.0719 27.3443 33.8458 27.3662C33.6196 27.3881 33.4992 27.3991 33.4846 27.3991C29.8222 27.6763 25.2478 27.8149 19.7615 27.8149C16.7411 27.7857 14.1183 27.7383 11.8931 27.6726C9.66794 27.607 8.20516 27.5523 7.50478 27.5085L6.43232 27.4209L5.64439 27.3334C5.1191 27.2604 4.72149 27.1875 4.45155 27.1145C4.18161 27.0416 3.80953 26.8884 3.33531 26.6549C2.86109 26.4214 2.44889 26.1223 2.09869 25.7575C2.01115 25.67 1.89806 25.535 1.75945 25.3526C1.62083 25.1702 1.40925 24.7434 1.12472 24.0722C0.840193 23.401 0.646858 22.6642 0.544718 21.8617C0.427988 20.9278 0.336792 19.9319 0.271131 18.8741C0.20547 17.8162 0.165344 16.9881 0.150753 16.3899V12.5378C0.136161 10.4221 0.267483 8.30631 0.544718 6.19057C0.646858 5.38804 0.829249 4.66212 1.09189 4.01281C1.35454 3.3635 1.588 2.91481 1.79228 2.66676L2.09869 2.29468C2.30297 2.07581 2.51455 1.88248 2.73342 1.71468C2.95229 1.54688 3.17845 1.40461 3.41191 1.28788C3.64538 1.17115 3.84965 1.07631 4.02475 1.00335C4.19985 0.930393 4.40777 0.872027 4.64853 0.828253C4.88929 0.784479 5.06073 0.751649 5.16287 0.729762C5.26501 0.707875 5.43281 0.685988 5.66627 0.664101C5.89973 0.642214 6.02376 0.631271 6.03835 0.631271C9.70078 0.368627 14.2752 0.237305 19.7615 0.237305Z" fill="#A7AECE"/>
</svg>
