<svg width="15" height="13" viewBox="0 0 15 13" fill="none" xmlns="http://www.w3.org/2000/svg">
<path d="M7.21778 0.280029C6.94723 0.280029 6.67934 0.333317 6.42939 0.43685C6.17944 0.540382 5.95233 0.692132 5.76102 0.883436C5.56972 1.07474 5.41797 1.30185 5.31444 1.5518C5.2109 1.80175 5.15762 2.06964 5.15762 2.34019C5.15762 2.61073 5.2109 2.87863 5.31444 3.12858C5.41797 3.37853 5.56972 3.60564 5.76102 3.79694C5.95233 3.98825 6.17944 4.14 6.42939 4.24353C6.67934 4.34706 6.94723 4.40035 7.21778 4.40035C7.76417 4.40035 8.28817 4.1833 8.67453 3.79694C9.06088 3.41059 9.27794 2.88658 9.27794 2.34019C9.27794 1.7938 9.06088 1.26979 8.67453 0.883436C8.28817 0.497081 7.76417 0.280029 7.21778 0.280029V0.280029ZM11.8578 1.30908C11.4476 1.30908 11.0542 1.47203 10.7641 1.76209C10.4741 2.05214 10.3111 2.44554 10.3111 2.85574C10.3111 3.26595 10.4741 3.65935 10.7641 3.9494C11.0542 4.23946 11.4476 4.40241 11.8578 4.40241C12.268 4.40241 12.6614 4.23946 12.9514 3.9494C13.2415 3.65935 13.4044 3.26595 13.4044 2.85574C13.4044 2.44554 13.2415 2.05214 12.9514 1.76209C12.6614 1.47203 12.268 1.30908 11.8578 1.30908V1.30908ZM2.57778 1.30908C2.16758 1.30908 1.77418 1.47203 1.48412 1.76209C1.19406 2.05214 1.03111 2.44554 1.03111 2.85574C1.03111 3.26595 1.19406 3.65935 1.48412 3.9494C1.77418 4.23946 2.16758 4.40241 2.57778 4.40241C2.98798 4.40241 3.38138 4.23946 3.67144 3.9494C3.96149 3.65935 4.12444 3.26595 4.12444 2.85574C4.12444 2.44554 3.96149 2.05214 3.67144 1.76209C3.38138 1.47203 2.98798 1.30908 2.57778 1.30908ZM4.12444 6.45742C4.12635 6.1852 4.23582 5.92478 4.42899 5.73297C4.62215 5.54116 4.88333 5.43352 5.15556 5.43352H9.28C9.55347 5.43352 9.81573 5.54216 10.0091 5.73553C10.2025 5.9289 10.3111 6.19117 10.3111 6.46463V9.55797C10.311 9.88248 10.2602 10.205 10.1606 10.5138C9.93225 11.2136 9.46193 11.8091 8.83406 12.1934C8.20619 12.5776 7.4619 12.7255 6.73483 12.6103C6.00777 12.4952 5.34557 12.1246 4.86713 11.5652C4.3887 11.0058 4.12537 10.2941 4.12444 9.55797V6.45742ZM3.09333 6.46463C3.09333 6.08828 3.19335 5.73667 3.36967 5.43352H1.03111C0.757643 5.43352 0.495376 5.54216 0.302006 5.73553C0.108635 5.9289 1.42719e-07 6.19117 1.42719e-07 6.46463V9.04241C-0.00014028 9.46445 0.103344 9.88007 0.301366 10.2528C0.499387 10.6255 0.785889 10.9438 1.13571 11.1799C1.48553 11.416 1.88797 11.5626 2.30768 11.6069C2.7274 11.6511 3.15155 11.5916 3.5429 11.4336C3.24612 10.8526 3.09201 10.2093 3.09333 9.55693V6.46463ZM11.3422 6.46463V9.55797C11.3422 10.2333 11.1803 10.8706 10.8927 11.4336C11.284 11.5916 11.7082 11.6511 12.1279 11.6069C12.5476 11.5626 12.95 11.416 13.2998 11.1799C13.6497 10.9438 13.9362 10.6255 14.1342 10.2528C14.3322 9.88007 14.4357 9.46445 14.4356 9.04241V6.46463C14.4356 6.19117 14.3269 5.9289 14.1335 5.73553C13.9402 5.54216 13.6779 5.43352 13.4044 5.43352H11.0659C11.2412 5.73667 11.3422 6.08828 11.3422 6.46463Z" fill="#5092F3"/>
</svg>
