<svg width="12" height="14" viewBox="0 0 12 14" fill="none" xmlns="http://www.w3.org/2000/svg">
<path d="M9.85433 4.59869H11.1682C11.3425 4.59869 11.5096 4.6679 11.6328 4.7911C11.756 4.91431 11.8252 5.08141 11.8252 5.25564V13.1391C11.8252 13.3133 11.756 13.4804 11.6328 13.6036C11.5096 13.7268 11.3425 13.7961 11.1682 13.7961H0.656955C0.48272 13.7961 0.315621 13.7268 0.192418 13.6036C0.0692147 13.4804 0 13.3133 0 13.1391V5.25564C0 5.08141 0.0692147 4.91431 0.192418 4.7911C0.315621 4.6679 0.48272 4.59869 0.656955 4.59869H1.97087V3.94173C1.97087 2.89632 2.38615 1.89372 3.12537 1.15451C3.86459 0.415288 4.86719 0 5.9126 0C6.95801 0 7.96061 0.415288 8.69982 1.15451C9.43904 1.89372 9.85433 2.89632 9.85433 3.94173V4.59869ZM1.31391 5.9126V12.4822H10.5113V5.9126H1.31391ZM5.25564 8.54042H6.56955V9.85433H5.25564V8.54042ZM2.62782 8.54042H3.94173V9.85433H2.62782V8.54042ZM7.88346 8.54042H9.19737V9.85433H7.88346V8.54042ZM8.54042 4.59869V3.94173C8.54042 3.24479 8.26356 2.57639 7.77075 2.08358C7.27794 1.59077 6.60954 1.31391 5.9126 1.31391C5.21566 1.31391 4.54726 1.59077 4.05445 2.08358C3.56164 2.57639 3.28478 3.24479 3.28478 3.94173V4.59869H8.54042Z" fill="#E4EDFE"/>
</svg>
