<svg width="16" height="12" viewBox="0 0 16 12" fill="none" xmlns="http://www.w3.org/2000/svg">
<path d="M14.0904 0.50177H1.08388C0.796414 0.50177 0.520726 0.615964 0.31746 0.81923C0.114194 1.0225 0 1.29818 0 1.58565V10.2567C0 10.5441 0.114194 10.8198 0.31746 11.0231C0.520726 11.2263 0.796414 11.3405 1.08388 11.3405H14.0904C14.3778 11.3405 14.6535 11.2263 14.8568 11.0231C15.0601 10.8198 15.1743 10.5441 15.1743 10.2567V1.58565C15.1743 1.29818 15.0601 1.0225 14.8568 0.81923C14.6535 0.615964 14.3778 0.50177 14.0904 0.50177V0.50177ZM12.8981 1.58565L7.58713 5.25999L2.27614 1.58565H12.8981ZM1.08388 10.2567V2.07881L7.27823 6.36554C7.36894 6.42847 7.47672 6.4622 7.58713 6.4622C7.69754 6.4622 7.80532 6.42847 7.89604 6.36554L14.0904 2.07881V10.2567H1.08388Z" fill="#E4EDFE"/>
</svg>
