<svg width="18" height="14" viewBox="0 0 18 14" fill="none" xmlns="http://www.w3.org/2000/svg">
<path d="M17.144 1.61123C16.0734 1.16218 15.002 0.991333 13.9311 0.991333C10.5316 0.991057 7.13239 2.71192 3.7329 2.71192C2.88034 2.71192 2.02832 2.60373 1.17576 2.33325C1.07999 2.30289 0.98394 2.28853 0.8901 2.28853C0.415104 2.28853 0 2.65617 0 3.16649V11.9229C0 12.2715 0.199548 12.6018 0.519984 12.736C1.59059 13.1853 2.66202 13.3561 3.7329 13.3561C7.13239 13.3561 10.5319 11.6353 13.9314 11.6353C14.7839 11.6353 15.636 11.7435 16.4885 12.0139C16.5843 12.0443 16.6803 12.0587 16.7742 12.0587C17.2492 12.0587 17.6643 11.691 17.6643 11.1807V2.4246C17.664 2.07574 17.4645 1.74564 17.144 1.61123ZM1.3248 3.75741C1.88011 3.89651 2.45971 3.96634 3.05587 4.00387C2.89358 4.81504 2.1804 5.42638 1.3248 5.42638V3.75741ZM1.3248 11.6234V10.3047C2.27341 10.3047 3.04097 11.0573 3.0832 11.9993C2.46137 11.9494 1.88011 11.8252 1.3248 11.6234ZM8.832 9.82333C7.61236 9.82333 6.624 8.63681 6.624 7.17373C6.624 5.71038 7.61263 4.52413 8.832 4.52413C10.0514 4.52413 11.04 5.71038 11.04 7.17373C11.04 8.63736 10.0511 9.82333 8.832 9.82333ZM16.3392 10.5901C15.8556 10.4689 15.3536 10.401 14.84 10.3571C15.002 9.63731 15.599 9.09083 16.3392 8.99699V10.5901ZM16.3392 4.07343C15.4866 3.96551 14.8251 3.25371 14.7988 2.37465C15.3381 2.43454 15.8501 2.54659 16.3392 2.72406V4.07343Z" fill="#3DB9EA"/>
</svg>
