<svg width="243" height="325" viewBox="0 0 243 325" fill="none" xmlns="http://www.w3.org/2000/svg">
<rect width="139.734" height="139.734" rx="13.0897" transform="matrix(0.866025 -0.5 0.866025 0.5 0 254.56)" fill="url(#paint0_linear_42_371)" fill-opacity="0.1"/>
<rect width="139.734" height="139.734" rx="13.0897" transform="matrix(0.866025 -0.5 0.866025 0.5 0 235.961)" fill="url(#paint1_linear_42_371)" fill-opacity="0.2"/>
<rect width="139.734" height="139.734" rx="13.0897" transform="matrix(0.866025 -0.5 0.866025 0.5 0 198.762)" fill="url(#paint2_linear_42_371)" fill-opacity="0.6"/>
<rect width="139.734" height="139.734" rx="13.0897" transform="matrix(0.866025 -0.5 0.866025 0.5 0 217.361)" fill="url(#paint3_linear_42_371)" fill-opacity="0.4"/>
<rect width="139.734" height="139.734" rx="13.0897" transform="matrix(0.866025 -0.5 0.866025 0.5 0 180.162)" fill="url(#paint4_linear_42_371)" fill-opacity="0.8"/>
<g style="mix-blend-mode:darken">
<rect width="139.734" height="139.734" rx="13.0897" transform="matrix(0.866025 -0.5 0.866025 0.5 0 161.563)" fill="url(#paint5_linear_42_371)"/>
</g>
<path d="M0 243.932V184.698C0 166.496 19.7543 155.162 35.4683 164.349L108.965 207.319C116.3 211.606 125.374 211.616 132.717 207.343L206.555 164.381C222.269 155.238 241.981 166.575 241.981 184.755V244.074C241.981 252.391 237.597 260.093 230.446 264.34L134.155 321.529C126.802 325.896 117.659 325.938 110.266 321.637L11.7186 264.307C4.46342 260.086 0 252.326 0 243.932Z" fill="url(#paint6_linear_42_371)"/>
<g style="mix-blend-mode:darken" filter="url(#filter0_f_42_371)">
<ellipse cx="121.139" cy="166.194" rx="38.7885" ry="24.1682" fill="#322A78" fill-opacity="0.25"/>
</g>
<path opacity="0.8" d="M121.753 102.464C114.846 102.464 109.662 97.7217 107.528 89.4424C107.505 89.3421 107.505 89.2378 107.528 89.1375L104.341 62.8663C104.342 62.74 104.388 62.6182 104.472 62.5239C104.557 62.4296 104.672 62.3694 104.798 62.3544C104.923 62.3394 105.05 62.3708 105.154 62.4426C105.258 62.5144 105.332 62.6217 105.362 62.7443L108.488 89.1375C109.647 93.7117 112.94 101.335 121.692 101.335C128.401 101.335 133.585 96.5477 134.912 89.1375V89.0002V88.6343L137.961 62.7139C137.98 62.5787 138.052 62.4565 138.16 62.3738C138.269 62.291 138.405 62.2543 138.541 62.2717C138.676 62.287 138.799 62.3548 138.885 62.4603C138.97 62.5658 139.011 62.7006 138.998 62.8358L135.949 89.1375C135.956 89.2135 135.956 89.2901 135.949 89.3662C134.576 97.3405 128.98 102.464 121.753 102.464Z" fill="url(#paint7_linear_42_371)"/>
<path opacity="0.8" d="M121.753 102.464C114.846 102.464 109.662 97.7217 107.528 89.4424C107.505 89.3421 107.505 89.2378 107.528 89.1375L104.341 62.8663C104.342 62.74 104.388 62.6182 104.472 62.5239C104.557 62.4296 104.672 62.3694 104.798 62.3544C104.923 62.3394 105.05 62.3708 105.154 62.4426C105.258 62.5144 105.332 62.6217 105.362 62.7443L108.488 89.1375C109.647 93.7117 112.94 101.335 121.692 101.335C128.401 101.335 133.585 96.5477 134.912 89.1375V89.0002V88.6343L137.961 62.7139C137.98 62.5787 138.052 62.4565 138.16 62.3738C138.269 62.291 138.405 62.2543 138.541 62.2717C138.676 62.287 138.799 62.3548 138.885 62.4603C138.97 62.5658 139.011 62.7006 138.998 62.8358L135.949 89.1375C135.956 89.2135 135.956 89.2901 135.949 89.3662C134.576 97.3405 128.98 102.464 121.753 102.464Z" fill="url(#paint8_linear_42_371)"/>
<path d="M139.105 158.314H104.204V167.097C104.204 172.708 112.025 177.267 121.662 177.267C131.298 177.267 139.105 172.692 139.105 167.097V166.959V158.314Z" fill="#322A78"/>
<path d="M121.722 173.424C133.739 173.424 143.48 167.553 143.48 160.311C143.48 153.069 133.739 147.199 121.722 147.199C109.706 147.199 99.9644 153.069 99.9644 160.311C99.9644 167.553 109.706 173.424 121.722 173.424Z" fill="url(#paint9_radial_42_371)"/>
<path d="M121.722 173.424C133.739 173.424 143.48 167.553 143.48 160.311C143.48 153.069 133.739 147.199 121.722 147.199C109.706 147.199 99.9644 153.069 99.9644 160.311C99.9644 167.553 109.706 173.424 121.722 173.424Z" fill="#322A78" fill-opacity="0.65"/>
<g style="mix-blend-mode:multiply">
<path d="M143.222 156.957H100.087V161.135C100.087 166.304 109.754 170.161 121.662 170.161C133.57 170.161 143.222 163.361 143.222 158.192V156.957Z" fill="url(#paint10_linear_42_371)" style="mix-blend-mode:multiply"/>
<path d="M143.222 156.957H100.087V161.135C100.087 166.304 109.754 170.161 121.662 170.161C133.57 170.161 143.222 163.361 143.222 158.192V156.957Z" fill="#322A78" fill-opacity="0.38"/>
</g>
<path d="M121.722 168.347C133.739 168.347 143.48 162.476 143.48 155.234C143.48 147.992 133.739 142.121 121.722 142.121C109.706 142.121 99.9644 147.992 99.9644 155.234C99.9644 162.476 109.706 168.347 121.722 168.347Z" fill="url(#paint11_radial_42_371)"/>
<path d="M121.722 168.347C133.739 168.347 143.48 162.476 143.48 155.234C143.48 147.992 133.739 142.121 121.722 142.121C109.706 142.121 99.9644 147.992 99.9644 155.234C99.9644 162.476 109.706 168.347 121.722 168.347Z" fill="#322A78" fill-opacity="0.65"/>
<g style="mix-blend-mode:multiply">
<path d="M143.222 151.849H100.087V156.012C100.087 161.196 109.754 165.053 121.662 165.053C133.57 165.053 143.222 158.299 143.222 153.115V151.849Z" fill="url(#paint12_linear_42_371)" style="mix-blend-mode:multiply"/>
<path d="M143.222 151.849H100.087V156.012C100.087 161.196 109.754 165.053 121.662 165.053C133.57 165.053 143.222 158.299 143.222 153.115V151.849Z" fill="#322A78" fill-opacity="0.25"/>
</g>
<path d="M121.722 163.407C133.739 163.407 143.48 157.536 143.48 150.294C143.48 143.053 133.739 137.182 121.722 137.182C109.706 137.182 99.9644 143.053 99.9644 150.294C99.9644 157.536 109.706 163.407 121.722 163.407Z" fill="url(#paint13_radial_42_371)"/>
<path d="M121.722 163.407C133.739 163.407 143.48 157.536 143.48 150.294C143.48 143.053 133.739 137.182 121.722 137.182C109.706 137.182 99.9644 143.053 99.9644 150.294C99.9644 157.536 109.706 163.407 121.722 163.407Z" fill="#322A78" fill-opacity="0.65"/>
<g style="mix-blend-mode:multiply">
<path d="M143.222 146.955H100.087V151.117C100.087 156.301 109.754 160.159 121.662 160.159C133.57 160.159 143.222 153.374 143.222 148.175V146.955Z" fill="url(#paint14_linear_42_371)" style="mix-blend-mode:multiply"/>
<path d="M143.222 146.955H100.087V151.117C100.087 156.301 109.754 160.159 121.662 160.159C133.57 160.159 143.222 153.374 143.222 148.175V146.955Z" fill="#322A78" fill-opacity="0.25"/>
</g>
<path d="M121.722 158.33C133.739 158.33 143.48 152.459 143.48 145.217C143.48 137.975 133.739 132.104 121.722 132.104C109.706 132.104 99.9644 137.975 99.9644 145.217C99.9644 152.459 109.706 158.33 121.722 158.33Z" fill="url(#paint15_radial_42_371)"/>
<path d="M121.722 158.33C133.739 158.33 143.48 152.459 143.48 145.217C143.48 137.975 133.739 132.104 121.722 132.104C109.706 132.104 99.9644 137.975 99.9644 145.217C99.9644 152.459 109.706 158.33 121.722 158.33Z" fill="#322A78" fill-opacity="0.65"/>
<g style="mix-blend-mode:multiply">
<path d="M143.222 141.877H100.087V146.04C100.087 151.224 109.754 155.082 121.662 155.082C133.57 155.082 143.222 148.281 143.222 143.097V141.877Z" fill="url(#paint16_linear_42_371)" style="mix-blend-mode:multiply"/>
<path d="M143.222 141.877H100.087V146.04C100.087 151.224 109.754 155.082 121.662 155.082C133.57 155.082 143.222 148.281 143.222 143.097V141.877Z" fill="#322A78" fill-opacity="0.25"/>
</g>
<path d="M121.722 153.405C133.739 153.405 143.48 147.534 143.48 140.292C143.48 133.05 133.739 127.179 121.722 127.179C109.706 127.179 99.9644 133.05 99.9644 140.292C99.9644 147.534 109.706 153.405 121.722 153.405Z" fill="url(#paint17_radial_42_371)"/>
<path d="M121.722 153.405C133.739 153.405 143.48 147.534 143.48 140.292C143.48 133.05 133.739 127.179 121.722 127.179C109.706 127.179 99.9644 133.05 99.9644 140.292C99.9644 147.534 109.706 153.405 121.722 153.405Z" fill="#322A78" fill-opacity="0.65"/>
<g style="mix-blend-mode:multiply">
<path d="M143.222 136.938H100.087V141.176C100.087 146.345 109.754 150.203 121.662 150.203C133.57 150.203 143.222 143.341 143.222 138.127V136.938Z" fill="url(#paint18_linear_42_371)" style="mix-blend-mode:multiply"/>
<path d="M143.222 136.938H100.087V141.176C100.087 146.345 109.754 150.203 121.662 150.203C133.57 150.203 143.222 143.341 143.222 138.127V136.938Z" fill="#322A78" fill-opacity="0.25"/>
</g>
<path d="M145.509 122.773H97.876V133.919C97.876 141.543 108.549 147.779 121.662 147.779C134.775 147.779 145.509 141.573 145.509 133.919V122.773Z" fill="url(#paint19_linear_42_371)"/>
<path d="M145.509 122.773H97.876V133.919C97.876 141.543 108.549 147.779 121.662 147.779C134.775 147.779 145.509 141.573 145.509 133.919V122.773Z" fill="#322A78" fill-opacity="0.8"/>
<path d="M121.662 136.709C134.798 136.709 145.448 130.51 145.448 122.864C145.448 115.218 134.798 109.02 121.662 109.02C108.525 109.02 97.876 115.218 97.876 122.864C97.876 130.51 108.525 136.709 121.662 136.709Z" fill="url(#paint20_linear_42_371)"/>
<path style="mix-blend-mode:color-dodge" d="M121.662 136.602C108.671 136.602 98.1198 130.503 97.8911 123.001C97.8911 123.093 97.8911 123.169 97.8911 123.26C97.8911 130.884 108.564 137.105 121.677 137.105C134.79 137.105 145.509 130.945 145.509 123.306C145.516 123.22 145.516 123.133 145.509 123.047C145.188 130.594 134.652 136.602 121.662 136.602Z" fill="url(#paint21_radial_42_371)"/>
<path d="M121.662 134.971C132.954 134.971 142.109 129.639 142.109 123.062C142.109 116.486 132.954 111.154 121.662 111.154C110.37 111.154 101.215 116.486 101.215 123.062C101.215 129.639 110.37 134.971 121.662 134.971Z" fill="#6874A8"/>
<path d="M121.661 119.205C130.52 119.205 138.037 122.498 140.873 127.088C141.649 125.887 142.072 124.492 142.093 123.062C142.093 116.491 132.944 111.154 121.661 111.154C110.378 111.154 101.291 116.491 101.291 123.062C101.312 124.492 101.735 125.887 102.511 127.088C105.271 122.498 112.787 119.205 121.661 119.205Z" fill="url(#paint22_linear_42_371)"/>
<path opacity="0.8" d="M118.063 130.961H125.519C126.98 130.957 128.38 130.373 129.412 129.339C130.443 128.304 131.023 126.902 131.023 125.441V107.632C130.924 105.279 129.895 103.062 128.163 101.467C126.43 99.8718 124.136 99.0292 121.783 99.1242C120.617 99.0751 119.452 99.2562 118.356 99.6573C117.259 100.058 116.253 100.671 115.393 101.461C114.534 102.251 113.838 103.203 113.347 104.262C112.855 105.321 112.577 106.466 112.528 107.632V107.739V125.441C112.526 126.168 112.668 126.888 112.945 127.559C113.223 128.231 113.631 128.841 114.145 129.354C114.66 129.867 115.271 130.273 115.943 130.549C116.616 130.825 117.336 130.965 118.063 130.961V130.961Z" fill="url(#paint23_linear_42_371)"/>
<path opacity="0.8" d="M120.517 100.39H122.988C123.994 100.39 124.817 99.2615 124.817 97.874V75.2165C124.913 74.3011 124.647 73.3845 124.078 72.6614C123.509 71.9383 122.68 71.4656 121.768 71.3436C120.856 71.4656 120.027 71.9383 119.457 72.6614C118.888 73.3845 118.623 74.3011 118.718 75.2165V97.874C118.703 99.2615 119.587 100.39 120.517 100.39Z" fill="url(#paint24_linear_42_371)"/>
<path opacity="0.8" d="M121.815 104.933C124.543 104.933 126.755 103.036 126.755 100.695C126.755 98.3537 124.543 96.4559 121.815 96.4559C119.087 96.4559 116.875 98.3537 116.875 100.695C116.875 103.036 119.087 104.933 121.815 104.933Z" fill="url(#paint25_radial_42_371)"/>
<path opacity="0.7" d="M115.64 11.9249C105.746 13.0908 96.4141 17.1395 88.8036 23.5673C81.1932 29.9952 75.6405 38.5186 72.836 48.0775C70.0316 57.6363 70.0992 67.8087 73.0305 77.3293C75.9618 86.85 81.6274 95.2989 89.3227 101.625C92.3491 104.147 94.7809 107.307 96.4441 110.879C98.1073 114.45 98.9608 118.345 98.9437 122.285V122.422C98.9133 122.93 98.9133 123.439 98.9437 123.947C98.938 124.438 99.0314 124.926 99.2182 125.38C101.048 131.632 110.379 136.389 121.647 136.389C132.915 136.389 142.231 131.632 144.061 125.396C144.255 124.911 144.354 124.393 144.35 123.871C144.35 123.612 144.35 122.605 144.35 122.346C144.378 118.302 145.29 114.314 147.023 110.66C148.757 107.007 151.269 103.777 154.383 101.198C162.72 94.1464 168.563 84.5972 171.048 73.9648C173.534 63.3325 172.528 52.1824 168.181 42.1661C163.834 32.1497 156.377 23.7998 146.914 18.353C137.45 12.9062 126.484 10.6522 115.64 11.9249V11.9249Z" fill="url(#paint26_radial_42_371)"/>
<path opacity="0.7" d="M115.64 11.9249C105.746 13.0908 96.4141 17.1395 88.8036 23.5673C81.1932 29.9952 75.6405 38.5186 72.836 48.0775C70.0316 57.6363 70.0992 67.8087 73.0305 77.3293C75.9618 86.85 81.6274 95.2989 89.3227 101.625C92.3491 104.147 94.7809 107.307 96.4441 110.879C98.1073 114.45 98.9608 118.345 98.9437 122.285V122.422C98.9133 122.93 98.9133 123.439 98.9437 123.947C98.938 124.438 99.0314 124.926 99.2182 125.38C101.048 131.632 110.379 136.389 121.647 136.389C132.915 136.389 142.231 131.632 144.061 125.396C144.255 124.911 144.354 124.393 144.35 123.871C144.35 123.612 144.35 122.605 144.35 122.346C144.378 118.302 145.29 114.314 147.023 110.66C148.757 107.007 151.269 103.777 154.383 101.198C162.72 94.1464 168.563 84.5972 171.048 73.9648C173.534 63.3325 172.528 52.1824 168.181 42.1661C163.834 32.1497 156.377 23.7998 146.914 18.353C137.45 12.9062 126.484 10.6522 115.64 11.9249V11.9249Z" fill="url(#paint27_radial_42_371)"/>
<g style="mix-blend-mode:color-dodge" opacity="0.7">
<path style="mix-blend-mode:color-dodge" opacity="0.25" d="M164.784 74.2755C172.827 49.6707 159.4 23.2052 134.795 15.1631C110.19 7.12101 83.7247 20.5477 75.6826 45.1525C67.6405 69.7574 81.0672 96.2229 105.672 104.265C130.277 112.307 156.742 98.8803 164.784 74.2755Z" fill="url(#paint28_linear_42_371)"/>
<path style="mix-blend-mode:color-dodge" opacity="0.28" d="M161.228 76.8891C170.863 53.709 159.882 27.1075 136.702 17.4728C113.522 7.83811 86.9206 18.8188 77.2859 41.9988C67.6513 65.1788 78.6319 91.7804 101.812 101.415C124.992 111.05 151.594 100.069 161.228 76.8891Z" fill="url(#paint29_linear_42_371)"/>
<path style="mix-blend-mode:color-dodge" opacity="0.31" d="M157.489 79.1488C168.511 57.4798 159.879 30.9787 138.21 19.9568C116.541 8.93494 90.0402 17.5662 79.0184 39.2351C67.9965 60.9041 76.6277 87.4053 98.2967 98.4272C119.966 109.449 146.467 100.818 157.489 79.1488Z" fill="url(#paint30_linear_42_371)"/>
<path style="mix-blend-mode:color-dodge" opacity="0.33" d="M153.74 80.942C165.893 60.7958 159.414 34.6122 139.267 22.4593C119.121 10.3063 92.9376 16.7861 80.7846 36.9323C68.6317 57.0785 75.1115 83.2621 95.2577 95.415C115.404 107.568 141.587 101.088 153.74 80.942Z" fill="url(#paint31_linear_42_371)"/>
<path style="mix-blend-mode:color-dodge" opacity="0.36" d="M150.042 82.1921C163.036 63.5243 158.437 37.8576 139.769 24.8638C121.101 11.87 95.4342 16.4697 82.4404 35.1375C69.4466 53.8053 74.0463 79.472 92.7141 92.4658C111.382 105.46 137.049 100.86 150.042 82.1921Z" fill="url(#paint32_linear_42_371)"/>
<path style="mix-blend-mode:color-dodge" opacity="0.38" d="M146.528 82.9482C160.083 65.6796 157.073 40.6921 139.804 27.1371C122.536 13.5822 97.5481 16.5927 83.9931 33.8614C70.4382 51.13 73.4487 76.1175 90.7174 89.6724C107.986 103.227 132.973 100.217 146.528 82.9482Z" fill="url(#paint33_linear_42_371)"/>
<path style="mix-blend-mode:color-dodge" opacity="0.41" d="M143.209 83.269C157.092 67.2869 155.391 43.0763 139.409 29.1931C123.426 15.3098 99.2159 17.0113 85.3326 32.9934C71.4494 48.9755 73.1509 73.1861 89.133 87.0693C105.115 100.953 129.326 99.2511 143.209 83.269Z" fill="url(#paint34_linear_42_371)"/>
<path style="mix-blend-mode:color-dodge" opacity="0.44" d="M139.374 83.9848C153.79 69.5691 153.79 46.1966 139.374 31.7808C124.959 17.3651 101.586 17.3651 87.1703 31.7808C72.7546 46.1966 72.7546 69.5691 87.1703 83.9848C101.586 98.4005 124.959 98.4005 139.374 83.9848Z" fill="url(#paint35_linear_42_371)"/>
<path style="mix-blend-mode:color-dodge" opacity="0.46" d="M137.37 82.7112C151.232 68.8493 151.232 46.3746 137.37 32.5126C123.508 18.6507 101.034 18.6507 87.1716 32.5126C73.3096 46.3746 73.3096 68.8493 87.1716 82.7112C101.034 96.5732 123.508 96.5732 137.37 82.7112Z" fill="url(#paint36_linear_42_371)"/>
<path style="mix-blend-mode:color-dodge" opacity="0.49" d="M134.362 82.3848C148.19 69.6296 149.059 48.0799 136.304 34.2523C123.549 20.4247 101.999 19.5554 88.1714 32.3107C74.3438 45.0659 73.4745 66.6156 86.2297 80.4432C98.985 94.2708 120.535 95.1401 134.362 82.3848Z" fill="url(#paint37_linear_42_371)"/>
<path style="mix-blend-mode:color-dodge" opacity="0.51" d="M131.743 81.6825C145.321 69.8211 146.712 49.1986 134.851 35.6209C122.99 22.0431 102.367 20.6516 88.7893 32.513C75.2115 44.3743 73.8201 64.9968 85.6815 78.5746C97.5428 92.1524 118.165 93.5438 131.743 81.6825Z" fill="url(#paint38_linear_42_371)"/>
<path style="mix-blend-mode:color-dodge" opacity="0.54" d="M129.275 80.8151C142.523 69.7735 144.312 50.083 133.27 36.8352C122.228 23.5873 102.538 21.7988 89.2901 32.8404C76.0422 43.882 74.2537 63.5725 85.2953 76.8203C96.3369 90.0682 116.027 91.8567 129.275 80.8151Z" fill="url(#paint39_linear_42_371)"/>
<path style="mix-blend-mode:color-dodge" opacity="0.57" d="M126.894 79.844C139.751 69.5619 141.838 50.804 131.556 37.947C121.274 25.0899 102.516 23.0025 89.6591 33.2845C76.8021 43.5665 74.7146 62.3244 84.9966 75.1815C95.2787 88.0385 114.037 90.126 126.894 79.844Z" fill="url(#paint40_linear_42_371)"/>
<path style="mix-blend-mode:color-dodge" opacity="0.59" d="M124.614 78.7654C137.023 69.195 139.325 51.3768 129.754 38.9673C120.184 26.5578 102.366 24.2563 89.9562 33.8267C77.5467 43.3971 75.2452 61.2153 84.8155 73.6247C94.3859 86.0342 112.204 88.3357 124.614 78.7654Z" fill="url(#paint41_linear_42_371)"/>
<path style="mix-blend-mode:color-dodge" opacity="0.62" d="M122.422 77.6277C134.351 68.7197 136.8 51.828 127.892 39.8988C118.984 27.9697 102.093 25.5205 90.1636 34.4284C78.2344 43.3363 75.7853 60.2281 84.6932 72.1572C93.6011 84.0864 110.493 86.5356 122.422 77.6277Z" fill="url(#paint42_linear_42_371)"/>
<path style="mix-blend-mode:color-dodge" opacity="0.64" d="M120.288 76.4517C131.705 68.169 134.246 52.1992 125.963 40.7823C117.68 29.3654 101.711 26.8246 90.2938 35.1073C78.8768 43.39 76.336 59.3597 84.6188 70.7767C92.9015 82.1936 108.871 84.7344 120.288 76.4517Z" fill="url(#paint43_linear_42_371)"/>
<path style="mix-blend-mode:color-dodge" opacity="0.67" d="M118.222 75.1995C129.093 67.5139 131.675 52.4708 123.989 41.5999C116.304 30.7289 101.261 28.1468 90.3896 35.8324C79.5187 43.5181 76.9365 58.5612 84.6222 69.4321C92.3078 80.303 107.351 82.8852 118.222 75.1995Z" fill="url(#paint44_linear_42_371)"/>
<path style="mix-blend-mode:color-dodge" opacity="0.7" d="M116.182 73.9205C126.493 66.7998 129.078 52.6692 121.958 42.3588C114.837 32.0485 100.707 29.4627 90.3961 36.5833C80.0858 43.7039 77.4999 57.8345 84.6206 68.1449C91.7412 78.4553 105.872 81.0411 116.182 73.9205Z" fill="url(#paint45_linear_42_371)"/>
<path style="mix-blend-mode:color-dodge" opacity="0.72" d="M114.212 72.612C123.944 66.0329 126.5 52.8102 119.921 43.0783C113.342 33.3464 100.119 30.7905 90.3873 37.3696C80.6554 43.9487 78.0995 57.1714 84.6786 66.9033C91.2577 76.6352 104.48 79.1911 114.212 72.612Z" fill="url(#paint46_linear_42_371)"/>
<path style="mix-blend-mode:color-dodge" opacity="0.75" d="M112.002 71.13C121.102 65.0998 123.591 52.8343 117.56 43.7342C111.53 34.6341 99.2648 32.1454 90.1647 38.1756C81.0646 44.2058 78.5759 56.4713 84.6061 65.5714C90.6363 74.6715 102.902 77.1602 112.002 71.13Z" fill="url(#paint47_linear_42_371)"/>
<path style="mix-blend-mode:color-dodge" opacity="0.77" d="M110.356 69.9014C118.878 64.3477 121.285 52.9367 115.731 44.4141C110.178 35.8915 98.7666 33.4847 90.244 39.0384C81.7214 44.5921 79.3146 56.0032 84.8683 64.5257C90.422 73.0483 101.833 75.4551 110.356 69.9014Z" fill="url(#paint48_linear_42_371)"/>
<path style="mix-blend-mode:color-dodge" opacity="0.8" d="M114.389 46.3381C115.951 49.32 116.593 52.6984 116.233 56.0452C115.872 59.392 114.527 62.5566 112.366 65.1379C110.206 67.7192 107.328 69.601 104.097 70.5449C100.866 71.4888 97.427 71.4523 94.2167 70.44C91.0063 69.4277 88.1688 67.4851 86.0636 64.8585C83.9584 62.2319 82.6804 59.0395 82.3914 55.6858C82.1024 52.3321 82.8155 48.968 84.4403 46.02C86.0652 43.072 88.5286 40.6727 91.5184 39.1261C95.5106 37.0655 100.156 36.6674 104.44 38.0184C108.725 39.3695 112.301 42.3602 114.389 46.3381Z" fill="url(#paint49_linear_42_371)"/>
</g>
<path style="mix-blend-mode:color-dodge" opacity="0.8" d="M117.606 142.518C117.606 162.629 114.114 176.626 109.815 176.626C105.515 176.626 102.039 162.629 102.039 142.518C102.039 122.406 105.515 106.107 109.815 106.107C114.114 106.107 117.606 122.391 117.606 142.518Z" fill="url(#paint50_radial_42_371)"/>
<g style="mix-blend-mode:color-dodge" opacity="0.7">
<path style="mix-blend-mode:color-dodge" opacity="0.25" d="M160.173 98.7101C175.363 83.5203 175.363 58.8928 160.173 43.703C144.984 28.5132 120.356 28.5132 105.166 43.703C89.9764 58.8928 89.9764 83.5203 105.166 98.7101C120.356 113.9 144.984 113.9 160.173 98.7101Z" fill="url(#paint51_linear_42_371)"/>
<path style="mix-blend-mode:color-dodge" opacity="0.28" d="M148.512 106.126C167.519 97.6997 176.171 75.6289 167.836 56.8299C159.502 38.0309 137.337 29.6224 118.33 38.0491C99.3232 46.4757 90.6715 68.5465 99.006 87.3456C107.341 106.145 129.505 114.553 148.512 106.126Z" fill="url(#paint52_linear_42_371)"/>
<path style="mix-blend-mode:color-dodge" opacity="0.31" d="M148.721 105.433C167.067 97.1993 175.419 75.9947 167.375 58.0711C159.331 40.1475 137.938 32.2921 119.592 40.5257C101.246 48.7592 92.8939 69.9638 100.938 87.8874C108.982 105.811 130.375 113.666 148.721 105.433Z" fill="url(#paint53_linear_42_371)"/>
<path style="mix-blend-mode:color-dodge" opacity="0.33" d="M148.96 104.743C166.635 96.7027 174.675 76.3589 166.917 59.3041C159.159 42.2493 138.541 34.9416 120.866 42.982C103.19 51.0224 95.1499 71.3661 102.908 88.4209C110.666 105.476 131.284 112.783 148.96 104.743Z" fill="url(#paint54_linear_42_371)"/>
<path style="mix-blend-mode:color-dodge" opacity="0.36" d="M149.193 104.055C166.207 96.208 173.947 76.7235 166.481 60.5354C159.015 44.3472 139.17 37.5855 122.156 45.4327C105.142 53.2799 97.4017 72.7643 104.868 88.9525C112.334 105.141 132.179 111.902 149.193 104.055Z" fill="url(#paint55_linear_42_371)"/>
<path style="mix-blend-mode:color-dodge" opacity="0.38" d="M149.41 103.36C165.76 95.701 173.196 77.0731 166.019 61.7532C158.843 46.4332 139.772 40.2225 123.422 47.8811C107.073 55.5397 99.6365 74.1676 106.813 89.4876C113.989 104.808 133.061 111.018 149.41 103.36Z" fill="url(#paint56_linear_42_371)"/>
<path style="mix-blend-mode:color-dodge" opacity="0.41" d="M149.631 102.684C165.316 95.2157 172.453 77.4448 165.571 62.9914C158.69 48.5379 140.396 42.8751 124.711 50.3431C109.025 57.8111 101.889 75.582 108.77 90.0354C115.652 104.489 133.946 110.152 149.631 102.684Z" fill="url(#paint57_linear_42_371)"/>
<path style="mix-blend-mode:color-dodge" opacity="0.44" d="M149.858 102.003C164.883 94.7166 171.72 77.7906 165.128 64.1975C158.537 50.6044 141.013 45.4916 125.988 52.7777C110.963 60.0638 104.126 76.9897 110.717 90.5828C117.309 104.176 134.833 109.289 149.858 102.003Z" fill="url(#paint58_linear_42_371)"/>
<path style="mix-blend-mode:color-dodge" opacity="0.46" d="M150.078 101.331C164.443 94.228 170.983 78.1469 164.687 65.4125C158.39 52.6781 141.641 48.1127 127.276 55.2154C112.911 62.3181 106.37 78.3992 112.667 91.1336C118.963 103.868 135.713 108.433 150.078 101.331Z" fill="url(#paint59_linear_42_371)"/>
<path style="mix-blend-mode:color-dodge" opacity="0.49" d="M150.283 100.688C163.993 93.7625 170.241 78.5151 164.238 66.6317C158.235 54.7484 142.255 50.7291 128.545 57.6544C114.836 64.5798 108.588 79.8272 114.591 91.7105C120.593 103.594 136.573 107.613 150.283 100.688Z" fill="url(#paint60_linear_42_371)"/>
<path style="mix-blend-mode:color-dodge" opacity="0.51" d="M150.5 100.034C163.552 93.2831 169.507 78.8669 163.8 67.8345C158.094 56.8022 142.887 53.3314 129.836 60.0824C116.784 66.8334 110.829 81.2496 116.535 92.282C122.242 103.314 137.448 106.785 150.5 100.034Z" fill="url(#paint61_linear_42_371)"/>
<path style="mix-blend-mode:color-dodge" opacity="0.54" d="M150.742 99.3989C163.14 92.8152 168.804 79.2182 163.394 69.0291C157.983 58.8401 143.546 55.9174 131.148 62.5012C118.75 69.0849 113.086 82.682 118.497 92.871C123.908 103.06 138.344 105.983 150.742 99.3989Z" fill="url(#paint62_linear_42_371)"/>
<path style="mix-blend-mode:color-dodge" opacity="0.57" d="M150.947 98.7826C162.695 92.361 168.075 79.5718 162.962 70.2172C157.849 60.8625 144.179 58.4848 132.431 64.9064C120.682 71.328 115.303 84.1172 120.416 93.4718C125.529 102.826 139.198 105.204 150.947 98.7826Z" fill="url(#paint63_linear_42_371)"/>
<path style="mix-blend-mode:color-dodge" opacity="0.59" d="M151.148 98.1621C162.25 91.8938 167.347 79.899 162.532 71.371C157.716 62.843 144.813 61.0112 133.711 67.2795C122.61 73.5478 117.513 85.5426 122.328 94.0706C127.143 102.599 140.047 104.43 151.148 98.1621Z" fill="url(#paint64_linear_42_371)"/>
<path style="mix-blend-mode:color-dodge" opacity="0.62" d="M151.348 97.5647C161.798 91.4462 166.613 80.2417 162.103 72.5389C157.593 64.8361 145.465 63.5517 135.016 69.6703C124.566 75.7888 119.751 86.9933 124.261 94.6961C128.771 102.399 140.899 103.683 151.348 97.5647Z" fill="url(#paint65_linear_42_371)"/>
<path style="mix-blend-mode:color-dodge" opacity="0.64" d="M151.558 96.9741C161.37 90.9871 165.911 80.5394 161.7 73.6385C157.489 66.7377 146.122 65.9968 136.309 71.9839C126.497 77.9709 121.956 88.4186 126.167 95.3195C130.378 102.22 141.745 102.961 151.558 96.9741Z" fill="url(#paint66_linear_42_371)"/>
<path style="mix-blend-mode:color-dodge" opacity="0.67" d="M127.09 93.9086C124.879 86.8033 130.963 77.289 140.675 72.5623C150.388 67.8356 160.07 69.833 162.281 76.8926C164.492 83.9521 158.408 93.4511 148.695 98.1321C138.983 102.813 129.301 100.907 127.09 93.9086Z" fill="url(#paint67_linear_42_371)"/>
<path style="mix-blend-mode:color-dodge" opacity="0.7" d="M129.164 95.0827C126.922 88.9837 132.381 79.9878 141.362 75.1087C150.342 70.2295 159.445 71.2816 161.686 77.4263C163.928 83.5709 158.469 92.5211 149.488 97.4003C140.508 102.279 131.405 101.227 129.164 95.0827Z" fill="url(#paint68_linear_42_371)"/>
<path style="mix-blend-mode:color-dodge" opacity="0.72" d="M131.237 96.3025C128.965 91.0422 133.799 82.6867 142.063 77.6245C150.327 72.5624 158.835 72.7302 161.137 77.9752C163.439 83.2203 158.56 91.5911 150.312 96.6532C142.063 101.715 133.509 101.532 131.237 96.3025Z" fill="url(#paint69_linear_42_371)"/>
<path style="mix-blend-mode:color-dodge" opacity="0.75" d="M133.311 97.5228C131.008 93.1774 135.232 85.325 142.749 80.1409C150.266 74.9568 158.255 74.1639 160.558 78.5247C162.86 82.8854 158.637 90.7225 151.12 95.9219C143.603 101.121 135.613 101.884 133.311 97.5228Z" fill="url(#paint70_linear_42_371)"/>
<path style="mix-blend-mode:color-dodge" opacity="0.77" d="M135.384 98.7577C133.036 95.2966 136.649 88.0846 143.45 82.6565C150.25 77.2285 157.706 75.6123 159.993 79.0734C162.28 82.5345 158.728 89.7465 151.927 95.1746C145.127 100.603 137.732 102.204 135.384 98.7577Z" fill="url(#paint71_linear_42_371)"/>
<path style="mix-blend-mode:color-dodge" opacity="0.8" d="M137.459 100.008C135.08 97.4461 138.084 90.8592 144.137 85.1872C150.19 79.5152 157.036 77.0909 159.384 79.6525C161.732 82.214 158.774 88.8008 152.706 94.4728C146.637 100.145 139.837 102.539 137.459 100.008Z" fill="url(#paint72_linear_42_371)"/>
</g>
<path style="mix-blend-mode:color-dodge" opacity="0.7" d="M106.918 81.4824C123.818 81.4824 137.519 67.7817 137.519 50.8811C137.519 33.9804 123.818 20.2797 106.918 20.2797C90.0171 20.2797 76.3164 33.9804 76.3164 50.8811C76.3164 67.7817 90.0171 81.4824 106.918 81.4824Z" fill="url(#paint73_radial_42_371)"/>
<path style="mix-blend-mode:color-dodge" d="M143.069 147.275C143.069 169.445 140.828 184.86 138.053 184.86C135.277 184.86 133.036 169.399 133.036 147.275C133.036 125.151 135.293 107.129 138.053 107.129C140.812 107.129 143.069 125.06 143.069 147.275Z" fill="url(#paint74_radial_42_371)"/>
<path opacity="0.5" d="M134.576 66.3732H134.409C134.018 66.3495 133.639 66.2334 133.303 66.0346C132.966 65.8358 132.681 65.5599 132.472 65.2297L130.094 61.5551C129.964 61.3732 129.797 61.2218 129.603 61.1118C129.408 61.0018 129.192 60.9357 128.97 60.9182C128.747 60.9008 128.524 60.9324 128.315 61.0108C128.106 61.0892 127.917 61.2126 127.761 61.3721L124.711 64.8637C124.479 65.128 124.193 65.3395 123.872 65.4841C123.551 65.6287 123.203 65.7031 122.851 65.7024C122.498 65.7154 122.146 65.6544 121.817 65.5231C121.489 65.3917 121.192 65.1931 120.945 64.94L116.92 60.5183C116.761 60.3497 116.566 60.2195 116.349 60.1376C116.133 60.0557 115.9 60.0243 115.67 60.0456C115.444 60.0776 115.227 60.16 115.037 60.2866C114.847 60.4133 114.688 60.581 114.572 60.7775L112.087 65.062C111.903 65.3826 111.65 65.6584 111.346 65.8696C111.043 66.0808 110.697 66.2221 110.332 66.2833C109.967 66.3446 109.594 66.3242 109.238 66.2238C108.882 66.1233 108.553 65.9452 108.275 65.7024L104.631 62.5614C104.537 62.4624 104.485 62.3315 104.485 62.1955C104.485 62.0594 104.537 61.9285 104.631 61.8295C104.728 61.7327 104.859 61.6783 104.997 61.6783C105.134 61.6783 105.265 61.7327 105.362 61.8295L108.915 64.94C109.083 65.0799 109.278 65.1823 109.489 65.2402C109.699 65.2981 109.919 65.3101 110.135 65.2754C110.346 65.2348 110.546 65.1499 110.722 65.0264C110.898 64.9029 111.046 64.7435 111.156 64.5588L113.642 60.2743C113.835 59.9321 114.108 59.6414 114.437 59.4265C114.766 59.2116 115.141 59.0788 115.532 59.0393C115.923 58.9943 116.319 59.0427 116.688 59.1805C117.056 59.3183 117.386 59.5417 117.652 59.8321L121.677 64.1929C121.817 64.3397 121.985 64.4571 122.171 64.5383C122.357 64.6195 122.557 64.6627 122.76 64.6655C122.964 64.6607 123.164 64.6151 123.35 64.5313C123.536 64.4475 123.704 64.3272 123.842 64.1776L126.892 60.686C127.148 60.3939 127.469 60.1658 127.829 60.0202C128.189 59.8746 128.578 59.8154 128.965 59.8474C129.349 59.8793 129.721 59.999 130.051 60.1973C130.382 60.3955 130.662 60.6671 130.871 60.9909L133.311 64.6503C133.439 64.841 133.608 65.0004 133.806 65.1165C134.004 65.2327 134.226 65.3026 134.454 65.3212C134.681 65.3399 134.908 65.304 135.118 65.2164C135.328 65.1289 135.513 64.9922 135.659 64.818L138.342 61.6771C138.441 61.5838 138.572 61.5318 138.708 61.5318C138.844 61.5318 138.975 61.5838 139.074 61.6771C139.171 61.7742 139.225 61.9058 139.225 62.043C139.225 62.1802 139.171 62.3118 139.074 62.4089L136.406 65.5499C136.176 65.8075 135.894 66.0139 135.579 66.1557C135.263 66.2975 134.922 66.3716 134.576 66.3732V66.3732Z" fill="white" fill-opacity="0.36"/>
<path opacity="0.5" d="M134.317 67.7142C133.706 67.6871 133.11 67.5137 132.579 67.2086C132.049 66.9035 131.599 66.4756 131.268 65.9608L128.889 62.2862L127.7 61.3561L128.722 62.271L125.672 65.7473C125.316 66.1543 124.878 66.4814 124.386 66.7074C123.895 66.9333 123.362 67.053 122.821 67.0586C122.28 67.0612 121.745 66.9514 121.249 66.7362C120.753 66.5209 120.307 66.205 119.939 65.8083L115.914 61.4324H115.746L113.261 65.7168C112.975 66.2075 112.586 66.6297 112.119 66.9537C111.653 67.2777 111.122 67.4957 110.562 67.5923C110.344 67.6073 110.125 67.6073 109.906 67.5923C108.994 67.6093 108.104 67.3073 107.391 66.7384L103.762 63.5822C103.575 63.4204 103.422 63.2233 103.312 63.0022C103.201 62.781 103.136 62.5403 103.119 62.2937C103.102 62.0472 103.134 61.7997 103.213 61.5656C103.291 61.3314 103.416 61.1151 103.579 60.9292C103.753 60.7236 103.971 60.5585 104.216 60.4453C104.46 60.3321 104.727 60.2735 104.997 60.2736C105.445 60.2767 105.877 60.4388 106.217 60.731L109.861 63.8872L111.202 64.5428L110.028 63.8567L112.498 59.5722C112.803 59.0474 113.227 58.6015 113.735 58.2704C114.244 57.9393 114.823 57.7324 115.426 57.6663H115.853C116.389 57.667 116.918 57.7784 117.409 57.9936C117.9 58.2087 118.341 58.5229 118.704 58.9165L122.729 63.2925H122.882L125.931 59.8009C126.297 59.3948 126.744 59.0697 127.243 58.8465C127.742 58.6233 128.282 58.5069 128.828 58.5049H129.118C129.715 58.549 130.293 58.7319 130.806 59.039C131.32 59.346 131.755 59.7688 132.076 60.2736L134.455 63.9482H134.546L137.275 60.7767C137.452 60.57 137.672 60.4042 137.92 60.291C138.167 60.1778 138.436 60.1198 138.709 60.1211C139.06 60.1265 139.402 60.2304 139.697 60.4209C139.992 60.6114 140.228 60.8808 140.377 61.1985C140.526 61.5163 140.583 61.8696 140.542 62.2182C140.5 62.5668 140.362 62.8968 140.142 63.1705L137.458 66.3115C137.094 66.736 136.643 67.077 136.135 67.3112C135.627 67.5454 135.075 67.6673 134.516 67.6685L134.317 67.7142Z" fill="white" fill-opacity="0.36"/>
<rect x="5.73242" y="92.2653" width="230.442" height="232.735" fill="url(#paint75_linear_42_371)"/>
<defs>
<filter id="filter0_f_42_371" x="73.3994" y="133.075" width="95.4795" height="66.2388" filterUnits="userSpaceOnUse" color-interpolation-filters="sRGB">
<feFlood flood-opacity="0" result="BackgroundImageFix"/>
<feBlend mode="normal" in="SourceGraphic" in2="BackgroundImageFix" result="shape"/>
<feGaussianBlur stdDeviation="4.4756" result="effect1_foregroundBlur_42_371"/>
</filter>
<linearGradient id="paint0_linear_42_371" x1="111.17" y1="111.17" x2="101.506" y2="-54.237" gradientUnits="userSpaceOnUse">
<stop stop-color="#3DB9EA"/>
<stop offset="1" stop-color="#6454F0"/>
</linearGradient>
<linearGradient id="paint1_linear_42_371" x1="111.17" y1="111.17" x2="101.506" y2="-54.237" gradientUnits="userSpaceOnUse">
<stop stop-color="#24E8DE"/>
<stop offset="1" stop-color="#6454F0"/>
</linearGradient>
<linearGradient id="paint2_linear_42_371" x1="111.17" y1="111.17" x2="101.506" y2="-54.237" gradientUnits="userSpaceOnUse">
<stop stop-color="#24E8DE"/>
<stop offset="1" stop-color="#6454F0"/>
</linearGradient>
<linearGradient id="paint3_linear_42_371" x1="111.17" y1="111.17" x2="101.506" y2="-54.237" gradientUnits="userSpaceOnUse">
<stop stop-color="#24E8DE"/>
<stop offset="1" stop-color="#6454F0"/>
</linearGradient>
<linearGradient id="paint4_linear_42_371" x1="111.17" y1="111.17" x2="101.506" y2="-54.237" gradientUnits="userSpaceOnUse">
<stop stop-color="#24E8DE"/>
<stop offset="1" stop-color="#6454F0"/>
</linearGradient>
<linearGradient id="paint5_linear_42_371" x1="111.17" y1="111.17" x2="101.506" y2="-54.237" gradientUnits="userSpaceOnUse">
<stop stop-color="#24E8DE"/>
<stop offset="1" stop-color="#6454F0"/>
</linearGradient>
<linearGradient id="paint6_linear_42_371" x1="121.139" y1="231.036" x2="120.834" y2="309.024" gradientUnits="userSpaceOnUse">
<stop stop-color="#100D28" stop-opacity="0"/>
<stop offset="1" stop-color="#100D28"/>
</linearGradient>
<linearGradient id="paint7_linear_42_371" x1="139.12" y1="82.3829" x2="104.387" y2="82.3829" gradientUnits="userSpaceOnUse">
<stop offset="0.04" stop-color="#959FE5"/>
<stop offset="0.09" stop-color="#A4ADE7"/>
<stop offset="0.21" stop-color="#CDD1ED"/>
<stop offset="0.3" stop-color="#F1F2F2"/>
<stop offset="0.36" stop-color="#E0E2EF"/>
<stop offset="0.46" stop-color="#C5CAE9"/>
<stop offset="0.56" stop-color="#B5BBE6"/>
<stop offset="0.63" stop-color="#AFB6E5"/>
<stop offset="0.73" stop-color="#B2B9E6"/>
<stop offset="0.8" stop-color="#BBC1EB"/>
<stop offset="0.86" stop-color="#CBD0F2"/>
<stop offset="0.87" stop-color="#CED3F4"/>
<stop offset="0.99" stop-color="#AFB6E5"/>
</linearGradient>
<linearGradient id="paint8_linear_42_371" x1="121.708" y1="64.4063" x2="120.701" y2="101.168" gradientUnits="userSpaceOnUse">
<stop offset="0.04" stop-color="#24E8DE"/>
<stop offset="0.3" stop-color="#3DB9EA"/>
<stop offset="0.82" stop-color="#24E8DE"/>
<stop offset="1" stop-color="#24E8DE"/>
</linearGradient>
<radialGradient id="paint9_radial_42_371" cx="0" cy="0" r="1" gradientUnits="userSpaceOnUse" gradientTransform="translate(121.722 173.449) scale(26.1949 15.7169)">
<stop offset="0.06" stop-color="#7D86AD"/>
<stop offset="0.29" stop-color="#7F88AF"/>
<stop offset="0.41" stop-color="#878FB5"/>
<stop offset="0.5" stop-color="#949CBF"/>
<stop offset="0.57" stop-color="#A7AECE"/>
<stop offset="0.64" stop-color="#BFC5E1"/>
<stop offset="0.7" stop-color="#DCE1F8"/>
<stop offset="0.72" stop-color="#E5E9FF"/>
<stop offset="0.75" stop-color="#DBDFFA"/>
<stop offset="0.84" stop-color="#C3C9EE"/>
<stop offset="0.93" stop-color="#B4BBE7"/>
<stop offset="1" stop-color="#AFB6E5"/>
</radialGradient>
<linearGradient id="paint10_linear_42_371" x1="121.662" y1="170.771" x2="121.662" y2="152.307" gradientUnits="userSpaceOnUse">
<stop stop-color="white"/>
<stop offset="1" stop-color="#AFB6E5"/>
</linearGradient>
<radialGradient id="paint11_radial_42_371" cx="0" cy="0" r="1" gradientUnits="userSpaceOnUse" gradientTransform="translate(1553.39 -80716.3) scale(747.603 450.552)">
<stop offset="0.06" stop-color="#7D86AD"/>
<stop offset="0.29" stop-color="#7F88AF"/>
<stop offset="0.41" stop-color="#878FB5"/>
<stop offset="0.5" stop-color="#949CBF"/>
<stop offset="0.57" stop-color="#A7AECE"/>
<stop offset="0.64" stop-color="#BFC5E1"/>
<stop offset="0.7" stop-color="#DCE1F8"/>
<stop offset="0.72" stop-color="#E5E9FF"/>
<stop offset="0.75" stop-color="#DBDFFA"/>
<stop offset="0.84" stop-color="#C3C9EE"/>
<stop offset="0.93" stop-color="#B4BBE7"/>
<stop offset="1" stop-color="#AFB6E5"/>
</radialGradient>
<linearGradient id="paint12_linear_42_371" x1="1539.06" y1="1486.53" x2="1539.06" y2="1326.63" gradientUnits="userSpaceOnUse">
<stop stop-color="white"/>
<stop offset="1" stop-color="#AFB6E5"/>
</linearGradient>
<radialGradient id="paint13_radial_42_371" cx="0" cy="0" r="1" gradientUnits="userSpaceOnUse" gradientTransform="translate(1553.39 -80862.1) scale(747.603 450.552)">
<stop offset="0.06" stop-color="#7D86AD"/>
<stop offset="0.29" stop-color="#7F88AF"/>
<stop offset="0.41" stop-color="#878FB5"/>
<stop offset="0.5" stop-color="#949CBF"/>
<stop offset="0.57" stop-color="#A7AECE"/>
<stop offset="0.64" stop-color="#BFC5E1"/>
<stop offset="0.7" stop-color="#DCE1F8"/>
<stop offset="0.72" stop-color="#E5E9FF"/>
<stop offset="0.75" stop-color="#DBDFFA"/>
<stop offset="0.84" stop-color="#C3C9EE"/>
<stop offset="0.93" stop-color="#B4BBE7"/>
<stop offset="1" stop-color="#AFB6E5"/>
</radialGradient>
<linearGradient id="paint14_linear_42_371" x1="1539.06" y1="1438.85" x2="1539.06" y2="1278.95" gradientUnits="userSpaceOnUse">
<stop stop-color="white"/>
<stop offset="1" stop-color="#AFB6E5"/>
</linearGradient>
<radialGradient id="paint15_radial_42_371" cx="0" cy="0" r="1" gradientUnits="userSpaceOnUse" gradientTransform="translate(1553.39 -81011.9) scale(747.603 450.552)">
<stop offset="0.06" stop-color="#7D86AD"/>
<stop offset="0.29" stop-color="#7F88AF"/>
<stop offset="0.41" stop-color="#878FB5"/>
<stop offset="0.5" stop-color="#949CBF"/>
<stop offset="0.57" stop-color="#A7AECE"/>
<stop offset="0.64" stop-color="#BFC5E1"/>
<stop offset="0.7" stop-color="#DCE1F8"/>
<stop offset="0.72" stop-color="#E5E9FF"/>
<stop offset="0.75" stop-color="#DBDFFA"/>
<stop offset="0.84" stop-color="#C3C9EE"/>
<stop offset="0.93" stop-color="#B4BBE7"/>
<stop offset="1" stop-color="#AFB6E5"/>
</radialGradient>
<linearGradient id="paint16_linear_42_371" x1="1539.06" y1="1389.81" x2="1539.06" y2="1229.9" gradientUnits="userSpaceOnUse">
<stop stop-color="white"/>
<stop offset="1" stop-color="#AFB6E5"/>
</linearGradient>
<radialGradient id="paint17_radial_42_371" cx="0" cy="0" r="1" gradientUnits="userSpaceOnUse" gradientTransform="translate(1553.39 -81157.6) scale(747.603 450.552)">
<stop offset="0.06" stop-color="#7D86AD"/>
<stop offset="0.29" stop-color="#7F88AF"/>
<stop offset="0.41" stop-color="#878FB5"/>
<stop offset="0.5" stop-color="#949CBF"/>
<stop offset="0.57" stop-color="#A7AECE"/>
<stop offset="0.64" stop-color="#BFC5E1"/>
<stop offset="0.7" stop-color="#DCE1F8"/>
<stop offset="0.72" stop-color="#E5E9FF"/>
<stop offset="0.75" stop-color="#DBDFFA"/>
<stop offset="0.84" stop-color="#C3C9EE"/>
<stop offset="0.93" stop-color="#B4BBE7"/>
<stop offset="1" stop-color="#AFB6E5"/>
</radialGradient>
<linearGradient id="paint18_linear_42_371" x1="1539.06" y1="1347.78" x2="1539.06" y2="1187.14" gradientUnits="userSpaceOnUse">
<stop stop-color="white"/>
<stop offset="1" stop-color="#AFB6E5"/>
</linearGradient>
<linearGradient id="paint19_linear_42_371" x1="98.1047" y1="135.276" x2="144.914" y2="135.276" gradientUnits="userSpaceOnUse">
<stop stop-color="#CED3F4"/>
<stop offset="0.1" stop-color="#D2D7F6"/>
<stop offset="0.22" stop-color="#E0E4FC"/>
<stop offset="0.25" stop-color="#E5E9FF"/>
<stop offset="0.3" stop-color="#DBDFFA"/>
<stop offset="0.43" stop-color="#C3C9EE"/>
<stop offset="0.55" stop-color="#B4BBE7"/>
<stop offset="0.65" stop-color="#AFB6E5"/>
<stop offset="0.85" stop-color="#CED3F4"/>
<stop offset="1" stop-color="#AFB6E5"/>
</linearGradient>
<linearGradient id="paint20_linear_42_371" x1="149.58" y1="92.9184" x2="111.904" y2="133.309" gradientUnits="userSpaceOnUse">
<stop offset="0.06" stop-color="#AFB6E5"/>
<stop offset="0.68" stop-color="#CED3F4"/>
<stop offset="0.77" stop-color="#D2D7F5"/>
<stop offset="0.86" stop-color="#E0E3F8"/>
<stop offset="0.96" stop-color="#F5F6FD"/>
<stop offset="1" stop-color="white"/>
</linearGradient>
<radialGradient id="paint21_radial_42_371" cx="0" cy="0" r="1" gradientUnits="userSpaceOnUse" gradientTransform="translate(114.023 134.803) scale(17.5344 17.5344)">
<stop stop-color="white"/>
<stop offset="1"/>
</radialGradient>
<linearGradient id="paint22_linear_42_371" x1="1989.19" y1="1234.94" x2="937.321" y2="1234.94" gradientUnits="userSpaceOnUse">
<stop stop-color="#CED3F4"/>
<stop offset="0.1" stop-color="#D2D7F6"/>
<stop offset="0.22" stop-color="#E0E4FC"/>
<stop offset="0.25" stop-color="#E5E9FF"/>
<stop offset="0.3" stop-color="#DBDFFA"/>
<stop offset="0.43" stop-color="#C3C9EE"/>
<stop offset="0.55" stop-color="#B4BBE7"/>
<stop offset="0.65" stop-color="#AFB6E5"/>
<stop offset="0.85" stop-color="#CED3F4"/>
<stop offset="1" stop-color="#AFB6E5"/>
</linearGradient>
<linearGradient id="paint23_linear_42_371" x1="620.771" y1="2260.08" x2="846.226" y2="2260.08" gradientUnits="userSpaceOnUse">
<stop offset="0.04" stop-color="#959FE5"/>
<stop offset="0.09" stop-color="#A4ADE7"/>
<stop offset="0.21" stop-color="#CDD1ED"/>
<stop offset="0.3" stop-color="#F1F2F2"/>
<stop offset="0.36" stop-color="#E0E2EF"/>
<stop offset="0.46" stop-color="#C5CAE9"/>
<stop offset="0.56" stop-color="#B5BBE6"/>
<stop offset="0.63" stop-color="#AFB6E5"/>
<stop offset="0.73" stop-color="#B2B9E6"/>
<stop offset="0.8" stop-color="#BBC1EB"/>
<stop offset="0.86" stop-color="#CBD0F2"/>
<stop offset="0.87" stop-color="#CED3F4"/>
<stop offset="0.99" stop-color="#AFB6E5"/>
</linearGradient>
<linearGradient id="paint24_linear_42_371" x1="311.771" y1="1486.47" x2="336.503" y2="1486.47" gradientUnits="userSpaceOnUse">
<stop offset="0.04" stop-color="#959FE5"/>
<stop offset="0.09" stop-color="#A4ADE7"/>
<stop offset="0.21" stop-color="#CDD1ED"/>
<stop offset="0.3" stop-color="#F1F2F2"/>
<stop offset="0.36" stop-color="#E0E2EF"/>
<stop offset="0.46" stop-color="#C5CAE9"/>
<stop offset="0.56" stop-color="#B5BBE6"/>
<stop offset="0.63" stop-color="#AFB6E5"/>
<stop offset="0.73" stop-color="#B2B9E6"/>
<stop offset="0.8" stop-color="#BBC1EB"/>
<stop offset="0.86" stop-color="#CBD0F2"/>
<stop offset="0.87" stop-color="#CED3F4"/>
<stop offset="0.99" stop-color="#AFB6E5"/>
</linearGradient>
<radialGradient id="paint25_radial_42_371" cx="0" cy="0" r="1" gradientUnits="userSpaceOnUse" gradientTransform="translate(120.778 99.13) scale(6.95278 5.97939)">
<stop offset="0.09" stop-color="#F1F2F2"/>
<stop offset="0.22" stop-color="#E4E6F3"/>
<stop offset="0.43" stop-color="#D4D8F4"/>
<stop offset="0.59" stop-color="#CED3F4"/>
<stop offset="0.64" stop-color="#C5CBF0"/>
<stop offset="0.71" stop-color="#AFB6E5"/>
<stop offset="0.77" stop-color="#BEC5EC"/>
<stop offset="0.87" stop-color="#E5E9FF"/>
<stop offset="0.99" stop-color="#CED3F4"/>
</radialGradient>
<radialGradient id="paint26_radial_42_371" cx="0" cy="0" r="1" gradientUnits="userSpaceOnUse" gradientTransform="translate(111.264 53.9008) scale(69.3906 69.3906)">
<stop offset="0.09" stop-color="#F1F2F2"/>
<stop offset="0.22" stop-color="#E4E6F3"/>
<stop offset="0.43" stop-color="#D4D8F4"/>
<stop offset="0.59" stop-color="#CED3F4"/>
<stop offset="0.64" stop-color="#C5CBF0"/>
<stop offset="0.71" stop-color="#AFB6E5"/>
<stop offset="0.8" stop-color="#BEC4EC"/>
<stop offset="0.87" stop-color="#CED3F4"/>
<stop offset="0.99" stop-color="#AFB6E5"/>
</radialGradient>
<radialGradient id="paint27_radial_42_371" cx="0" cy="0" r="1" gradientUnits="userSpaceOnUse" gradientTransform="translate(111.264 53.9008) scale(69.3906 69.3906)">
<stop offset="0.04" stop-color="#24E8DE"/>
<stop offset="0.54" stop-color="#43E8E1"/>
<stop offset="0.66" stop-color="#3DB9EA"/>
<stop offset="0.86" stop-color="#24E8DE"/>
<stop offset="1" stop-color="#B0FFFB"/>
</radialGradient>
<linearGradient id="paint28_linear_42_371" x1="78.7021" y1="81.4318" x2="161.821" y2="38.0892" gradientUnits="userSpaceOnUse">
<stop stop-color="#43291D"/>
<stop offset="0.12" stop-color="#2E1C14"/>
<stop offset="0.27" stop-color="#19100B"/>
<stop offset="0.44" stop-color="#0B0705"/>
<stop offset="0.66" stop-color="#030201"/>
<stop offset="1"/>
</linearGradient>
<linearGradient id="paint29_linear_42_371" x1="71.6484" y1="77.2477" x2="157.623" y2="36.925" gradientUnits="userSpaceOnUse">
<stop stop-color="#4C3328"/>
<stop offset="0.01" stop-color="#493126"/>
<stop offset="0.15" stop-color="#2E1F18"/>
<stop offset="0.3" stop-color="#1A110E"/>
<stop offset="0.47" stop-color="#0B0706"/>
<stop offset="0.67" stop-color="#030201"/>
<stop offset="1"/>
</linearGradient>
<linearGradient id="paint30_linear_42_371" x1="80.9595" y1="83.4278" x2="169.194" y2="47.2749" gradientUnits="userSpaceOnUse">
<stop stop-color="#553D33"/>
<stop offset="0.05" stop-color="#4A352C"/>
<stop offset="0.18" stop-color="#2F221C"/>
<stop offset="0.33" stop-color="#1A1310"/>
<stop offset="0.5" stop-color="#0B0807"/>
<stop offset="0.69" stop-color="#030202"/>
<stop offset="1"/>
</linearGradient>
<linearGradient id="paint31_linear_42_371" x1="75.2019" y1="74.1199" x2="165.854" y2="41.4653" gradientUnits="userSpaceOnUse">
<stop stop-color="#5E483D"/>
<stop offset="0.08" stop-color="#4A3930"/>
<stop offset="0.21" stop-color="#2F241F"/>
<stop offset="0.36" stop-color="#1A1411"/>
<stop offset="0.52" stop-color="#0B0907"/>
<stop offset="0.71" stop-color="#030202"/>
<stop offset="1"/>
</linearGradient>
<linearGradient id="paint32_linear_42_371" x1="64.0107" y1="69.3588" x2="156.414" y2="40.1881" gradientUnits="userSpaceOnUse">
<stop stop-color="#675248"/>
<stop offset="0.1" stop-color="#4B3C35"/>
<stop offset="0.24" stop-color="#302622"/>
<stop offset="0.38" stop-color="#1B1513"/>
<stop offset="0.54" stop-color="#0C0908"/>
<stop offset="0.72" stop-color="#030202"/>
<stop offset="1"/>
</linearGradient>
<linearGradient id="paint33_linear_42_371" x1="73.864" y1="69.2894" x2="167.554" y2="44.8009" gradientUnits="userSpaceOnUse">
<stop stop-color="#705C53"/>
<stop offset="0.01" stop-color="#6E5B52"/>
<stop offset="0.13" stop-color="#4C3F39"/>
<stop offset="0.26" stop-color="#312824"/>
<stop offset="0.4" stop-color="#1B1614"/>
<stop offset="0.56" stop-color="#0C0A09"/>
<stop offset="0.74" stop-color="#030202"/>
<stop offset="1"/>
</linearGradient>
<linearGradient id="paint34_linear_42_371" x1="73.355" y1="66.9484" x2="167.949" y2="46.7001" gradientUnits="userSpaceOnUse">
<stop stop-color="#79665E"/>
<stop offset="0.03" stop-color="#705E57"/>
<stop offset="0.15" stop-color="#4E413C"/>
<stop offset="0.28" stop-color="#312A26"/>
<stop offset="0.42" stop-color="#1B1715"/>
<stop offset="0.57" stop-color="#0C0A09"/>
<stop offset="0.75" stop-color="#030202"/>
<stop offset="1"/>
</linearGradient>
<linearGradient id="paint35_linear_42_371" x1="72.8948" y1="64.6847" x2="167.931" y2="48.78" gradientUnits="userSpaceOnUse">
<stop stop-color="#827068"/>
<stop offset="0.05" stop-color="#71625B"/>
<stop offset="0.17" stop-color="#4F443F"/>
<stop offset="0.3" stop-color="#322B28"/>
<stop offset="0.44" stop-color="#1C1816"/>
<stop offset="0.59" stop-color="#0C0A0A"/>
<stop offset="0.76" stop-color="#030202"/>
<stop offset="1"/>
</linearGradient>
<linearGradient id="paint36_linear_42_371" x1="72.6402" y1="62.4781" x2="167.682" y2="50.9379" gradientUnits="userSpaceOnUse">
<stop stop-color="#8B7B73"/>
<stop offset="0.07" stop-color="#73665F"/>
<stop offset="0.19" stop-color="#504742"/>
<stop offset="0.32" stop-color="#332D2A"/>
<stop offset="0.46" stop-color="#1C1917"/>
<stop offset="0.6" stop-color="#0C0B0A"/>
<stop offset="0.77" stop-color="#030302"/>
<stop offset="1"/>
</linearGradient>
<linearGradient id="paint37_linear_42_371" x1="72.3313" y1="60.3697" x2="166.921" y2="53.1581" gradientUnits="userSpaceOnUse">
<stop stop-color="#94857E"/>
<stop offset="0.09" stop-color="#746963"/>
<stop offset="0.21" stop-color="#514945"/>
<stop offset="0.34" stop-color="#332E2C"/>
<stop offset="0.47" stop-color="#1D1A18"/>
<stop offset="0.62" stop-color="#0D0B0B"/>
<stop offset="0.78" stop-color="#030303"/>
<stop offset="1"/>
</linearGradient>
<linearGradient id="paint38_linear_42_371" x1="72.3814" y1="58.3297" x2="166.077" y2="55.419" gradientUnits="userSpaceOnUse">
<stop stop-color="#9D8F89"/>
<stop offset="0.11" stop-color="#766B67"/>
<stop offset="0.23" stop-color="#524B47"/>
<stop offset="0.35" stop-color="#342F2D"/>
<stop offset="0.49" stop-color="#1D1A19"/>
<stop offset="0.63" stop-color="#0D0C0B"/>
<stop offset="0.79" stop-color="#030303"/>
<stop offset="1"/>
</linearGradient>
<linearGradient id="paint39_linear_42_371" x1="72.5975" y1="56.3685" x2="164.973" y2="57.654" gradientUnits="userSpaceOnUse">
<stop stop-color="#A59993"/>
<stop offset="0.01" stop-color="#A39791"/>
<stop offset="0.12" stop-color="#786F6B"/>
<stop offset="0.24" stop-color="#534D4A"/>
<stop offset="0.37" stop-color="#35312F"/>
<stop offset="0.5" stop-color="#1D1B1A"/>
<stop offset="0.64" stop-color="#0D0C0C"/>
<stop offset="0.8" stop-color="#030303"/>
<stop offset="1"/>
</linearGradient>
<linearGradient id="paint40_linear_42_371" x1="72.8121" y1="54.5345" x2="163.415" y2="59.8738" gradientUnits="userSpaceOnUse">
<stop stop-color="#AEA39E"/>
<stop offset="0.02" stop-color="#A59B96"/>
<stop offset="0.14" stop-color="#7A726E"/>
<stop offset="0.26" stop-color="#544F4C"/>
<stop offset="0.38" stop-color="#363231"/>
<stop offset="0.52" stop-color="#1E1C1B"/>
<stop offset="0.65" stop-color="#0D0C0C"/>
<stop offset="0.81" stop-color="#030303"/>
<stop offset="1"/>
</linearGradient>
<linearGradient id="paint41_linear_42_371" x1="73.2903" y1="52.8014" x2="161.709" y2="62.031" gradientUnits="userSpaceOnUse">
<stop stop-color="#B7ADA9"/>
<stop offset="0.04" stop-color="#A89E9B"/>
<stop offset="0.15" stop-color="#7B7572"/>
<stop offset="0.27" stop-color="#55514F"/>
<stop offset="0.4" stop-color="#363332"/>
<stop offset="0.53" stop-color="#1E1D1C"/>
<stop offset="0.67" stop-color="#0D0D0C"/>
<stop offset="0.82" stop-color="#030303"/>
<stop offset="1"/>
</linearGradient>
<linearGradient id="paint42_linear_42_371" x1="72.0464" y1="45.6628" x2="158.132" y2="58.5365" gradientUnits="userSpaceOnUse">
<stop stop-color="#C0B8B4"/>
<stop offset="0.05" stop-color="#AAA39F"/>
<stop offset="0.17" stop-color="#7D7875"/>
<stop offset="0.29" stop-color="#575351"/>
<stop offset="0.41" stop-color="#373534"/>
<stop offset="0.54" stop-color="#1F1E1D"/>
<stop offset="0.68" stop-color="#0E0D0D"/>
<stop offset="0.82" stop-color="#030303"/>
<stop offset="1"/>
</linearGradient>
<linearGradient id="paint43_linear_42_371" x1="74.3334" y1="49.7415" x2="157.191" y2="66.0152" gradientUnits="userSpaceOnUse">
<stop stop-color="#C9C2BE"/>
<stop offset="0.06" stop-color="#ACA6A3"/>
<stop offset="0.18" stop-color="#7F7B78"/>
<stop offset="0.3" stop-color="#585553"/>
<stop offset="0.43" stop-color="#383635"/>
<stop offset="0.55" stop-color="#1F1E1E"/>
<stop offset="0.69" stop-color="#0E0D0D"/>
<stop offset="0.83" stop-color="#030303"/>
<stop offset="1"/>
</linearGradient>
<linearGradient id="paint44_linear_42_371" x1="75.0787" y1="48.3947" x2="154.579" y2="67.7603" gradientUnits="userSpaceOnUse">
<stop stop-color="#D2CCC9"/>
<stop offset="0.08" stop-color="#AFAAA7"/>
<stop offset="0.19" stop-color="#817D7B"/>
<stop offset="0.31" stop-color="#595755"/>
<stop offset="0.44" stop-color="#393736"/>
<stop offset="0.57" stop-color="#201F1E"/>
<stop offset="0.7" stop-color="#0E0E0D"/>
<stop offset="0.84" stop-color="#030303"/>
<stop offset="1"/>
</linearGradient>
<linearGradient id="paint45_linear_42_371" x1="75.729" y1="47.2462" x2="151.553" y2="69.3546" gradientUnits="userSpaceOnUse">
<stop stop-color="#DBD6D4"/>
<stop offset="0.09" stop-color="#B2ADAC"/>
<stop offset="0.21" stop-color="#83807F"/>
<stop offset="0.33" stop-color="#5B5858"/>
<stop offset="0.45" stop-color="#3A3838"/>
<stop offset="0.58" stop-color="#20201F"/>
<stop offset="0.71" stop-color="#0E0E0E"/>
<stop offset="0.84" stop-color="#030303"/>
<stop offset="1"/>
</linearGradient>
<linearGradient id="paint46_linear_42_371" x1="76.3574" y1="46.2454" x2="148.171" y2="70.7544" gradientUnits="userSpaceOnUse">
<stop stop-color="#E4E0DF"/>
<stop offset="0.1" stop-color="#B4B1B0"/>
<stop offset="0.22" stop-color="#858282"/>
<stop offset="0.34" stop-color="#5C5A5A"/>
<stop offset="0.46" stop-color="#3B3A39"/>
<stop offset="0.59" stop-color="#212020"/>
<stop offset="0.72" stop-color="#0E0E0E"/>
<stop offset="0.85" stop-color="#040303"/>
<stop offset="1"/>
</linearGradient>
<linearGradient id="paint47_linear_42_371" x1="77.0852" y1="45.33" x2="144.302" y2="71.7304" gradientUnits="userSpaceOnUse">
<stop stop-color="#EDEBE9"/>
<stop offset="0.11" stop-color="#B7B5B4"/>
<stop offset="0.23" stop-color="#878685"/>
<stop offset="0.35" stop-color="#5D5D5C"/>
<stop offset="0.47" stop-color="#3C3B3B"/>
<stop offset="0.6" stop-color="#212121"/>
<stop offset="0.72" stop-color="#0F0F0F"/>
<stop offset="0.86" stop-color="#040404"/>
<stop offset="1"/>
</linearGradient>
<linearGradient id="paint48_linear_42_371" x1="78.167" y1="44.664" x2="141.154" y2="72.6922" gradientUnits="userSpaceOnUse">
<stop stop-color="#F6F5F4"/>
<stop offset="0.01" stop-color="#F3F2F1"/>
<stop offset="0.12" stop-color="#BBBAB9"/>
<stop offset="0.24" stop-color="#898888"/>
<stop offset="0.36" stop-color="#5F5F5E"/>
<stop offset="0.48" stop-color="#3D3C3C"/>
<stop offset="0.61" stop-color="#222222"/>
<stop offset="0.73" stop-color="#0F0F0F"/>
<stop offset="0.86" stop-color="#040404"/>
<stop offset="1"/>
</linearGradient>
<linearGradient id="paint49_linear_42_371" x1="85.901" y1="39.5285" x2="144.128" y2="68.9121" gradientUnits="userSpaceOnUse">
<stop stop-color="white"/>
<stop offset="0.02" stop-color="#F7F7F7"/>
<stop offset="0.13" stop-color="#BEBEBE"/>
<stop offset="0.25" stop-color="#8B8B8B"/>
<stop offset="0.37" stop-color="#606060"/>
<stop offset="0.49" stop-color="#3E3E3E"/>
<stop offset="0.62" stop-color="#232323"/>
<stop offset="0.74" stop-color="#0F0F0F"/>
<stop offset="0.87" stop-color="#040404"/>
<stop offset="1"/>
</linearGradient>
<radialGradient id="paint50_radial_42_371" cx="0" cy="0" r="1" gradientUnits="userSpaceOnUse" gradientTransform="translate(109.01 131.538) scale(7.66483 35.8157)">
<stop stop-color="#FFE585"/>
<stop offset="0.02" stop-color="#EED67C"/>
<stop offset="0.09" stop-color="#BCA962"/>
<stop offset="0.17" stop-color="#90814B"/>
<stop offset="0.25" stop-color="#695E37"/>
<stop offset="0.34" stop-color="#484126"/>
<stop offset="0.43" stop-color="#2E2918"/>
<stop offset="0.53" stop-color="#19170D"/>
<stop offset="0.64" stop-color="#0B0A06"/>
<stop offset="0.78" stop-color="#030201"/>
<stop offset="1"/>
</radialGradient>
<linearGradient id="paint51_linear_42_371" x1="171.72" y1="59.4041" x2="94.1598" y2="65.4549" gradientUnits="userSpaceOnUse">
<stop stop-color="#492E20"/>
<stop offset="0.08" stop-color="#3D271B"/>
<stop offset="0.3" stop-color="#22160F"/>
<stop offset="0.53" stop-color="#0F0A07"/>
<stop offset="0.76" stop-color="#040202"/>
<stop offset="1"/>
</linearGradient>
<linearGradient id="paint52_linear_42_371" x1="174.442" y1="69.7024" x2="93.2" y2="73.4093" gradientUnits="userSpaceOnUse">
<stop stop-color="#52382B"/>
<stop offset="0.13" stop-color="#3D2A20"/>
<stop offset="0.34" stop-color="#221812"/>
<stop offset="0.55" stop-color="#0F0A08"/>
<stop offset="0.77" stop-color="#040302"/>
<stop offset="1"/>
</linearGradient>
<linearGradient id="paint53_linear_42_371" x1="184.829" y1="72.183" x2="100.537" y2="73.2873" gradientUnits="userSpaceOnUse">
<stop stop-color="#5A4235"/>
<stop offset="0.17" stop-color="#3D2D24"/>
<stop offset="0.37" stop-color="#221914"/>
<stop offset="0.57" stop-color="#0F0B09"/>
<stop offset="0.78" stop-color="#040302"/>
<stop offset="1"/>
</linearGradient>
<linearGradient id="paint54_linear_42_371" x1="180.716" y1="48.7227" x2="93.77" y2="46.8474" gradientUnits="userSpaceOnUse">
<stop stop-color="#634C40"/>
<stop offset="0.02" stop-color="#604A3E"/>
<stop offset="0.2" stop-color="#3D2F28"/>
<stop offset="0.4" stop-color="#221A16"/>
<stop offset="0.59" stop-color="#0F0C0A"/>
<stop offset="0.79" stop-color="#040302"/>
<stop offset="1"/>
</linearGradient>
<linearGradient id="paint55_linear_42_371" x1="182.588" y1="84.1716" x2="93.6531" y2="79.7929" gradientUnits="userSpaceOnUse">
<stop stop-color="#6C564A"/>
<stop offset="0.06" stop-color="#604C42"/>
<stop offset="0.24" stop-color="#3D312A"/>
<stop offset="0.42" stop-color="#221B18"/>
<stop offset="0.61" stop-color="#0F0C0A"/>
<stop offset="0.8" stop-color="#040303"/>
<stop offset="1"/>
</linearGradient>
<linearGradient id="paint56_linear_42_371" x1="177.308" y1="79.3621" x2="86.8877" y2="72.0265" gradientUnits="userSpaceOnUse">
<stop stop-color="#746055"/>
<stop offset="0.09" stop-color="#604F46"/>
<stop offset="0.26" stop-color="#3D332D"/>
<stop offset="0.44" stop-color="#221D19"/>
<stop offset="0.62" stop-color="#0F0D0B"/>
<stop offset="0.81" stop-color="#040303"/>
<stop offset="1"/>
</linearGradient>
<linearGradient id="paint57_linear_42_371" x1="133.549" y1="82.4582" x2="41.8468" y2="72.1683" gradientUnits="userSpaceOnUse">
<stop stop-color="#7D6A60"/>
<stop offset="0.12" stop-color="#60514A"/>
<stop offset="0.29" stop-color="#3D342F"/>
<stop offset="0.46" stop-color="#221D1A"/>
<stop offset="0.64" stop-color="#0F0D0C"/>
<stop offset="0.81" stop-color="#040303"/>
<stop offset="1"/>
</linearGradient>
<linearGradient id="paint58_linear_42_371" x1="184.763" y1="83.2183" x2="93.4216" y2="70.1577" gradientUnits="userSpaceOnUse">
<stop stop-color="#86746A"/>
<stop offset="0.15" stop-color="#60534C"/>
<stop offset="0.31" stop-color="#3D3531"/>
<stop offset="0.48" stop-color="#221E1B"/>
<stop offset="0.65" stop-color="#0F0D0C"/>
<stop offset="0.82" stop-color="#040303"/>
<stop offset="1"/>
</linearGradient>
<linearGradient id="paint59_linear_42_371" x1="179.157" y1="97.0865" x2="88.1534" y2="81.4071" gradientUnits="userSpaceOnUse">
<stop stop-color="#8E7E75"/>
<stop offset="0.01" stop-color="#8A7B72"/>
<stop offset="0.17" stop-color="#60554F"/>
<stop offset="0.33" stop-color="#3E3733"/>
<stop offset="0.49" stop-color="#231F1C"/>
<stop offset="0.66" stop-color="#0F0E0D"/>
<stop offset="0.82" stop-color="#040303"/>
<stop offset="1"/>
</linearGradient>
<linearGradient id="paint60_linear_42_371" x1="179.508" y1="71.4732" x2="89.6347" y2="52.8702" gradientUnits="userSpaceOnUse">
<stop stop-color="#978880"/>
<stop offset="0.04" stop-color="#8A7D75"/>
<stop offset="0.19" stop-color="#605752"/>
<stop offset="0.35" stop-color="#3D3734"/>
<stop offset="0.51" stop-color="#231F1D"/>
<stop offset="0.67" stop-color="#0F0E0D"/>
<stop offset="0.83" stop-color="#040303"/>
<stop offset="1"/>
</linearGradient>
<linearGradient id="paint61_linear_42_371" x1="216.749" y1="85.4714" x2="128.915" y2="64.7247" gradientUnits="userSpaceOnUse">
<stop stop-color="#A0928A"/>
<stop offset="0.07" stop-color="#8A7E77"/>
<stop offset="0.22" stop-color="#605853"/>
<stop offset="0.37" stop-color="#3E3835"/>
<stop offset="0.52" stop-color="#231F1E"/>
<stop offset="0.68" stop-color="#0F0E0D"/>
<stop offset="0.83" stop-color="#040303"/>
<stop offset="1"/>
</linearGradient>
<linearGradient id="paint62_linear_42_371" x1="215.943" y1="86.5396" x2="130.419" y2="63.6276" gradientUnits="userSpaceOnUse">
<stop stop-color="#A89B95"/>
<stop offset="0.09" stop-color="#8A807B"/>
<stop offset="0.23" stop-color="#605955"/>
<stop offset="0.38" stop-color="#3E3937"/>
<stop offset="0.53" stop-color="#23201F"/>
<stop offset="0.68" stop-color="#0F0E0E"/>
<stop offset="0.84" stop-color="#040303"/>
<stop offset="1"/>
</linearGradient>
<linearGradient id="paint63_linear_42_371" x1="138.858" y1="96.5969" x2="55.4493" y2="71.572" gradientUnits="userSpaceOnUse">
<stop stop-color="#B1A59F"/>
<stop offset="0.11" stop-color="#8A817C"/>
<stop offset="0.25" stop-color="#605A57"/>
<stop offset="0.4" stop-color="#3E3937"/>
<stop offset="0.54" stop-color="#23201F"/>
<stop offset="0.69" stop-color="#0F0E0E"/>
<stop offset="0.84" stop-color="#040403"/>
<stop offset="1"/>
</linearGradient>
<linearGradient id="paint64_linear_42_371" x1="155.35" y1="94.9851" x2="75.6684" y2="68.4308" gradientUnits="userSpaceOnUse">
<stop stop-color="#BAAFAA"/>
<stop offset="0.13" stop-color="#8A827E"/>
<stop offset="0.27" stop-color="#605B58"/>
<stop offset="0.41" stop-color="#3E3A38"/>
<stop offset="0.55" stop-color="#232020"/>
<stop offset="0.7" stop-color="#0F0E0E"/>
<stop offset="0.85" stop-color="#040403"/>
<stop offset="1"/>
</linearGradient>
<linearGradient id="paint65_linear_42_371" x1="180.191" y1="93.2052" x2="104.92" y2="65.583" gradientUnits="userSpaceOnUse">
<stop stop-color="#C2B9B5"/>
<stop offset="0.01" stop-color="#BDB4B0"/>
<stop offset="0.15" stop-color="#8B8582"/>
<stop offset="0.29" stop-color="#605C5A"/>
<stop offset="0.42" stop-color="#3E3B39"/>
<stop offset="0.56" stop-color="#232120"/>
<stop offset="0.7" stop-color="#0F0F0E"/>
<stop offset="0.85" stop-color="#040404"/>
<stop offset="1"/>
</linearGradient>
<linearGradient id="paint66_linear_42_371" x1="129.815" y1="101.691" x2="58.8179" y2="73.1569" gradientUnits="userSpaceOnUse">
<stop stop-color="#CBC3BF"/>
<stop offset="0.03" stop-color="#BDB5B1"/>
<stop offset="0.17" stop-color="#8B8683"/>
<stop offset="0.3" stop-color="#605D5B"/>
<stop offset="0.44" stop-color="#3E3B3A"/>
<stop offset="0.57" stop-color="#232120"/>
<stop offset="0.71" stop-color="#0F0F0E"/>
<stop offset="0.85" stop-color="#040404"/>
<stop offset="1"/>
</linearGradient>
<linearGradient id="paint67_linear_42_371" x1="170.61" y1="95.8583" x2="105.256" y2="67.2423" gradientUnits="userSpaceOnUse">
<stop stop-color="#D4CDCA"/>
<stop offset="0.05" stop-color="#BDB6B4"/>
<stop offset="0.18" stop-color="#8B8685"/>
<stop offset="0.31" stop-color="#605D5C"/>
<stop offset="0.45" stop-color="#3E3B3B"/>
<stop offset="0.58" stop-color="#232121"/>
<stop offset="0.72" stop-color="#0F0F0F"/>
<stop offset="0.85" stop-color="#040404"/>
<stop offset="1"/>
</linearGradient>
<linearGradient id="paint68_linear_42_371" x1="178.775" y1="143.551" x2="119.046" y2="115.592" gradientUnits="userSpaceOnUse">
<stop stop-color="#DCD7D5"/>
<stop offset="0.07" stop-color="#BDB8B7"/>
<stop offset="0.2" stop-color="#8B8887"/>
<stop offset="0.33" stop-color="#605E5D"/>
<stop offset="0.46" stop-color="#3E3C3C"/>
<stop offset="0.59" stop-color="#232221"/>
<stop offset="0.72" stop-color="#0F0F0F"/>
<stop offset="0.86" stop-color="#040404"/>
<stop offset="1"/>
</linearGradient>
<linearGradient id="paint69_linear_42_371" x1="187.33" y1="70.8538" x2="134.274" y2="43.365" gradientUnits="userSpaceOnUse">
<stop stop-color="#E5E1DF"/>
<stop offset="0.09" stop-color="#BDB9B8"/>
<stop offset="0.21" stop-color="#8B8987"/>
<stop offset="0.34" stop-color="#605F5E"/>
<stop offset="0.47" stop-color="#3E3C3C"/>
<stop offset="0.6" stop-color="#232222"/>
<stop offset="0.73" stop-color="#0F0F0F"/>
<stop offset="0.86" stop-color="#040404"/>
<stop offset="1"/>
</linearGradient>
<linearGradient id="paint70_linear_42_371" x1="174.405" y1="95.8267" x2="127.803" y2="69.9414" gradientUnits="userSpaceOnUse">
<stop stop-color="#EEEBEA"/>
<stop offset="0.11" stop-color="#BDBABA"/>
<stop offset="0.23" stop-color="#8B8989"/>
<stop offset="0.35" stop-color="#605F5F"/>
<stop offset="0.48" stop-color="#3E3D3D"/>
<stop offset="0.6" stop-color="#232222"/>
<stop offset="0.73" stop-color="#0F0F0F"/>
<stop offset="0.86" stop-color="#040404"/>
<stop offset="1"/>
</linearGradient>
<linearGradient id="paint71_linear_42_371" x1="163.882" y1="97.7078" x2="124.165" y2="73.9138" gradientUnits="userSpaceOnUse">
<stop stop-color="#F6F5F4"/>
<stop offset="0.12" stop-color="#BDBCBB"/>
<stop offset="0.24" stop-color="#8B8B8A"/>
<stop offset="0.36" stop-color="#606060"/>
<stop offset="0.49" stop-color="#3E3D3D"/>
<stop offset="0.61" stop-color="#232222"/>
<stop offset="0.74" stop-color="#0F0F0F"/>
<stop offset="0.86" stop-color="#040404"/>
<stop offset="1"/>
</linearGradient>
<linearGradient id="paint72_linear_42_371" x1="-108927" y1="32640.7" x2="-109405" y2="32324.6" gradientUnits="userSpaceOnUse">
<stop stop-color="white"/>
<stop offset="0.02" stop-color="#F7F7F7"/>
<stop offset="0.13" stop-color="#BEBEBE"/>
<stop offset="0.25" stop-color="#8B8B8B"/>
<stop offset="0.37" stop-color="#606060"/>
<stop offset="0.49" stop-color="#3E3E3E"/>
<stop offset="0.62" stop-color="#232323"/>
<stop offset="0.74" stop-color="#0F0F0F"/>
<stop offset="0.87" stop-color="#040404"/>
<stop offset="1"/>
</linearGradient>
<radialGradient id="paint73_radial_42_371" cx="0" cy="0" r="1" gradientUnits="userSpaceOnUse" gradientTransform="translate(93.6831 39.903) scale(32.0194)">
<stop stop-color="#FFE585"/>
<stop offset="0.02" stop-color="#F7DE81"/>
<stop offset="0.13" stop-color="#BEAA63"/>
<stop offset="0.25" stop-color="#8B7D49"/>
<stop offset="0.37" stop-color="#605732"/>
<stop offset="0.49" stop-color="#3E3720"/>
<stop offset="0.62" stop-color="#231F12"/>
<stop offset="0.74" stop-color="#0F0E08"/>
<stop offset="0.87" stop-color="#040302"/>
<stop offset="1"/>
</radialGradient>
<radialGradient id="paint74_radial_42_371" cx="0" cy="0" r="1" gradientUnits="userSpaceOnUse" gradientTransform="translate(179.359 158.122) scale(4.87762 39.5784)">
<stop stop-color="#FF9E6E"/>
<stop offset="0.01" stop-color="#F6986A"/>
<stop offset="0.05" stop-color="#C87C56"/>
<stop offset="0.09" stop-color="#9D6144"/>
<stop offset="0.14" stop-color="#774A33"/>
<stop offset="0.2" stop-color="#573625"/>
<stop offset="0.25" stop-color="#3B251A"/>
<stop offset="0.32" stop-color="#251710"/>
<stop offset="0.4" stop-color="#140D09"/>
<stop offset="0.49" stop-color="#090504"/>
<stop offset="0.63" stop-color="#020101"/>
<stop offset="1"/>
</radialGradient>
<linearGradient id="paint75_linear_42_371" x1="120.953" y1="92.2653" x2="120.953" y2="325" gradientUnits="userSpaceOnUse">
<stop stop-color="#100D28" stop-opacity="0"/>
<stop offset="1" stop-color="#100D28"/>
</linearGradient>
</defs>
</svg>
