<svg width="520" height="582" viewBox="0 0 520 582" fill="none" xmlns="http://www.w3.org/2000/svg">
<rect width="288.96" height="288.96" rx="28.1412" transform="matrix(0.89978 -0.436344 0.89978 0.436344 0 422.349)" fill="url(#paint0_linear_32_600)" fill-opacity="0.2"/>
<rect width="288.96" height="288.96" rx="28.1412" transform="matrix(0.89978 -0.436344 0.89978 0.436344 0 355.217)" fill="url(#paint1_linear_32_600)" fill-opacity="0.6"/>
<rect width="288.96" height="288.96" rx="28.1412" transform="matrix(0.89978 -0.436344 0.89978 0.436344 0 388.783)" fill="url(#paint2_linear_32_600)" fill-opacity="0.4"/>
<rect width="288.96" height="288.96" rx="28.1412" transform="matrix(0.89978 -0.436344 0.89978 0.436344 0 321.652)" fill="url(#paint3_linear_32_600)" fill-opacity="0.8"/>
<g style="mix-blend-mode:darken">
<rect width="288.96" height="288.96" rx="28.1412" transform="matrix(0.89978 -0.436344 0.89978 0.436344 0 288.086)" fill="url(#paint4_linear_32_600)"/>
</g>
<g style="mix-blend-mode:darken" filter="url(#filter0_f_32_600)">
<rect width="208.32" height="85.4955" rx="28.1412" transform="matrix(0.866025 -0.5 0.866025 0.5 132.627 352.436)" fill="#322A78" fill-opacity="0.3"/>
</g>
<g opacity="0.5">
<path d="M308.685 3.7293C323.75 -4.92387 335.801 1.99385 335.801 19.1797V244.09C335.801 261.276 323.75 282.198 308.685 290.851L185.251 361.884C170.282 370.537 158.158 363.62 158.158 346.434V121.523C158.158 104.338 170.21 83.4157 185.251 74.7625L308.685 3.7293Z" fill="url(#paint5_linear_32_600)"/>
<path style="mix-blend-mode:color-dodge" d="M185.251 74.7625L308.685 3.7293C323.75 -4.92387 335.801 1.99385 335.801 19.1797V21.807C335.801 4.62113 323.75 -2.29659 308.685 6.33249L185.251 77.3898C170.282 86.0188 158.158 106.965 158.158 124.151V121.523C158.158 104.289 170.282 83.4156 185.251 74.7625Z" fill="url(#paint6_radial_32_600)"/>
</g>
<path d="M333.105 18.4221C348.169 9.76888 360.221 16.6866 360.221 33.8724V258.783C360.221 275.969 348.169 296.89 333.105 305.544L209.67 376.577C194.702 385.23 182.578 378.312 182.578 361.126V136.216C182.578 119.03 194.63 98.1084 209.67 89.4552L333.105 18.4221Z" fill="url(#paint7_linear_32_600)"/>
<path style="mix-blend-mode:color-dodge" d="M209.67 89.4552L333.105 18.4221C348.169 9.76888 360.221 16.6866 360.221 33.8724V36.4997C360.221 19.3139 348.169 12.3962 333.105 21.0252L209.67 92.0825C194.702 100.712 182.578 121.658 182.578 138.843V136.216C182.578 118.982 194.702 98.1084 209.67 89.4552Z" fill="url(#paint8_radial_32_600)"/>
<path d="M280.903 207.153L300.499 195.849V202.116L280.903 213.42V207.153Z" fill="#E4EDFE"/>
<path d="M282.012 177.602L309.731 161.597V167.864L282.012 183.869V177.602Z" fill="#E4EDFE"/>
<path d="M284.542 190.594L307.778 177.192V183.459L284.542 196.861V190.594Z" fill="#E4EDFE"/>
<path d="M276.42 216.023L252.895 229.593V223.326L276.42 209.756V216.023Z" fill="#E4EDFE"/>
<path d="M300.788 210.142L319.83 199.151V205.418L300.788 216.409V210.142Z" fill="#E4EDFE"/>
<path d="M262.97 188.594L277.553 180.182V186.449L262.97 194.861V188.594Z" fill="#E4EDFE"/>
<path d="M280.349 170.371L273.624 174.252V167.985L280.349 164.104V170.371Z" fill="#E4EDFE"/>
<path d="M273.069 226.147L296.305 212.722V218.989L273.069 232.414V226.147Z" fill="#E4EDFE"/>
<path d="M248.434 232.173L233.852 240.585V234.318L248.434 225.906V232.173Z" fill="#E4EDFE"/>
<path d="M227.152 165.912L257.378 148.461V154.728L227.152 172.179V165.912Z" fill="#E4EDFE"/>
<path d="M266.633 244.321L294.352 228.316V234.583L266.633 250.588V244.321Z" fill="#E4EDFE"/>
<path d="M238.915 188.039L269.141 170.588V176.855L238.915 194.306V188.039Z" fill="#E4EDFE"/>
<path d="M268.875 205.925L238.625 223.375V217.109L268.875 199.658V205.925Z" fill="#E4EDFE"/>
<path d="M261.861 232.607L268.586 228.726V234.993L261.861 238.874V232.607Z" fill="#E4EDFE"/>
<path d="M247.592 255.312L262.15 246.9V253.167L247.592 261.579V255.312Z" fill="#E4EDFE"/>
<path d="M232.189 177.457L243.108 171.166V177.409L232.189 183.724V177.457Z" fill="#E4EDFE"/>
<path d="M258.51 197.44L247.592 203.755V197.488L258.51 191.173V197.44Z" fill="#E4EDFE"/>
<path d="M325.977 152.222L331.063 149.281V155.548L325.977 158.489V152.222Z" fill="#E4EDFE"/>
<path d="M232.189 270.474V264.207L243.108 257.891V264.158L232.189 270.474Z" fill="#E4EDFE"/>
<path d="M280.059 199.464L273.334 203.345V197.078L280.059 193.197V199.464Z" fill="#E4EDFE"/>
<path d="M312.262 174.589L331.062 163.743V170.01L312.262 180.856V174.589Z" fill="#E4EDFE"/>
<path d="M319.83 118.669L300.788 129.66V123.393L319.83 112.402V118.669Z" fill="#E4EDFE"/>
<path d="M227.152 252.661L257.378 235.21V241.477L227.152 258.927V252.661Z" fill="#E4EDFE"/>
<path d="M321.493 154.8V161.067L314.214 165.285V159.018L321.493 154.8Z" fill="#E4EDFE"/>
<path d="M262.15 166.418L247.592 174.83V168.563L262.15 160.151V166.418Z" fill="#E4EDFE"/>
<path d="M268.586 148.245L261.861 152.125V145.858L268.586 141.978V148.245Z" fill="#E4EDFE"/>
<path d="M294.352 147.834L266.633 163.839V157.572L294.352 141.567V147.834Z" fill="#E4EDFE"/>
<path d="M304.983 193.27L310.406 189.991V196.258L304.983 199.536V193.27Z" fill="#E4EDFE"/>
<path d="M331.062 141.085L312.551 151.787V145.52L331.062 134.818V141.085Z" fill="#E4EDFE"/>
<path d="M314.889 187.413L331.063 178.205V184.472L314.889 193.68V187.413Z" fill="#E4EDFE"/>
<path d="M324.29 196.572L331.063 192.667V198.934L324.29 202.839V196.572Z" fill="#E4EDFE"/>
<path d="M229.393 243.164L217.173 250.227V243.96L229.393 236.898V243.164Z" fill="#E4EDFE"/>
<path d="M227.706 186.304L217.173 192.402V186.135L227.706 180.037V186.304Z" fill="#E4EDFE"/>
<path d="M234.431 196.885L217.173 206.84V200.573L234.431 190.618V196.885Z" fill="#E4EDFE"/>
<path d="M234.142 225.954L217.173 235.764V229.497L234.142 219.711V225.954Z" fill="#E4EDFE"/>
<path d="M243.108 206.334L217.173 221.302V215.035L243.108 200.067V206.334Z" fill="#E4EDFE"/>
<path d="M222.668 174.759L217.173 177.94V171.673L222.668 168.492V174.759Z" fill="#E4EDFE"/>
<path d="M314.214 136.361L298.812 145.255V138.988L314.214 130.094V136.361Z" fill="#E4EDFE"/>
<path d="M331.063 126.647L318.698 133.782V127.515L331.063 120.38V126.647Z" fill="#E4EDFE"/>
<path d="M308.067 154.367L284.831 167.793V161.526L308.067 148.1V154.367Z" fill="#E4EDFE"/>
<path d="M282.012 264.087L309.731 248.083V254.35L282.012 270.354V264.087Z" fill="#E4EDFE"/>
<path d="M262.97 275.079L277.553 266.667V272.934L262.97 281.346V275.079Z" fill="#E4EDFE"/>
<path d="M280.349 256.856L273.624 260.737V254.47L280.349 250.589V256.856Z" fill="#E4EDFE"/>
<path d="M238.915 274.524L269.141 257.073V263.34L238.915 280.791V274.524Z" fill="#E4EDFE"/>
<path d="M258.51 283.925L247.592 290.24V283.973L258.51 277.658V283.925Z" fill="#E4EDFE"/>
<path d="M325.977 238.707L331.063 235.767V242.033L325.977 244.974V238.707Z" fill="#E4EDFE"/>
<path d="M321.493 241.286V247.553L314.214 251.771V245.504L321.493 241.286Z" fill="#E4EDFE"/>
<path d="M331.062 227.571L312.551 238.273V232.006L331.062 221.304V227.571Z" fill="#E4EDFE"/>
<path d="M234.431 283.371L217.173 293.325V287.058L234.431 277.104V283.371Z" fill="#E4EDFE"/>
<path d="M243.108 292.82L217.173 307.788V301.521L243.108 286.553V292.82Z" fill="#E4EDFE"/>
<path d="M308.067 240.853L284.831 254.278V248.011L308.067 234.586V240.853Z" fill="#E4EDFE"/>
<path d="M331.063 112.186L324.29 116.091V109.824L331.063 105.919V112.186Z" fill="#E4EDFE"/>
<path d="M296.305 132.239L273.069 145.665V139.398L296.305 125.972V132.239Z" fill="#E4EDFE"/>
<path d="M227.706 273.053L217.173 279.127V272.884L227.706 266.786V273.053Z" fill="#E4EDFE"/>
<path d="M222.668 261.507L217.173 264.689V258.422L222.668 255.24V261.507Z" fill="#E4EDFE"/>
<path d="M331.063 213.372L318.698 220.531V214.264L331.063 207.13V213.372Z" fill="#E4EDFE"/>
<path d="M298.812 225.737L314.214 216.843V223.11L298.812 232.004V225.737Z" fill="#E4EDFE"/>
<path d="M266.633 286.72L294.352 270.715V276.982L266.633 292.987V286.72Z" fill="#E4EDFE"/>
<path d="M247.592 297.711L262.15 289.299V295.566L247.592 303.978V297.711Z" fill="#E4EDFE"/>
<path d="M232.189 312.872V306.605L243.108 300.29V306.557L232.189 312.872Z" fill="#E4EDFE"/>
<path d="M227.706 315.451L217.173 321.526V315.283L227.706 309.184V315.451Z" fill="#E4EDFE"/>
<path d="M331.063 255.771L318.698 262.93V256.663L331.063 249.528V255.771Z" fill="#E4EDFE"/>
<path d="M298.812 268.136L314.214 259.242V265.509L298.812 274.403V268.136Z" fill="#E4EDFE"/>
<path d="M300.788 94.4494L319.83 83.4582V89.7251L300.788 100.716V94.4494Z" fill="#E4EDFE"/>
<path d="M273.069 110.454L296.305 97.0286V103.296L273.069 116.721V110.454Z" fill="#E4EDFE"/>
<path d="M266.633 128.629L294.352 112.624V118.891L266.633 134.896V128.629Z" fill="#E4EDFE"/>
<path d="M261.861 116.914L268.586 113.034V119.301L261.861 123.181V116.914Z" fill="#E4EDFE"/>
<path d="M247.592 139.62L262.15 131.208V137.475L247.592 145.887V139.62Z" fill="#E4EDFE"/>
<path d="M232.189 154.781V148.514L243.108 142.199V148.466L232.189 154.781Z" fill="#E4EDFE"/>
<path d="M227.152 136.969L257.378 119.518V125.785L227.152 143.236V136.969Z" fill="#E4EDFE"/>
<path d="M324.29 80.8797L331.063 76.9749V83.2418L324.29 87.1466V80.8797Z" fill="#E4EDFE"/>
<path d="M227.706 157.359L217.173 163.433V157.19L227.706 151.092V157.359Z" fill="#E4EDFE"/>
<path d="M222.668 145.815L217.173 148.996V142.729L222.668 139.548V145.815Z" fill="#E4EDFE"/>
<path d="M331.063 97.6797L318.698 104.839V98.5716L331.063 91.4369V97.6797Z" fill="#E4EDFE"/>
<path d="M298.812 110.044L314.214 101.15V107.417L298.812 116.311V110.044Z" fill="#E4EDFE"/>
<path d="M13 211H509V582H13V211Z" fill="url(#paint9_linear_32_600)"/>
<defs>
<filter id="filter0_f_32_600" x="127.659" y="237.275" width="264.387" height="168.911" filterUnits="userSpaceOnUse" color-interpolation-filters="sRGB">
<feFlood flood-opacity="0" result="BackgroundImageFix"/>
<feBlend mode="normal" in="SourceGraphic" in2="BackgroundImageFix" result="shape"/>
<feGaussianBlur stdDeviation="9.62194" result="effect1_foregroundBlur_32_600"/>
</filter>
<linearGradient id="paint0_linear_32_600" x1="229.891" y1="229.891" x2="209.908" y2="-112.159" gradientUnits="userSpaceOnUse">
<stop stop-color="#24E8DE"/>
<stop offset="1" stop-color="#6454F0"/>
</linearGradient>
<linearGradient id="paint1_linear_32_600" x1="229.891" y1="229.891" x2="209.908" y2="-112.159" gradientUnits="userSpaceOnUse">
<stop stop-color="#24E8DE"/>
<stop offset="1" stop-color="#6454F0"/>
</linearGradient>
<linearGradient id="paint2_linear_32_600" x1="229.891" y1="229.891" x2="209.908" y2="-112.159" gradientUnits="userSpaceOnUse">
<stop stop-color="#24E8DE"/>
<stop offset="1" stop-color="#6454F0"/>
</linearGradient>
<linearGradient id="paint3_linear_32_600" x1="229.891" y1="229.891" x2="209.908" y2="-112.159" gradientUnits="userSpaceOnUse">
<stop stop-color="#24E8DE"/>
<stop offset="1" stop-color="#6454F0"/>
</linearGradient>
<linearGradient id="paint4_linear_32_600" x1="229.891" y1="229.891" x2="209.908" y2="-112.159" gradientUnits="userSpaceOnUse">
<stop stop-color="#24E8DE"/>
<stop offset="1" stop-color="#6454F0"/>
</linearGradient>
<linearGradient id="paint5_linear_32_600" x1="322.373" y1="365.634" x2="321.41" y2="-6.6559e-06" gradientUnits="userSpaceOnUse">
<stop offset="0.03" stop-color="#24E8DE"/>
<stop offset="1" stop-color="#6454F0"/>
</linearGradient>
<radialGradient id="paint6_radial_32_600" cx="0" cy="0" r="1" gradientUnits="userSpaceOnUse" gradientTransform="translate(-6210.35 3287.51) rotate(180) scale(12321.3 8611.09)">
<stop stop-color="#711F56"/>
<stop offset="0.16" stop-color="#6C1E52"/>
<stop offset="0.36" stop-color="#5C1946"/>
<stop offset="0.58" stop-color="#431233"/>
<stop offset="0.82" stop-color="#200918"/>
<stop offset="1"/>
</radialGradient>
<linearGradient id="paint7_linear_32_600" x1="271.699" y1="380.387" x2="271.699" y2="14.7536" gradientUnits="userSpaceOnUse">
<stop stop-color="#24E8DE"/>
<stop offset="1" stop-color="#6454F0"/>
</linearGradient>
<radialGradient id="paint8_radial_32_600" cx="0" cy="0" r="1" gradientUnits="userSpaceOnUse" gradientTransform="translate(-6185.93 3302.2) rotate(180) scale(12321.3 8611.09)">
<stop stop-color="#711F56"/>
<stop offset="0.16" stop-color="#6C1E52"/>
<stop offset="0.36" stop-color="#5C1946"/>
<stop offset="0.58" stop-color="#431233"/>
<stop offset="0.82" stop-color="#200918"/>
<stop offset="1"/>
</radialGradient>
<linearGradient id="paint9_linear_32_600" x1="261" y1="211" x2="261" y2="617" gradientUnits="userSpaceOnUse">
<stop stop-color="#100D28" stop-opacity="0"/>
<stop offset="1" stop-color="#100D28"/>
</linearGradient>
</defs>
</svg>
