<svg width="30" height="28" viewBox="0 0 30 28" fill="none" xmlns="http://www.w3.org/2000/svg">
<path d="M14.1768 27.6331L14.1489 27.6343C14.0621 27.6341 13.9774 27.6084 13.9054 27.5606L13.9066 27.5617C13.6142 27.3349 13.7214 26.7833 13.8449 26.1442C13.9855 25.6188 14.0242 25.0718 13.959 24.5322L13.9613 24.5529C13.9068 24.2826 13.7661 24.0367 13.5598 23.8512C13.3535 23.6657 13.0926 23.5505 12.8152 23.5223H12.8094C10.9097 23.3185 9.05733 22.8044 7.32781 22.0012L7.43381 22.045C6.68731 21.7024 5.96982 21.3012 5.28825 20.8451L5.34299 20.8797C4.69873 20.4525 4.09135 19.9734 3.52707 19.4472L3.53406 19.453C2.99825 18.9532 2.51253 18.4132 2.07689 17.834L2.0536 17.8006C1.63568 17.2439 1.27329 16.6485 0.971499 16.0227L0.942379 15.9571C0.317226 14.6657 -0.00489215 13.2514 5.61592e-05 11.8198C5.61592e-05 10.9746 0.109547 10.1547 0.316882 9.37289L0.301739 9.43968C0.5067 8.64896 0.807862 7.88572 1.19864 7.16665L1.17184 7.22077C1.56202 6.4998 2.02988 5.82264 2.56727 5.20107L2.55446 5.21604C3.09628 4.58268 3.69811 4.00199 4.35175 3.4819L4.37737 3.46233C5.04552 2.93318 5.75915 2.46273 6.51012 2.05637L6.587 2.01837C7.36267 1.59989 8.17276 1.24704 9.00862 0.963608L9.12393 0.929063C10.0032 0.629766 10.9064 0.404048 11.8239 0.254294L11.9276 0.240476C13.9578 -0.085106 16.0282 -0.0800494 18.0568 0.255445L17.9473 0.240476C19.0212 0.415502 19.9647 0.65501 20.8756 0.965911L20.751 0.929063C21.7376 1.26069 22.575 1.62917 23.3729 2.06097L23.2879 2.01837C24.1289 2.4709 24.8522 2.94877 25.5266 3.48421L25.4975 3.46233C26.1708 3.99662 26.7672 4.57121 27.3053 5.19761L27.3204 5.21604C27.8271 5.80329 28.2837 6.46079 28.6669 7.1632L28.6972 7.22307C29.0478 7.85754 29.3472 8.59449 29.5557 9.36829L29.572 9.43853C29.7755 10.2166 29.8772 11.0173 29.8748 11.8209C29.8762 12.9651 29.6707 14.1003 29.268 15.1729L29.2901 15.1061C28.8961 16.1707 28.3352 17.1674 27.6279 18.0597L27.6454 18.0367C27.5609 18.1574 27.4679 18.272 27.367 18.3798L27.3694 18.3775L27.36 18.3879C26.8615 18.9728 26.3304 19.4967 25.7561 19.9734L25.7363 19.9896C23.7143 21.8062 21.5657 23.4804 19.3066 24.9997L19.1039 25.1286C18.1934 25.75 17.2505 26.3239 16.2793 26.8478L16.1069 26.933C15.7615 27.1181 15.4052 27.2827 15.04 27.4259L14.9701 27.45C14.7213 27.5549 14.4561 27.6168 14.1862 27.6331H14.1792H14.1768ZM21.1458 8.35498C20.9397 8.35559 20.7421 8.43682 20.5963 8.58094C20.4505 8.72506 20.3684 8.92036 20.3677 9.12417V14.8332C20.3684 15.037 20.4505 15.2323 20.5963 15.3765C20.7421 15.5206 20.9397 15.6018 21.1458 15.6024H24.158C24.3642 15.6018 24.5617 15.5206 24.7075 15.3765C24.8533 15.2323 24.9355 15.037 24.9361 14.8332V14.7687C24.9355 14.5649 24.8533 14.3696 24.7075 14.2255C24.5617 14.0814 24.3642 14.0002 24.158 13.9996H21.988V12.7824H24.1568C24.363 12.7818 24.5606 12.7006 24.7063 12.5565C24.8521 12.4124 24.9343 12.2171 24.9349 12.0132V11.9488C24.9343 11.7449 24.8521 11.5497 24.7063 11.4055C24.5606 11.2614 24.363 11.1802 24.1568 11.1796H21.988V9.96015H24.1568C24.363 9.95954 24.5606 9.87831 24.7063 9.73419C24.8521 9.59007 24.9343 9.39477 24.9349 9.19096V9.12532C24.9343 8.92151 24.8521 8.72621 24.7063 8.58209C24.5606 8.43797 24.363 8.35674 24.1568 8.35613L21.1458 8.35498ZM14.1908 8.34116C13.9846 8.34177 13.7871 8.42301 13.6413 8.56713C13.4955 8.71124 13.4133 8.90654 13.4127 9.11035V14.8194C13.4133 15.0232 13.4955 15.2185 13.6413 15.3626C13.7871 15.5068 13.9846 15.588 14.1908 15.5886H14.256C14.4622 15.588 14.6598 15.5068 14.8056 15.3626C14.9513 15.2185 15.0335 15.0232 15.0341 14.8194V11.4041L17.8692 15.2328C17.8868 15.2602 17.9062 15.2864 17.9275 15.3111L17.9263 15.3099C18.0009 15.4099 18.1033 15.4863 18.221 15.5299L18.2257 15.531C18.313 15.5679 18.4144 15.5886 18.5204 15.5886H18.5891C18.7173 15.5889 18.8435 15.5572 18.956 15.4965L18.9513 15.4988C19.0241 15.4666 19.0889 15.419 19.1412 15.3595V15.3583C19.2854 15.2152 19.3663 15.0214 19.366 14.8194V9.11035C19.366 8.90635 19.284 8.7107 19.1381 8.56645C18.9922 8.4222 18.7943 8.34116 18.5879 8.34116H18.5192C18.313 8.34177 18.1155 8.42301 17.9697 8.56713C17.8239 8.71124 17.7417 8.90654 17.7411 9.11035V12.4623L14.9293 8.73036C14.8616 8.61186 14.7635 8.51307 14.6449 8.44394C14.5263 8.3748 14.3914 8.33777 14.2537 8.33656L14.1908 8.34116ZM11.4722 8.34116C11.266 8.34177 11.0684 8.42301 10.9227 8.56713C10.7769 8.71124 10.6947 8.90654 10.6941 9.11035V14.8194C10.6947 15.0232 10.7769 15.2185 10.9227 15.3626C11.0684 15.5068 11.266 15.588 11.4722 15.5886H11.5374C11.7436 15.588 11.9411 15.5068 12.0869 15.3626C12.2327 15.2185 12.3149 15.0232 12.3155 14.8194V9.11035C12.3149 8.90654 12.2327 8.71124 12.0869 8.56713C11.9411 8.42301 11.7436 8.34177 11.5374 8.34116H11.4722ZM6.27483 8.34116C6.06866 8.34177 5.87111 8.42301 5.72532 8.56713C5.57954 8.71124 5.49736 8.90654 5.49675 9.11035V14.8194C5.49736 15.0232 5.57954 15.2185 5.72532 15.3626C5.87111 15.5068 6.06866 15.588 6.27483 15.5886H9.28468C9.49085 15.588 9.6884 15.5068 9.83419 15.3626C9.97997 15.2185 10.0621 15.0232 10.0628 14.8194V14.7618C10.0628 14.5578 9.98079 14.3622 9.83487 14.2179C9.68895 14.0737 9.49104 13.9926 9.28468 13.9926H7.11698V9.11151C7.11637 8.90769 7.03419 8.7124 6.88841 8.56828C6.74262 8.42416 6.54507 8.34292 6.3389 8.34231L6.27483 8.34116Z" fill="#E4EDFE"/>
</svg>
