<svg width="12" height="13" viewBox="0 0 12 13" fill="none" xmlns="http://www.w3.org/2000/svg">
<path d="M7.32713 7.93768C7.24696 7.91146 6.74027 7.68307 7.05689 6.72061H7.05235C7.87768 5.87057 8.5084 4.50276 8.5084 3.15611C8.5084 1.08548 7.13151 0 5.53127 0C3.93002 0 2.56069 1.08498 2.56069 3.15611C2.56069 4.5083 3.18788 5.88167 4.01825 6.72968C4.34193 7.57871 3.76314 7.89381 3.64214 7.93818C1.96627 8.5442 0 9.64884 0 10.7394V11.1482C0 12.634 2.88084 12.9718 5.5469 12.9718C8.21699 12.9718 11.0615 12.634 11.0615 11.1482V10.7394C11.0615 9.61606 9.08568 8.51999 7.32713 7.93768Z" fill="#E4EDFE"/>
</svg>
