<svg width="1212" height="317" viewBox="0 0 1212 317" fill="none" xmlns="http://www.w3.org/2000/svg">
<rect x="2.5" y="2.5" width="1207" height="312" rx="17.5" fill="#100D28" stroke="url(#paint0_linear_40_1299)" stroke-width="5"/>
<g filter="url(#filter0_d_40_1299)">
<path d="M575.845 41.1022C577.645 41.1022 579.067 41.3002 580.111 41.6961C581.154 42.0741 581.856 42.731 582.216 43.6669C582.594 44.6028 582.666 45.8896 582.432 47.5274C582.216 49.1293 581.847 50.3621 581.325 51.226C580.804 52.0899 580.057 52.6928 579.085 53.0348C578.113 53.3588 576.835 53.5207 575.251 53.5207C574.387 53.5207 573.532 53.4758 572.686 53.3858C571.841 53.2958 571.058 53.1878 570.338 53.0618C569.618 52.9178 569.006 52.7738 568.502 52.6299C567.998 52.4679 567.647 52.3239 567.449 52.1979L567.611 49.8762C568.781 49.8762 569.987 49.8762 571.229 49.8762C572.47 49.8762 573.667 49.8762 574.819 49.8762C575.413 49.8762 575.872 49.8132 576.196 49.6872C576.538 49.5612 576.799 49.3092 576.979 48.9313C577.177 48.5353 577.33 47.9414 577.438 47.1495C577.528 46.5376 577.537 46.0606 577.465 45.7186C577.393 45.3767 577.213 45.1337 576.925 44.9897C576.655 44.8457 576.25 44.7738 575.71 44.7738C573.946 44.7738 572.444 44.7918 571.202 44.8277C569.96 44.8457 569.123 44.8727 568.691 44.9087L568.61 41.3721C569.384 41.2822 570.104 41.2192 570.77 41.1832C571.454 41.1472 572.192 41.1292 572.983 41.1292C573.775 41.1112 574.729 41.1022 575.845 41.1022ZM573.658 41.3721L571.04 60H565.991L568.61 41.3721H573.658ZM588.397 46.5825L588.559 49.5252L588.991 49.8762L587.614 60H582.674L584.564 46.5825H588.397ZM594.931 46.2046L593.905 50.7131H592.771C592.213 50.7131 591.601 50.7941 590.935 50.956C590.287 51.118 589.45 51.361 588.424 51.685L588.235 48.9043C589.243 48.0044 590.233 47.3295 591.205 46.8795C592.195 46.4296 593.131 46.2046 594.013 46.2046H594.931ZM601.421 46.5825L599.559 60H594.672L596.535 46.5825H601.421ZM600.72 40.5352C601.242 40.5352 601.619 40.6612 601.853 40.9132C602.087 41.1652 602.177 41.5521 602.123 42.0741L601.934 43.5049C601.826 44.4048 601.287 44.8547 600.315 44.8547H598.371C597.327 44.8547 596.868 44.3418 596.994 43.3159L597.183 41.8851C597.273 40.9852 597.804 40.5352 598.776 40.5352H600.72ZM609.98 49.7952L615.784 49.8222L608.198 56.7874L602.367 56.7604L609.98 49.7952ZM614.893 56.7604L614.461 60H601.989L602.394 56.7604H614.893ZM616.189 46.5825L615.757 49.8222H603.555L603.987 46.5825H616.189ZM625.107 46.2046C626.871 46.2046 628.23 46.3936 629.184 46.7715C630.156 47.1495 630.804 47.6984 631.128 48.4183C631.47 49.1203 631.56 50.0022 631.398 51.064C631.29 51.8739 631.011 52.5129 630.561 52.9808C630.129 53.4308 629.526 53.7727 628.752 54.0067C627.978 54.2227 626.997 54.3756 625.809 54.4656L618.817 55.0326L619.141 52.5759L624.676 52.0089C625.089 51.9729 625.431 51.9189 625.701 51.8469C625.989 51.757 626.214 51.622 626.376 51.442C626.556 51.244 626.664 50.956 626.7 50.5781C626.754 50.2721 626.736 50.0381 626.646 49.8762C626.556 49.7142 626.385 49.6062 626.133 49.5522C625.899 49.4802 625.548 49.4532 625.08 49.4712C624.631 49.4712 624.253 49.5252 623.947 49.6332C623.641 49.7412 623.38 49.9212 623.164 50.1731C622.966 50.4071 622.795 50.7581 622.651 51.226C622.525 51.676 622.399 52.2699 622.273 53.0078C622.111 54.0157 622.066 54.7716 622.138 55.2755C622.228 55.7795 622.453 56.1124 622.813 56.2744C623.191 56.4364 623.713 56.5174 624.379 56.5174C624.793 56.5174 625.314 56.5084 625.944 56.4904C626.574 56.4544 627.231 56.4184 627.915 56.3824C628.617 56.3284 629.229 56.2744 629.751 56.2204L630.102 59.2441C629.508 59.4961 628.86 59.712 628.158 59.892C627.456 60.054 626.745 60.162 626.025 60.216C625.305 60.288 624.604 60.324 623.92 60.324C621.994 60.324 620.509 60.054 619.465 59.5141C618.421 58.9561 617.728 58.1462 617.386 57.0843C617.044 56.0045 616.954 54.6906 617.116 53.1428C617.278 51.739 617.557 50.5871 617.953 49.6872C618.367 48.7693 618.898 48.0674 619.546 47.5814C620.212 47.0775 621.004 46.7265 621.922 46.5286C622.858 46.3126 623.92 46.2046 625.107 46.2046ZM639.419 46.2046C640.103 46.2046 640.85 46.2316 641.66 46.2856C642.47 46.3396 643.253 46.4116 644.009 46.5016C644.765 46.5735 645.403 46.6725 645.925 46.7985L645.52 49.6872C644.639 49.6872 643.766 49.6872 642.902 49.6872C642.038 49.6692 641.183 49.6602 640.337 49.6602C639.689 49.6602 639.176 49.6692 638.798 49.6872C638.438 49.7052 638.186 49.7502 638.042 49.8222C637.898 49.8942 637.808 50.0112 637.772 50.1731C637.736 50.3891 637.817 50.5691 638.015 50.7131C638.213 50.8571 638.591 51.01 639.149 51.172L642.281 52.1439C643.001 52.3599 643.595 52.6478 644.063 53.0078C644.531 53.3678 644.864 53.8177 645.062 54.3577C645.278 54.8976 645.341 55.5365 645.251 56.2744C645.107 57.4263 644.756 58.2902 644.198 58.8661C643.64 59.4241 642.884 59.802 641.93 60C640.994 60.198 639.869 60.297 638.555 60.297C637.925 60.297 637.277 60.279 636.612 60.243C635.946 60.225 635.244 60.171 634.506 60.081C633.768 60.009 632.949 59.901 632.049 59.757L632.481 56.8414C632.751 56.8594 633.138 56.8684 633.642 56.8684C634.146 56.8684 634.686 56.8684 635.262 56.8684C635.856 56.8684 636.414 56.8684 636.935 56.8684C637.907 56.8684 638.645 56.8504 639.149 56.8144C639.653 56.7784 640.004 56.7154 640.202 56.6254C640.4 56.5174 640.508 56.3734 640.526 56.1934C640.562 56.0315 640.535 55.9055 640.445 55.8155C640.373 55.7255 640.22 55.6355 639.986 55.5455C639.752 55.4555 639.428 55.3475 639.014 55.2216L635.991 54.2227C635.199 53.9527 634.569 53.6107 634.101 53.1968C633.651 52.7828 633.345 52.2879 633.183 51.712C633.039 51.136 633.012 50.4971 633.102 49.7952C633.228 48.9853 633.498 48.3193 633.912 47.7974C634.344 47.2755 635.001 46.8795 635.883 46.6095C636.764 46.3396 637.943 46.2046 639.419 46.2046Z" fill="#E4EDFE"/>
</g>
<rect x="112.797" y="129.823" width="251.748" height="104.434" rx="20.7485" fill="url(#paint1_linear_40_1299)"/>
<path d="M194.461 187.2C195.861 187.2 197.027 187.355 197.96 187.666C198.909 187.961 199.585 188.475 199.989 189.205C200.409 189.936 200.534 190.939 200.363 192.214C200.269 192.867 200.098 193.458 199.849 193.987C199.601 194.516 199.227 194.951 198.73 195.293C198.248 195.635 197.579 195.853 196.724 195.946L196.701 196.086C196.98 196.133 197.26 196.242 197.54 196.413C197.836 196.584 198.092 196.848 198.31 197.206C198.528 197.548 198.668 198.022 198.73 198.628L199.43 203.527H194.928L194.368 198.605C194.337 198.123 194.236 197.812 194.065 197.672C193.909 197.532 193.637 197.462 193.249 197.462C192.098 197.447 191.157 197.439 190.426 197.439C189.695 197.439 189.081 197.431 188.584 197.416C188.086 197.4 187.612 197.377 187.161 197.346L187.511 194.29H193.622C194.166 194.29 194.594 194.236 194.905 194.127C195.216 194.002 195.449 193.785 195.604 193.474C195.775 193.163 195.908 192.727 196.001 192.168C196.063 191.701 196.055 191.336 195.978 191.071C195.915 190.807 195.752 190.628 195.488 190.535C195.239 190.426 194.881 190.372 194.415 190.372C192.813 190.372 191.476 190.387 190.403 190.418C189.346 190.434 188.63 190.457 188.257 190.488L188.187 187.433C188.856 187.355 189.486 187.301 190.076 187.269C190.683 187.238 191.328 187.223 192.012 187.223C192.697 187.207 193.513 187.2 194.461 187.2ZM192.456 187.433L190.193 203.527H185.925L188.187 187.433H192.456ZM210.77 191.654C211.657 191.654 212.364 191.888 212.893 192.354C213.437 192.805 213.795 193.497 213.966 194.43C214.153 195.363 214.153 196.56 213.966 198.022C213.795 199.235 213.546 200.23 213.22 201.008C212.909 201.77 212.52 202.353 212.053 202.757C211.602 203.161 211.074 203.441 210.467 203.597C209.876 203.768 209.223 203.853 208.508 203.853C208.135 203.853 207.699 203.83 207.202 203.783C206.72 203.752 206.214 203.698 205.686 203.62C205.173 203.542 204.691 203.441 204.24 203.317C203.789 203.177 203.408 203.013 203.097 202.827L203.587 201.171C204.209 201.171 204.776 201.179 205.289 201.194C205.818 201.194 206.417 201.194 207.085 201.194C207.552 201.194 207.933 201.155 208.228 201.078C208.524 200.984 208.757 200.829 208.928 200.611C209.099 200.393 209.231 200.082 209.324 199.678C209.433 199.258 209.534 198.73 209.628 198.092C209.752 197.237 209.814 196.584 209.814 196.133C209.814 195.682 209.744 195.371 209.604 195.2C209.464 195.029 209.239 194.943 208.928 194.943C208.648 194.943 208.321 195.029 207.948 195.2C207.591 195.355 207.225 195.573 206.852 195.853C206.494 196.133 206.176 196.452 205.896 196.809L205.126 195.153C205.313 194.873 205.585 194.539 205.942 194.15C206.3 193.761 206.728 193.373 207.225 192.984C207.738 192.595 208.298 192.276 208.905 192.028C209.511 191.779 210.133 191.654 210.77 191.654ZM206.036 191.934L205.989 194.78L206.432 195.13L205.453 202.897L205.196 203.293C205.211 203.682 205.204 204.071 205.173 204.46C205.157 204.848 205.11 205.268 205.033 205.719L204.683 207.842H200.438L202.654 191.934H206.036ZM227.572 187.153C228.738 187.153 229.726 187.246 230.534 187.433C231.358 187.604 231.98 187.93 232.4 188.412C232.82 188.894 233.03 189.586 233.03 190.488C233.03 191.266 232.905 191.973 232.657 192.611C232.423 193.233 232.081 193.824 231.63 194.383C231.179 194.943 230.635 195.503 229.998 196.063L225.449 200.075C225.854 199.966 226.242 199.896 226.616 199.865C227.004 199.818 227.385 199.795 227.759 199.795H232.283L231.794 203.527H219.782L220.131 201.194C220.178 200.852 220.248 200.541 220.341 200.261C220.435 199.981 220.598 199.717 220.831 199.468L225.053 195.713C225.644 195.153 226.211 194.624 226.756 194.127C227.315 193.614 227.766 193.132 228.108 192.681C228.45 192.214 228.622 191.794 228.622 191.421C228.622 191.25 228.567 191.118 228.458 191.025C228.349 190.931 228.186 190.869 227.968 190.838C227.766 190.807 227.502 190.791 227.175 190.791C226.585 190.791 226.032 190.799 225.519 190.815C225.022 190.815 224.493 190.823 223.933 190.838C223.389 190.854 222.744 190.877 221.997 190.908L222.067 187.666C222.891 187.511 223.638 187.402 224.306 187.339C224.991 187.262 225.605 187.215 226.149 187.2C226.693 187.168 227.168 187.153 227.572 187.153ZM236.389 199.561C236.871 199.561 237.236 199.694 237.485 199.958C237.749 200.207 237.85 200.588 237.788 201.101L237.625 202.15C237.578 202.617 237.423 202.967 237.158 203.2C236.91 203.418 236.529 203.527 236.016 203.527H235.153C234.08 203.527 233.605 203.013 233.73 201.987L233.87 200.938C234.01 200.02 234.554 199.561 235.502 199.561H236.389ZM246.117 203.83C244.919 203.83 243.87 203.674 242.968 203.363C242.082 203.037 241.397 202.493 240.915 201.731C240.433 200.969 240.2 199.927 240.216 198.605C240.231 197.346 240.293 196.141 240.402 194.99C240.527 193.839 240.736 192.79 241.032 191.841C241.327 190.877 241.755 190.045 242.315 189.345C242.875 188.646 243.598 188.101 244.484 187.713C245.37 187.324 246.467 187.13 247.773 187.13C249.017 187.13 250.074 187.293 250.945 187.619C251.831 187.93 252.508 188.467 252.974 189.229C253.456 189.975 253.697 191.001 253.697 192.308C253.697 193.552 253.643 194.749 253.534 195.9C253.425 197.035 253.223 198.084 252.927 199.048C252.632 200.012 252.197 200.852 251.621 201.567C251.061 202.283 250.331 202.842 249.429 203.247C248.542 203.635 247.438 203.83 246.117 203.83ZM246.49 200.541C247.003 200.541 247.431 200.401 247.773 200.121C248.115 199.841 248.395 199.46 248.612 198.978C248.83 198.481 248.986 197.905 249.079 197.252C249.188 196.599 249.265 195.892 249.312 195.13C249.374 194.368 249.413 193.583 249.429 192.774C249.444 191.934 249.281 191.336 248.939 190.978C248.612 190.605 248.084 190.418 247.353 190.418C246.855 190.418 246.443 190.558 246.117 190.838C245.79 191.118 245.518 191.507 245.3 192.004C245.098 192.486 244.943 193.062 244.834 193.73C244.725 194.383 244.639 195.091 244.577 195.853C244.531 196.615 244.499 197.408 244.484 198.232C244.468 199.041 244.616 199.631 244.927 200.005C245.254 200.362 245.775 200.541 246.49 200.541ZM261.127 203.83C259.93 203.83 258.88 203.674 257.978 203.363C257.092 203.037 256.408 202.493 255.926 201.731C255.444 200.969 255.211 199.927 255.226 198.605C255.242 197.346 255.304 196.141 255.413 194.99C255.537 193.839 255.747 192.79 256.042 191.841C256.338 190.877 256.766 190.045 257.325 189.345C257.885 188.646 258.608 188.101 259.494 187.713C260.381 187.324 261.477 187.13 262.783 187.13C264.027 187.13 265.085 187.293 265.955 187.619C266.842 187.93 267.518 188.467 267.985 189.229C268.467 189.975 268.708 191.001 268.708 192.308C268.708 193.552 268.653 194.749 268.544 195.9C268.436 197.035 268.233 198.084 267.938 199.048C267.642 200.012 267.207 200.852 266.632 201.567C266.072 202.283 265.341 202.842 264.439 203.247C263.553 203.635 262.449 203.83 261.127 203.83ZM261.5 200.541C262.014 200.541 262.441 200.401 262.783 200.121C263.125 199.841 263.405 199.46 263.623 198.978C263.841 198.481 263.996 197.905 264.089 197.252C264.198 196.599 264.276 195.892 264.323 195.13C264.385 194.368 264.424 193.583 264.439 192.774C264.455 191.934 264.292 191.336 263.949 190.978C263.623 190.605 263.094 190.418 262.363 190.418C261.866 190.418 261.454 190.558 261.127 190.838C260.801 191.118 260.529 191.507 260.311 192.004C260.109 192.486 259.953 193.062 259.844 193.73C259.736 194.383 259.65 195.091 259.588 195.853C259.541 196.615 259.51 197.408 259.494 198.232C259.479 199.041 259.627 199.631 259.938 200.005C260.264 200.362 260.785 200.541 261.5 200.541ZM276.138 203.83C274.94 203.83 273.891 203.674 272.989 203.363C272.103 203.037 271.418 202.493 270.936 201.731C270.454 200.969 270.221 199.927 270.237 198.605C270.252 197.346 270.314 196.141 270.423 194.99C270.548 193.839 270.758 192.79 271.053 191.841C271.348 190.877 271.776 190.045 272.336 189.345C272.896 188.646 273.619 188.101 274.505 187.713C275.391 187.324 276.488 187.13 277.794 187.13C279.038 187.13 280.095 187.293 280.966 187.619C281.852 187.93 282.529 188.467 282.995 189.229C283.477 189.975 283.718 191.001 283.718 192.308C283.718 193.552 283.664 194.749 283.555 195.9C283.446 197.035 283.244 198.084 282.948 199.048C282.653 200.012 282.218 200.852 281.642 201.567C281.083 202.283 280.352 202.842 279.45 203.247C278.563 203.635 277.459 203.83 276.138 203.83ZM276.511 200.541C277.024 200.541 277.452 200.401 277.794 200.121C278.136 199.841 278.416 199.46 278.633 198.978C278.851 198.481 279.007 197.905 279.1 197.252C279.209 196.599 279.287 195.892 279.333 195.13C279.395 194.368 279.434 193.583 279.45 192.774C279.465 191.934 279.302 191.336 278.96 190.978C278.633 190.605 278.105 190.418 277.374 190.418C276.876 190.418 276.464 190.558 276.138 190.838C275.811 191.118 275.539 191.507 275.321 192.004C275.119 192.486 274.964 193.062 274.855 193.73C274.746 194.383 274.661 195.091 274.598 195.853C274.552 196.615 274.521 197.408 274.505 198.232C274.489 199.041 274.637 199.631 274.948 200.005C275.275 200.362 275.796 200.541 276.511 200.541ZM287.183 199.561C287.665 199.561 288.031 199.694 288.279 199.958C288.544 200.207 288.645 200.588 288.583 201.101L288.419 202.15C288.373 202.617 288.217 202.967 287.953 203.2C287.704 203.418 287.323 203.527 286.81 203.527H285.947C284.874 203.527 284.4 203.013 284.524 201.987L284.664 200.938C284.804 200.02 285.348 199.561 286.297 199.561H287.183ZM296.911 203.83C295.714 203.83 294.664 203.674 293.762 203.363C292.876 203.037 292.192 202.493 291.71 201.731C291.228 200.969 290.994 199.927 291.01 198.605C291.026 197.346 291.088 196.141 291.197 194.99C291.321 193.839 291.531 192.79 291.826 191.841C292.122 190.877 292.549 190.045 293.109 189.345C293.669 188.646 294.392 188.101 295.278 187.713C296.165 187.324 297.261 187.13 298.567 187.13C299.811 187.13 300.868 187.293 301.739 187.619C302.626 187.93 303.302 188.467 303.768 189.229C304.25 189.975 304.492 191.001 304.492 192.308C304.492 193.552 304.437 194.749 304.328 195.9C304.219 197.035 304.017 198.084 303.722 199.048C303.426 200.012 302.991 200.852 302.416 201.567C301.856 202.283 301.125 202.842 300.223 203.247C299.337 203.635 298.233 203.83 296.911 203.83ZM297.284 200.541C297.797 200.541 298.225 200.401 298.567 200.121C298.909 199.841 299.189 199.46 299.407 198.978C299.624 198.481 299.78 197.905 299.873 197.252C299.982 196.599 300.06 195.892 300.107 195.13C300.169 194.368 300.208 193.583 300.223 192.774C300.239 191.934 300.075 191.336 299.733 190.978C299.407 190.605 298.878 190.418 298.147 190.418C297.65 190.418 297.238 190.558 296.911 190.838C296.585 191.118 296.312 191.507 296.095 192.004C295.893 192.486 295.737 193.062 295.628 193.73C295.519 194.383 295.434 195.091 295.372 195.853C295.325 196.615 295.294 197.408 295.278 198.232C295.263 199.041 295.411 199.631 295.722 200.005C296.048 200.362 296.569 200.541 297.284 200.541ZM311.922 203.83C310.724 203.83 309.675 203.674 308.773 203.363C307.886 203.037 307.202 202.493 306.72 201.731C306.238 200.969 306.005 199.927 306.021 198.605C306.036 197.346 306.098 196.141 306.207 194.99C306.332 193.839 306.541 192.79 306.837 191.841C307.132 190.877 307.56 190.045 308.12 189.345C308.68 188.646 309.403 188.101 310.289 187.713C311.175 187.324 312.271 187.13 313.578 187.13C314.822 187.13 315.879 187.293 316.75 187.619C317.636 187.93 318.313 188.467 318.779 189.229C319.261 189.975 319.502 191.001 319.502 192.308C319.502 193.552 319.448 194.749 319.339 195.9C319.23 197.035 319.028 198.084 318.732 199.048C318.437 200.012 318.002 200.852 317.426 201.567C316.866 202.283 316.136 202.842 315.234 203.247C314.347 203.635 313.243 203.83 311.922 203.83ZM312.295 200.541C312.808 200.541 313.236 200.401 313.578 200.121C313.92 199.841 314.2 199.46 314.417 198.978C314.635 198.481 314.791 197.905 314.884 197.252C314.993 196.599 315.07 195.892 315.117 195.13C315.179 194.368 315.218 193.583 315.234 192.774C315.249 191.934 315.086 191.336 314.744 190.978C314.417 190.605 313.889 190.418 313.158 190.418C312.66 190.418 312.248 190.558 311.922 190.838C311.595 191.118 311.323 191.507 311.105 192.004C310.903 192.486 310.748 193.062 310.639 193.73C310.53 194.383 310.444 195.091 310.382 195.853C310.336 196.615 310.304 197.408 310.289 198.232C310.273 199.041 310.421 199.631 310.732 200.005C311.059 200.362 311.58 200.541 312.295 200.541ZM326.932 203.83C325.735 203.83 324.685 203.674 323.783 203.363C322.897 203.037 322.213 202.493 321.731 201.731C321.249 200.969 321.016 199.927 321.031 198.605C321.047 197.346 321.109 196.141 321.218 194.99C321.342 193.839 321.552 192.79 321.847 191.841C322.143 190.877 322.57 190.045 323.13 189.345C323.69 188.646 324.413 188.101 325.299 187.713C326.186 187.324 327.282 187.13 328.588 187.13C329.832 187.13 330.89 187.293 331.76 187.619C332.647 187.93 333.323 188.467 333.79 189.229C334.272 189.975 334.513 191.001 334.513 192.308C334.513 193.552 334.458 194.749 334.349 195.9C334.24 197.035 334.038 198.084 333.743 199.048C333.447 200.012 333.012 200.852 332.437 201.567C331.877 202.283 331.146 202.842 330.244 203.247C329.358 203.635 328.254 203.83 326.932 203.83ZM327.305 200.541C327.818 200.541 328.246 200.401 328.588 200.121C328.93 199.841 329.21 199.46 329.428 198.978C329.646 198.481 329.801 197.905 329.894 197.252C330.003 196.599 330.081 195.892 330.128 195.13C330.19 194.368 330.229 193.583 330.244 192.774C330.26 191.934 330.097 191.336 329.754 190.978C329.428 190.605 328.899 190.418 328.168 190.418C327.671 190.418 327.259 190.558 326.932 190.838C326.606 191.118 326.333 191.507 326.116 192.004C325.914 192.486 325.758 193.062 325.649 193.73C325.54 194.383 325.455 195.091 325.393 195.853C325.346 196.615 325.315 197.408 325.299 198.232C325.284 199.041 325.432 199.631 325.743 200.005C326.069 200.362 326.59 200.541 327.305 200.541Z" fill="#322A78"/>
<path d="M268.629 161.267L266.921 173.413H263.629L264.809 165.28C264.844 165.034 264.885 164.793 264.932 164.559C264.979 164.312 265.043 164.072 265.126 163.837L262.221 164.523L261.957 162.517L265.442 161.267H268.629ZM273.912 164.418C274.358 164.418 274.845 164.435 275.373 164.471C275.901 164.506 276.412 164.553 276.905 164.611C277.398 164.658 277.814 164.723 278.155 164.805L277.891 166.689C277.316 166.689 276.746 166.689 276.183 166.689C275.62 166.677 275.062 166.671 274.511 166.671C274.088 166.671 273.754 166.677 273.507 166.689C273.273 166.7 273.108 166.73 273.015 166.777C272.921 166.824 272.862 166.9 272.838 167.005C272.815 167.146 272.868 167.264 272.997 167.358C273.126 167.451 273.372 167.551 273.736 167.657L275.778 168.291C276.248 168.431 276.635 168.619 276.94 168.854C277.245 169.089 277.462 169.382 277.591 169.734C277.732 170.086 277.773 170.503 277.715 170.984C277.621 171.735 277.392 172.298 277.028 172.674C276.664 173.038 276.171 173.284 275.549 173.413C274.939 173.542 274.206 173.607 273.349 173.607C272.938 173.607 272.516 173.595 272.082 173.572C271.647 173.56 271.19 173.525 270.708 173.466C270.227 173.419 269.693 173.349 269.107 173.255L269.388 171.353C269.564 171.365 269.817 171.371 270.145 171.371C270.474 171.371 270.826 171.371 271.201 171.371C271.589 171.371 271.952 171.371 272.293 171.371C272.927 171.371 273.408 171.359 273.736 171.336C274.065 171.312 274.294 171.271 274.423 171.213C274.552 171.142 274.622 171.048 274.634 170.931C274.657 170.825 274.64 170.743 274.581 170.685C274.534 170.626 274.435 170.567 274.282 170.509C274.129 170.45 273.918 170.379 273.648 170.297L271.677 169.646C271.16 169.47 270.75 169.247 270.444 168.977C270.151 168.707 269.952 168.384 269.846 168.009C269.752 167.633 269.734 167.217 269.793 166.759C269.875 166.231 270.051 165.797 270.321 165.456C270.603 165.116 271.031 164.858 271.606 164.682C272.181 164.506 272.95 164.418 273.912 164.418ZM284.335 162.305L283.173 170.456C283.138 170.726 283.161 170.908 283.244 171.001C283.326 171.095 283.513 171.142 283.807 171.142H284.916L285.074 173.255C284.828 173.349 284.534 173.419 284.194 173.466C283.854 173.525 283.519 173.566 283.191 173.589C282.862 173.624 282.592 173.642 282.381 173.642C281.524 173.642 280.867 173.419 280.409 172.973C279.952 172.527 279.782 171.917 279.899 171.142L281.184 162.305H284.335ZM286.254 164.664L285.99 166.653H279.019L279.265 164.752L280.955 164.664H286.254ZM296.529 161.091C297.702 161.091 298.629 161.22 299.31 161.478C299.991 161.724 300.448 162.153 300.683 162.763C300.93 163.373 300.977 164.212 300.824 165.28C300.683 166.325 300.443 167.129 300.102 167.692C299.762 168.255 299.275 168.648 298.641 168.871C298.007 169.083 297.174 169.188 296.141 169.188C295.578 169.188 295.021 169.159 294.469 169.1C293.918 169.042 293.407 168.971 292.938 168.889C292.468 168.795 292.069 168.701 291.741 168.607C291.412 168.502 291.183 168.408 291.054 168.326L291.16 166.812C291.923 166.812 292.709 166.812 293.519 166.812C294.328 166.812 295.109 166.812 295.86 166.812C296.247 166.812 296.546 166.771 296.758 166.689C296.981 166.606 297.151 166.442 297.268 166.196C297.397 165.938 297.497 165.55 297.567 165.034C297.626 164.635 297.632 164.324 297.585 164.101C297.538 163.878 297.421 163.72 297.233 163.626C297.057 163.532 296.793 163.485 296.441 163.485C295.291 163.485 294.311 163.497 293.501 163.52C292.691 163.532 292.145 163.549 291.864 163.573L291.811 161.267C292.316 161.208 292.785 161.167 293.219 161.144C293.665 161.12 294.146 161.108 294.663 161.108C295.179 161.097 295.801 161.091 296.529 161.091ZM295.103 161.267L293.395 173.413H290.104L291.811 161.267H295.103ZM305.91 161.091L304.573 170.456C304.526 170.726 304.555 170.908 304.661 171.001C304.766 171.095 304.989 171.142 305.33 171.142H306.069L306.245 173.272C306.069 173.354 305.834 173.419 305.541 173.466C305.247 173.525 304.954 173.566 304.661 173.589C304.367 173.624 304.127 173.642 303.939 173.642C303.035 173.642 302.343 173.425 301.862 172.991C301.392 172.545 301.205 171.94 301.298 171.177L302.724 161.091H305.91ZM312.859 164.418C313.164 164.418 313.516 164.435 313.915 164.471C314.326 164.506 314.737 164.553 315.147 164.611C315.558 164.658 315.934 164.711 316.274 164.77C316.626 164.829 316.896 164.887 317.084 164.946L314.725 166.601C314.349 166.589 313.997 166.583 313.669 166.583C313.34 166.571 312.988 166.565 312.613 166.565C312.331 166.565 312.084 166.595 311.873 166.653C311.662 166.7 311.48 166.8 311.328 166.953C311.187 167.093 311.058 167.311 310.94 167.604C310.835 167.897 310.747 168.285 310.676 168.766C310.582 169.423 310.524 169.928 310.5 170.28C310.488 170.62 310.535 170.849 310.641 170.966C310.747 171.084 310.928 171.142 311.187 171.142C311.457 171.119 311.744 171.007 312.049 170.808C312.354 170.597 312.648 170.321 312.929 169.98C313.223 169.64 313.487 169.265 313.722 168.854L314.25 169.787C314.05 170.561 313.745 171.23 313.334 171.794C312.924 172.357 312.431 172.791 311.856 173.096C311.281 173.401 310.629 173.577 309.902 173.624C309.092 173.671 308.482 173.513 308.071 173.149C307.66 172.785 307.408 172.24 307.314 171.512C307.232 170.773 307.267 169.875 307.42 168.819C307.572 167.798 307.801 166.994 308.106 166.407C308.411 165.808 308.793 165.368 309.25 165.087C309.708 164.805 310.236 164.623 310.835 164.541C311.445 164.459 312.12 164.418 312.859 164.418ZM313.95 164.699L317.084 164.946L315.887 173.413H313.422V171.477L313.017 171.213L313.95 164.699ZM322.849 164.418C323.471 164.418 324.122 164.471 324.803 164.576C325.484 164.67 326.082 164.829 326.599 165.051L326.159 167.005C325.56 166.994 325.014 166.988 324.521 166.988C324.029 166.988 323.606 166.988 323.254 166.988C322.82 166.988 322.474 167.052 322.215 167.182C321.957 167.299 321.758 167.504 321.617 167.798C321.476 168.079 321.37 168.484 321.3 169.012C321.218 169.587 321.206 170.022 321.265 170.315C321.324 170.608 321.464 170.808 321.687 170.913C321.91 171.019 322.233 171.072 322.656 171.072C322.879 171.072 323.143 171.072 323.448 171.072C323.765 171.06 324.099 171.048 324.451 171.037C324.815 171.013 325.173 170.984 325.525 170.949L325.754 172.991C325.202 173.225 324.604 173.39 323.958 173.483C323.313 173.577 322.691 173.624 322.092 173.624C321.059 173.624 320.209 173.466 319.54 173.149C318.871 172.832 318.401 172.328 318.131 171.635C317.873 170.943 317.82 170.033 317.973 168.907C318.126 167.839 318.378 166.976 318.73 166.319C319.082 165.662 319.587 165.181 320.244 164.875C320.913 164.57 321.781 164.418 322.849 164.418ZM332.312 164.418C333.462 164.418 334.348 164.541 334.97 164.787C335.604 165.034 336.026 165.392 336.237 165.861C336.46 166.319 336.519 166.894 336.414 167.586C336.343 168.114 336.161 168.531 335.868 168.836C335.586 169.13 335.193 169.353 334.688 169.505C334.184 169.646 333.544 169.746 332.77 169.804L328.21 170.174L328.422 168.572L332.03 168.202C332.3 168.179 332.523 168.144 332.699 168.097C332.887 168.038 333.034 167.95 333.139 167.833C333.257 167.704 333.327 167.516 333.351 167.27C333.386 167.07 333.374 166.917 333.315 166.812C333.257 166.706 333.145 166.636 332.981 166.601C332.828 166.554 332.599 166.536 332.294 166.548C332.001 166.548 331.754 166.583 331.555 166.653C331.355 166.724 331.185 166.841 331.044 167.005C330.915 167.158 330.804 167.387 330.71 167.692C330.628 167.985 330.546 168.373 330.464 168.854C330.358 169.511 330.329 170.004 330.376 170.333C330.434 170.661 330.581 170.878 330.816 170.984C331.062 171.089 331.402 171.142 331.837 171.142C332.107 171.142 332.447 171.136 332.858 171.125C333.268 171.101 333.697 171.078 334.143 171.054C334.6 171.019 334.999 170.984 335.34 170.949L335.569 172.92C335.181 173.084 334.759 173.225 334.301 173.343C333.843 173.448 333.38 173.519 332.91 173.554C332.441 173.601 331.983 173.624 331.537 173.624C330.282 173.624 329.313 173.448 328.633 173.096C327.952 172.732 327.5 172.204 327.277 171.512C327.054 170.808 326.996 169.951 327.101 168.942C327.207 168.026 327.389 167.275 327.647 166.689C327.917 166.09 328.263 165.632 328.686 165.316C329.12 164.987 329.636 164.758 330.235 164.629C330.845 164.488 331.537 164.418 332.312 164.418Z" fill="#E4EDFE"/>
<path d="M68.7446 115.297C77.4629 108.054 86.4341 109.657 94.562 116.773C92.6961 117.964 85.5486 122.813 85.5486 122.813C77.5367 118.206 71.6542 113.504 67.5534 116.488C67.9751 116.066 68.323 115.655 68.7446 115.297Z" fill="#FECB31"/>
<path d="M80.1301 146.775C80.0352 147.671 79.9298 148.536 79.8244 149.358C79.9298 148.536 80.0352 147.671 80.1301 146.775Z" fill="#DD8B18"/>
<path d="M80.689 140.513C80.5414 142.622 80.3727 144.561 80.1724 146.417C80.3727 144.561 80.5414 142.579 80.689 140.513Z" fill="#DD8B18"/>
<path d="M81.3108 123.267C81.3108 124.321 81.3108 125.375 81.3108 126.429C81.3002 125.343 81.3108 124.3 81.3108 123.267Z" fill="#DD8B18"/>
<path d="M65.8035 118.364C71.2748 109.572 85.6436 121.053 85.6436 121.053C85.6436 121.053 85.496 169.999 78.0955 164.075C70.2733 157.813 65.2869 147.503 63.4948 136.75C62.3688 130.529 63.1745 124.113 65.8035 118.364V118.364ZM74.7431 134.473C75.5071 139.711 77.2296 144.764 79.8244 149.379C80.8365 140.712 81.3328 131.992 81.3108 123.266C79.6202 122.128 77.8189 121.164 75.9344 120.389C74.3526 124.907 73.9428 129.753 74.7431 134.473V134.473Z" fill="#F59C1E"/>
<path d="M69.1664 121.432C69.6513 120.652 70.5474 119.387 71.8968 119.387C74.6693 119.387 78.612 121.443 81.3108 123.266C79.6202 122.128 77.8189 121.164 75.9344 120.388C74.3526 124.907 73.9428 129.753 74.7431 134.473C75.5071 139.711 77.2296 144.764 79.8244 149.379C79.5346 152.062 78.9982 154.712 78.222 157.296C73.0775 153.227 69.3983 145.784 67.7748 136.033C66.2884 127.135 69.1769 121.432 69.1664 121.432Z" fill="#DD8B18"/>
<path d="M81.2686 127.262C81.2686 128.063 81.2686 128.875 81.2686 129.676C81.2369 128.875 81.258 128.084 81.2686 127.262Z" fill="#DD8B18"/>
<path d="M80.8892 137.446C80.8892 138.363 80.7732 139.269 80.7099 140.165C80.7732 139.269 80.8365 138.363 80.8892 137.446Z" fill="#DD8B18"/>
<path d="M81.1948 130.498C81.1948 131.552 81.121 132.607 81.0789 133.661C81.121 132.617 81.1632 131.552 81.1948 130.498Z" fill="#DD8B18"/>
<path d="M81.0789 133.756C81.0789 134.81 80.984 135.801 80.9207 136.813C80.984 135.801 81.0367 134.778 81.0789 133.756Z" fill="#DD8B18"/>
<path d="M89.6498 234.832C95.1211 230.9 103.597 228.36 113.137 228.36C122.678 228.36 131.154 230.9 136.625 234.832H143.003V240.578C143.003 249.897 129.625 257.445 113.137 257.445C96.6497 257.445 83.2719 249.897 83.2719 240.578V234.832H89.6498Z" fill="#F59C1E"/>
<path d="M113.137 251.7C96.6432 251.7 83.2719 244.148 83.2719 234.833C83.2719 225.517 96.6432 217.965 113.137 217.965C129.632 217.965 143.003 225.517 143.003 234.833C143.003 244.148 129.632 251.7 113.137 251.7Z" fill="#FECB31"/>
<path d="M100.002 227.231C103.059 225.028 107.803 223.615 113.137 223.615C118.472 223.615 123.205 225.028 126.262 227.231H129.825V233.04C129.825 238.248 122.351 242.475 113.137 242.475C103.924 242.475 96.4389 238.248 96.4389 233.04V227.231H100.002Z" fill="#F59C1E"/>
<path d="M113.137 236.656C103.915 236.656 96.4384 232.436 96.4384 227.231C96.4384 222.026 103.915 217.807 113.137 217.807C122.359 217.807 129.835 222.026 129.835 227.231C129.835 232.436 122.359 236.656 113.137 236.656Z" fill="#FECB31"/>
<path d="M104.978 204.123C107.41 202.572 110.254 201.789 113.138 201.878C116.018 201.79 118.858 202.573 121.287 204.123H123.5V225.418C123.5 228.655 118.862 231.28 113.138 231.28C107.413 231.28 102.764 228.655 102.764 225.418V204.123H104.978Z" fill="#F59C1E"/>
<path d="M71.4329 130.551H154.841C154.841 206.453 128.486 217.438 113.137 217.438C97.788 217.438 71.4329 205.568 71.4329 130.551Z" fill="#FEBC30"/>
<path d="M102.131 215.287C87.731 209.437 71.433 189.491 71.433 130.551H78.6859C82.3018 133.355 85.7807 138.215 88.3002 146.417C88.3002 146.417 88.0051 208.119 102.131 215.287Z" fill="#FECB31"/>
<path d="M116.31 217.28C119.937 200.128 120.158 153.764 120.158 153.764L151.141 130.572H154.841C154.841 201.446 131.818 215.699 116.31 217.28Z" fill="#ECAF2D"/>
<path d="M113.137 154.102C90.1045 154.102 71.4329 143.558 71.4329 130.551C71.4329 117.544 90.1045 107 113.137 107C136.17 107 154.841 117.544 154.841 130.551C154.841 143.558 136.17 154.102 113.137 154.102Z" fill="#FFDE7A"/>
<path d="M113.138 150.486C133.779 150.486 151.258 141.356 151.258 130.551C151.258 119.745 133.779 110.616 113.138 110.616C92.4964 110.616 75.0494 119.745 75.0494 130.551C75.0494 141.356 92.4859 150.486 113.138 150.486Z" fill="#FEBC30"/>
<path d="M139.081 188.817C139.081 188.817 144.963 187.436 147.673 184.6C147.588 185.296 153.597 187.92 156.823 180.014C157.53 178.275 155.674 190.556 155.674 190.556L146.25 193.107L139.081 188.817Z" fill="#FECB31"/>
<path d="M146.397 191.083C150.614 191.083 153.629 187.731 154.578 182.133C155.716 175.312 154.03 166.32 144.605 157.454C144.774 155.947 144.974 154.534 145.111 152.984C145.248 153.058 145.385 153.09 145.522 153.164C154.715 158.519 160.661 171.823 158.816 182.903C156.971 193.982 148 198.547 138.786 193.192C138.533 193.055 138.322 192.844 138.08 192.686C138.428 191.473 138.723 190.134 139.06 188.869C141.375 189.987 143.851 190.734 146.397 191.083V191.083Z" fill="#F59C1E"/>
<path d="M158.816 182.903C160.66 171.823 154.715 158.519 145.522 153.164C145.522 153.164 153.882 149.252 154.093 147.028C154.23 147.102 154.356 147.133 154.493 147.218C163.686 152.563 169.642 165.867 167.787 176.904C166.49 184.579 158.984 192.095 151.436 194.182C155.115 192.39 157.867 188.437 158.816 182.903Z" fill="#FECB31"/>
<path d="M75.0695 130.298C75.2487 123.699 81.8797 117.763 91.7575 114.179C95.1415 120.504 109.436 145.046 129.709 148.388C124.283 149.796 118.7 150.505 113.095 150.496C96.2906 150.496 81.6161 144.445 76.7352 136.37C75.6891 134.514 75.117 132.428 75.0695 130.298Z" fill="#ECAF2D"/>
<rect x="898.251" y="129.823" width="251.748" height="104.434" rx="20.7485" fill="url(#paint2_linear_40_1299)"/>
<path d="M983.968 187.199C985.367 187.199 986.534 187.355 987.467 187.666C988.415 187.961 989.092 188.474 989.496 189.205C989.916 189.936 990.04 190.939 989.869 192.214C989.776 192.867 989.605 193.458 989.356 193.987C989.107 194.515 988.734 194.951 988.236 195.293C987.754 195.635 987.086 195.853 986.23 195.946L986.207 196.086C986.487 196.133 986.767 196.241 987.047 196.412C987.342 196.583 987.599 196.848 987.817 197.205C988.034 197.548 988.174 198.022 988.236 198.628L988.936 203.526H984.434L983.875 198.605C983.844 198.123 983.743 197.812 983.571 197.672C983.416 197.532 983.144 197.462 982.755 197.462C981.604 197.446 980.664 197.439 979.933 197.439C979.202 197.439 978.588 197.431 978.09 197.415C977.593 197.4 977.118 197.376 976.667 197.345L977.017 194.29H983.128C983.673 194.29 984.1 194.235 984.411 194.127C984.722 194.002 984.955 193.785 985.111 193.474C985.282 193.163 985.414 192.727 985.507 192.167C985.57 191.701 985.562 191.335 985.484 191.071C985.422 190.807 985.259 190.628 984.994 190.535C984.745 190.426 984.388 190.371 983.921 190.371C982.32 190.371 980.982 190.387 979.91 190.418C978.852 190.434 978.137 190.457 977.764 190.488L977.694 187.433C978.362 187.355 978.992 187.3 979.583 187.269C980.189 187.238 980.835 187.223 981.519 187.223C982.203 187.207 983.019 187.199 983.968 187.199ZM981.962 187.433L979.7 203.526H975.431L977.694 187.433H981.962ZM1000.28 191.654C1001.16 191.654 1001.87 191.887 1002.4 192.354C1002.94 192.805 1003.3 193.497 1003.47 194.43C1003.66 195.363 1003.66 196.56 1003.47 198.022C1003.3 199.235 1003.05 200.23 1002.73 201.007C1002.42 201.769 1002.03 202.352 1001.56 202.757C1001.11 203.161 1000.58 203.441 999.974 203.596C999.383 203.767 998.73 203.853 998.015 203.853C997.641 203.853 997.206 203.83 996.708 203.783C996.226 203.752 995.721 203.697 995.192 203.62C994.679 203.542 994.197 203.441 993.746 203.316C993.295 203.177 992.914 203.013 992.603 202.827L993.093 201.171C993.715 201.171 994.283 201.178 994.796 201.194C995.324 201.194 995.923 201.194 996.592 201.194C997.058 201.194 997.439 201.155 997.735 201.077C998.03 200.984 998.263 200.829 998.434 200.611C998.605 200.393 998.738 200.082 998.831 199.678C998.94 199.258 999.041 198.729 999.134 198.092C999.259 197.237 999.321 196.583 999.321 196.133C999.321 195.682 999.251 195.371 999.111 195.2C998.971 195.028 998.745 194.943 998.434 194.943C998.155 194.943 997.828 195.028 997.455 195.2C997.097 195.355 996.732 195.573 996.359 195.853C996.001 196.133 995.682 196.451 995.402 196.809L994.633 195.153C994.819 194.873 995.091 194.539 995.449 194.15C995.807 193.761 996.234 193.372 996.732 192.984C997.245 192.595 997.805 192.276 998.411 192.027C999.018 191.779 999.64 191.654 1000.28 191.654ZM995.542 191.934L995.496 194.78L995.939 195.13L994.959 202.897L994.703 203.293C994.718 203.682 994.71 204.071 994.679 204.459C994.664 204.848 994.617 205.268 994.539 205.719L994.189 207.841H989.944L992.16 191.934H995.542ZM1019.39 187.433L1017.13 203.526H1012.76L1014.33 192.75C1014.37 192.424 1014.43 192.105 1014.49 191.794C1014.55 191.468 1014.64 191.149 1014.75 190.838L1010.9 191.748L1010.55 189.089L1015.17 187.433H1019.39ZM1022.84 199.561C1023.33 199.561 1023.69 199.693 1023.94 199.958C1024.2 200.207 1024.3 200.587 1024.24 201.101L1024.08 202.15C1024.03 202.617 1023.88 202.967 1023.61 203.2C1023.36 203.418 1022.98 203.526 1022.47 203.526H1021.61C1020.53 203.526 1020.06 203.013 1020.18 201.987L1020.32 200.937C1020.46 200.02 1021.01 199.561 1021.96 199.561H1022.84ZM1032.57 203.83C1031.37 203.83 1030.32 203.674 1029.42 203.363C1028.54 203.037 1027.85 202.492 1027.37 201.73C1026.89 200.968 1026.65 199.927 1026.67 198.605C1026.69 197.345 1026.75 196.14 1026.86 194.99C1026.98 193.839 1027.19 192.789 1027.49 191.841C1027.78 190.877 1028.21 190.045 1028.77 189.345C1029.33 188.645 1030.05 188.101 1030.94 187.712C1031.82 187.324 1032.92 187.129 1034.23 187.129C1035.47 187.129 1036.53 187.293 1037.4 187.619C1038.29 187.93 1038.96 188.467 1039.43 189.228C1039.91 189.975 1040.15 191.001 1040.15 192.307C1040.15 193.551 1040.1 194.749 1039.99 195.899C1039.88 197.034 1039.68 198.084 1039.38 199.048C1039.09 200.012 1038.65 200.852 1038.08 201.567C1037.52 202.282 1036.78 202.842 1035.88 203.246C1035 203.635 1033.89 203.83 1032.57 203.83ZM1032.94 200.541C1033.46 200.541 1033.88 200.401 1034.23 200.121C1034.57 199.841 1034.85 199.46 1035.07 198.978C1035.28 198.481 1035.44 197.905 1035.53 197.252C1035.64 196.599 1035.72 195.892 1035.77 195.13C1035.83 194.368 1035.87 193.582 1035.88 192.774C1035.9 191.934 1035.74 191.335 1035.39 190.978C1035.07 190.605 1034.54 190.418 1033.81 190.418C1033.31 190.418 1032.9 190.558 1032.57 190.838C1032.24 191.118 1031.97 191.507 1031.75 192.004C1031.55 192.486 1031.4 193.061 1031.29 193.73C1031.18 194.383 1031.09 195.091 1031.03 195.853C1030.98 196.615 1030.95 197.408 1030.94 198.232C1030.92 199.04 1031.07 199.631 1031.38 200.004C1031.71 200.362 1032.23 200.541 1032.94 200.541ZM1047.58 203.83C1046.38 203.83 1045.33 203.674 1044.43 203.363C1043.55 203.037 1042.86 202.492 1042.38 201.73C1041.9 200.968 1041.66 199.927 1041.68 198.605C1041.7 197.345 1041.76 196.14 1041.87 194.99C1041.99 193.839 1042.2 192.789 1042.5 191.841C1042.79 190.877 1043.22 190.045 1043.78 189.345C1044.34 188.645 1045.06 188.101 1045.95 187.712C1046.84 187.324 1047.93 187.129 1049.24 187.129C1050.48 187.129 1051.54 187.293 1052.41 187.619C1053.3 187.93 1053.97 188.467 1054.44 189.228C1054.92 189.975 1055.16 191.001 1055.16 192.307C1055.16 193.551 1055.11 194.749 1055 195.899C1054.89 197.034 1054.69 198.084 1054.39 199.048C1054.1 200.012 1053.66 200.852 1053.09 201.567C1052.53 202.282 1051.8 202.842 1050.89 203.246C1050.01 203.635 1048.9 203.83 1047.58 203.83ZM1047.95 200.541C1048.47 200.541 1048.9 200.401 1049.24 200.121C1049.58 199.841 1049.86 199.46 1050.08 198.978C1050.29 198.481 1050.45 197.905 1050.54 197.252C1050.65 196.599 1050.73 195.892 1050.78 195.13C1050.84 194.368 1050.88 193.582 1050.89 192.774C1050.91 191.934 1050.75 191.335 1050.4 190.978C1050.08 190.605 1049.55 190.418 1048.82 190.418C1048.32 190.418 1047.91 190.558 1047.58 190.838C1047.25 191.118 1046.98 191.507 1046.77 192.004C1046.56 192.486 1046.41 193.061 1046.3 193.73C1046.19 194.383 1046.1 195.091 1046.04 195.853C1046 196.615 1045.96 197.408 1045.95 198.232C1045.93 199.04 1046.08 199.631 1046.39 200.004C1046.72 200.362 1047.24 200.541 1047.95 200.541ZM1062.59 203.83C1061.39 203.83 1060.35 203.674 1059.44 203.363C1058.56 203.037 1057.87 202.492 1057.39 201.73C1056.91 200.968 1056.68 199.927 1056.69 198.605C1056.71 197.345 1056.77 196.14 1056.88 194.99C1057 193.839 1057.21 192.789 1057.51 191.841C1057.8 190.877 1058.23 190.045 1058.79 189.345C1059.35 188.645 1060.07 188.101 1060.96 187.712C1061.85 187.324 1062.94 187.129 1064.25 187.129C1065.49 187.129 1066.55 187.293 1067.42 187.619C1068.31 187.93 1068.98 188.467 1069.45 189.228C1069.93 189.975 1070.17 191.001 1070.17 192.307C1070.17 193.551 1070.12 194.749 1070.01 195.899C1069.9 197.034 1069.7 198.084 1069.4 199.048C1069.11 200.012 1068.67 200.852 1068.1 201.567C1067.54 202.282 1066.81 202.842 1065.9 203.246C1065.02 203.635 1063.91 203.83 1062.59 203.83ZM1062.97 200.541C1063.48 200.541 1063.91 200.401 1064.25 200.121C1064.59 199.841 1064.87 199.46 1065.09 198.978C1065.31 198.481 1065.46 197.905 1065.55 197.252C1065.66 196.599 1065.74 195.892 1065.79 195.13C1065.85 194.368 1065.89 193.582 1065.9 192.774C1065.92 191.934 1065.76 191.335 1065.41 190.978C1065.09 190.605 1064.56 190.418 1063.83 190.418C1063.33 190.418 1062.92 190.558 1062.59 190.838C1062.27 191.118 1061.99 191.507 1061.78 192.004C1061.57 192.486 1061.42 193.061 1061.31 193.73C1061.2 194.383 1061.11 195.091 1061.05 195.853C1061.01 196.615 1060.97 197.408 1060.96 198.232C1060.94 199.04 1061.09 199.631 1061.4 200.004C1061.73 200.362 1062.25 200.541 1062.97 200.541ZM1073.64 199.561C1074.12 199.561 1074.48 199.693 1074.73 199.958C1075 200.207 1075.1 200.587 1075.04 201.101L1074.87 202.15C1074.83 202.617 1074.67 202.967 1074.41 203.2C1074.16 203.418 1073.78 203.526 1073.26 203.526H1072.4C1071.33 203.526 1070.85 203.013 1070.98 201.987L1071.12 200.937C1071.26 200.02 1071.8 199.561 1072.75 199.561H1073.64ZM1083.37 203.83C1082.17 203.83 1081.12 203.674 1080.22 203.363C1079.33 203.037 1078.65 202.492 1078.16 201.73C1077.68 200.968 1077.45 199.927 1077.46 198.605C1077.48 197.345 1077.54 196.14 1077.65 194.99C1077.78 193.839 1077.99 192.789 1078.28 191.841C1078.58 190.877 1079 190.045 1079.56 189.345C1080.12 188.645 1080.85 188.101 1081.73 187.712C1082.62 187.324 1083.72 187.129 1085.02 187.129C1086.27 187.129 1087.32 187.293 1088.19 187.619C1089.08 187.93 1089.76 188.467 1090.22 189.228C1090.7 189.975 1090.95 191.001 1090.95 192.307C1090.95 193.551 1090.89 194.749 1090.78 195.899C1090.67 197.034 1090.47 198.084 1090.18 199.048C1089.88 200.012 1089.45 200.852 1088.87 201.567C1088.31 202.282 1087.58 202.842 1086.68 203.246C1085.79 203.635 1084.69 203.83 1083.37 203.83ZM1083.74 200.541C1084.25 200.541 1084.68 200.401 1085.02 200.121C1085.36 199.841 1085.64 199.46 1085.86 198.978C1086.08 198.481 1086.23 197.905 1086.33 197.252C1086.44 196.599 1086.51 195.892 1086.56 195.13C1086.62 194.368 1086.66 193.582 1086.68 192.774C1086.69 191.934 1086.53 191.335 1086.19 190.978C1085.86 190.605 1085.33 190.418 1084.6 190.418C1084.1 190.418 1083.69 190.558 1083.37 190.838C1083.04 191.118 1082.77 191.507 1082.55 192.004C1082.35 192.486 1082.19 193.061 1082.08 193.73C1081.97 194.383 1081.89 195.091 1081.83 195.853C1081.78 196.615 1081.75 197.408 1081.73 198.232C1081.72 199.04 1081.86 199.631 1082.18 200.004C1082.5 200.362 1083.02 200.541 1083.74 200.541ZM1098.38 203.83C1097.18 203.83 1096.13 203.674 1095.23 203.363C1094.34 203.037 1093.66 202.492 1093.17 201.73C1092.69 200.968 1092.46 199.927 1092.47 198.605C1092.49 197.345 1092.55 196.14 1092.66 194.99C1092.79 193.839 1093 192.789 1093.29 191.841C1093.59 190.877 1094.01 190.045 1094.57 189.345C1095.13 188.645 1095.86 188.101 1096.74 187.712C1097.63 187.324 1098.73 187.129 1100.03 187.129C1101.28 187.129 1102.33 187.293 1103.2 187.619C1104.09 187.93 1104.77 188.467 1105.23 189.228C1105.72 189.975 1105.96 191.001 1105.96 192.307C1105.96 193.551 1105.9 194.749 1105.79 195.899C1105.68 197.034 1105.48 198.084 1105.19 199.048C1104.89 200.012 1104.46 200.852 1103.88 201.567C1103.32 202.282 1102.59 202.842 1101.69 203.246C1100.8 203.635 1099.7 203.83 1098.38 203.83ZM1098.75 200.541C1099.26 200.541 1099.69 200.401 1100.03 200.121C1100.37 199.841 1100.65 199.46 1100.87 198.978C1101.09 198.481 1101.24 197.905 1101.34 197.252C1101.45 196.599 1101.52 195.892 1101.57 195.13C1101.63 194.368 1101.67 193.582 1101.69 192.774C1101.7 191.934 1101.54 191.335 1101.2 190.978C1100.87 190.605 1100.34 190.418 1099.61 190.418C1099.11 190.418 1098.7 190.558 1098.38 190.838C1098.05 191.118 1097.78 191.507 1097.56 192.004C1097.36 192.486 1097.2 193.061 1097.09 193.73C1096.98 194.383 1096.9 195.091 1096.84 195.853C1096.79 196.615 1096.76 197.408 1096.74 198.232C1096.73 199.04 1096.88 199.631 1097.19 200.004C1097.51 200.362 1098.03 200.541 1098.75 200.541ZM1113.39 203.83C1112.19 203.83 1111.14 203.674 1110.24 203.363C1109.35 203.037 1108.67 202.492 1108.19 201.73C1107.7 200.968 1107.47 199.927 1107.49 198.605C1107.5 197.345 1107.56 196.14 1107.67 194.99C1107.8 193.839 1108.01 192.789 1108.3 191.841C1108.6 190.877 1109.02 190.045 1109.58 189.345C1110.14 188.645 1110.87 188.101 1111.75 187.712C1112.64 187.324 1113.74 187.129 1115.04 187.129C1116.29 187.129 1117.34 187.293 1118.21 187.619C1119.1 187.93 1119.78 188.467 1120.24 189.228C1120.73 189.975 1120.97 191.001 1120.97 192.307C1120.97 193.551 1120.91 194.749 1120.8 195.899C1120.69 197.034 1120.49 198.084 1120.2 199.048C1119.9 200.012 1119.47 200.852 1118.89 201.567C1118.33 202.282 1117.6 202.842 1116.7 203.246C1115.81 203.635 1114.71 203.83 1113.39 203.83ZM1113.76 200.541C1114.27 200.541 1114.7 200.401 1115.04 200.121C1115.38 199.841 1115.66 199.46 1115.88 198.978C1116.1 198.481 1116.26 197.905 1116.35 197.252C1116.46 196.599 1116.54 195.892 1116.58 195.13C1116.64 194.368 1116.68 193.582 1116.7 192.774C1116.71 191.934 1116.55 191.335 1116.21 190.978C1115.88 190.605 1115.35 190.418 1114.62 190.418C1114.13 190.418 1113.71 190.558 1113.39 190.838C1113.06 191.118 1112.79 191.507 1112.57 192.004C1112.37 192.486 1112.21 193.061 1112.1 193.73C1111.99 194.383 1111.91 195.091 1111.85 195.853C1111.8 196.615 1111.77 197.408 1111.75 198.232C1111.74 199.04 1111.89 199.631 1112.2 200.004C1112.52 200.362 1113.04 200.541 1113.76 200.541Z" fill="#322A78"/>
<path d="M1049.23 161.02C1050.55 161.02 1051.53 161.208 1052.17 161.583C1052.83 161.947 1053.16 162.604 1053.16 163.555C1053.16 164.153 1053.07 164.699 1052.9 165.192C1052.73 165.673 1052.47 166.072 1052.12 166.389C1051.77 166.694 1051.32 166.882 1050.78 166.952L1050.77 167.023C1051.48 167.117 1051.99 167.351 1052.3 167.727C1052.6 168.103 1052.75 168.595 1052.75 169.206C1052.75 170.238 1052.54 171.083 1052.12 171.741C1051.71 172.386 1051.12 172.867 1050.34 173.184C1049.57 173.489 1048.63 173.648 1047.53 173.659C1046.94 173.659 1046.3 173.624 1045.61 173.554C1044.93 173.495 1044.26 173.413 1043.62 173.307L1043.85 170.984C1044.35 171.019 1044.78 171.048 1045.13 171.072C1045.5 171.083 1045.83 171.089 1046.14 171.089C1046.45 171.089 1046.78 171.083 1047.1 171.072C1047.89 171.06 1048.49 170.884 1048.92 170.543C1049.34 170.203 1049.55 169.681 1049.55 168.977C1049.55 168.789 1049.5 168.636 1049.41 168.519C1049.33 168.402 1049.2 168.314 1049.02 168.255C1048.85 168.185 1048.61 168.149 1048.32 168.149L1045.82 168.132L1046.1 166.09H1048.51C1049.1 166.09 1049.5 165.955 1049.73 165.685C1049.95 165.415 1050.06 164.975 1050.06 164.365C1050.06 164.083 1049.97 163.884 1049.8 163.766C1049.63 163.649 1049.28 163.59 1048.74 163.59C1048.13 163.59 1047.52 163.596 1046.91 163.608C1046.31 163.608 1045.79 163.608 1045.34 163.608V161.337C1046.06 161.22 1046.76 161.137 1047.44 161.091C1048.12 161.044 1048.72 161.02 1049.23 161.02ZM1057.51 164.664L1057.62 166.583L1057.9 166.812L1057 173.413H1053.78L1055.01 164.664H1057.51ZM1061.77 164.418L1061.11 167.357H1060.37C1060 167.357 1059.6 167.41 1059.17 167.516C1058.75 167.621 1058.2 167.78 1057.53 167.991L1057.41 166.178C1058.07 165.591 1058.71 165.151 1059.35 164.858C1059.99 164.564 1060.6 164.418 1061.18 164.418H1061.77ZM1065.67 164.418C1066.57 164.418 1067.4 164.482 1068.19 164.611C1068.98 164.729 1069.6 164.922 1070.06 165.192L1069.7 166.442C1069.23 166.442 1068.8 166.442 1068.4 166.442C1068.01 166.43 1067.56 166.424 1067.05 166.424C1066.72 166.424 1066.44 166.454 1066.22 166.512C1066 166.571 1065.81 166.682 1065.67 166.847C1065.54 167.011 1065.43 167.246 1065.34 167.551C1065.26 167.856 1065.18 168.261 1065.11 168.766C1065.05 169.282 1065.01 169.704 1064.99 170.033C1064.97 170.362 1065.02 170.602 1065.13 170.755C1065.23 170.896 1065.42 170.966 1065.69 170.966C1066.11 170.943 1066.51 170.813 1066.87 170.579C1067.25 170.344 1067.62 170.062 1068 169.734L1068.6 171.072C1068.43 171.271 1068.21 171.518 1067.93 171.811C1067.66 172.093 1067.33 172.374 1066.96 172.656C1066.59 172.926 1066.2 173.155 1065.76 173.342C1065.33 173.53 1064.86 173.624 1064.37 173.624C1063.68 173.624 1063.12 173.454 1062.7 173.114C1062.28 172.773 1061.99 172.251 1061.85 171.547C1061.71 170.831 1061.71 169.922 1061.85 168.818C1061.97 167.926 1062.15 167.193 1062.38 166.618C1062.62 166.043 1062.89 165.597 1063.21 165.28C1063.54 164.952 1063.91 164.729 1064.32 164.611C1064.74 164.482 1065.19 164.418 1065.67 164.418ZM1072.12 161.091L1070.39 173.413H1067.86L1067.8 171.142L1067.5 170.966L1068.33 164.981L1068.49 164.699C1068.49 164.406 1068.5 164.112 1068.51 163.819C1068.53 163.514 1068.57 163.197 1068.61 162.868L1068.93 161.091H1072.12ZM1082.53 161.091C1083.7 161.091 1084.63 161.22 1085.31 161.478C1085.99 161.724 1086.44 162.153 1086.68 162.763C1086.93 163.373 1086.97 164.212 1086.82 165.28C1086.68 166.325 1086.44 167.128 1086.1 167.692C1085.76 168.255 1085.27 168.648 1084.64 168.871C1084 169.082 1083.17 169.188 1082.14 169.188C1081.57 169.188 1081.02 169.159 1080.47 169.1C1079.91 169.041 1079.4 168.971 1078.93 168.889C1078.46 168.795 1078.07 168.701 1077.74 168.607C1077.41 168.502 1077.18 168.408 1077.05 168.325L1077.16 166.812C1077.92 166.812 1078.71 166.812 1079.51 166.812C1080.32 166.812 1081.11 166.812 1081.86 166.812C1082.24 166.812 1082.54 166.771 1082.75 166.688C1082.98 166.606 1083.15 166.442 1083.26 166.195C1083.39 165.937 1083.49 165.55 1083.56 165.034C1083.62 164.635 1083.63 164.324 1083.58 164.101C1083.53 163.878 1083.42 163.719 1083.23 163.625C1083.05 163.531 1082.79 163.485 1082.44 163.485C1081.29 163.485 1080.31 163.496 1079.5 163.52C1078.69 163.531 1078.14 163.549 1077.86 163.573L1077.81 161.267C1078.31 161.208 1078.78 161.167 1079.22 161.143C1079.66 161.12 1080.14 161.108 1080.66 161.108C1081.18 161.096 1081.8 161.091 1082.53 161.091ZM1081.1 161.267L1079.39 173.413H1076.1L1077.81 161.267H1081.1ZM1091.91 161.091L1090.57 170.455C1090.52 170.725 1090.55 170.907 1090.66 171.001C1090.76 171.095 1090.99 171.142 1091.33 171.142H1092.07L1092.24 173.272C1092.07 173.354 1091.83 173.419 1091.54 173.466C1091.24 173.524 1090.95 173.565 1090.66 173.589C1090.36 173.624 1090.12 173.642 1089.94 173.642C1089.03 173.642 1088.34 173.425 1087.86 172.99C1087.39 172.544 1087.2 171.94 1087.29 171.177L1088.72 161.091H1091.91ZM1098.86 164.418C1099.16 164.418 1099.51 164.435 1099.91 164.47C1100.32 164.506 1100.73 164.552 1101.14 164.611C1101.55 164.658 1101.93 164.711 1102.27 164.77C1102.62 164.828 1102.89 164.887 1103.08 164.946L1100.72 166.6C1100.35 166.589 1099.99 166.583 1099.67 166.583C1099.34 166.571 1098.98 166.565 1098.61 166.565C1098.33 166.565 1098.08 166.594 1097.87 166.653C1097.66 166.7 1097.48 166.8 1097.32 166.952C1097.18 167.093 1097.05 167.31 1096.94 167.604C1096.83 167.897 1096.74 168.284 1096.67 168.766C1096.58 169.423 1096.52 169.927 1096.5 170.279C1096.48 170.62 1096.53 170.849 1096.64 170.966C1096.74 171.083 1096.92 171.142 1097.18 171.142C1097.45 171.119 1097.74 171.007 1098.05 170.808C1098.35 170.596 1098.64 170.321 1098.93 169.98C1099.22 169.64 1099.48 169.264 1099.72 168.854L1100.25 169.787C1100.05 170.561 1099.74 171.23 1099.33 171.793C1098.92 172.357 1098.43 172.791 1097.85 173.096C1097.28 173.401 1096.63 173.577 1095.9 173.624C1095.09 173.671 1094.48 173.513 1094.07 173.149C1093.66 172.785 1093.4 172.239 1093.31 171.512C1093.23 170.772 1093.26 169.875 1093.42 168.818C1093.57 167.797 1093.8 166.993 1094.1 166.407C1094.41 165.808 1094.79 165.368 1095.25 165.086C1095.7 164.805 1096.23 164.623 1096.83 164.541C1097.44 164.459 1098.12 164.418 1098.86 164.418ZM1099.95 164.699L1103.08 164.946L1101.88 173.413H1099.42V171.476L1099.01 171.212L1099.95 164.699ZM1108.85 164.418C1109.47 164.418 1110.12 164.47 1110.8 164.576C1111.48 164.67 1112.08 164.828 1112.6 165.051L1112.15 167.005C1111.56 166.993 1111.01 166.988 1110.52 166.988C1110.02 166.988 1109.6 166.988 1109.25 166.988C1108.82 166.988 1108.47 167.052 1108.21 167.181C1107.95 167.299 1107.75 167.504 1107.61 167.797C1107.47 168.079 1107.37 168.484 1107.3 169.012C1107.21 169.587 1107.2 170.021 1107.26 170.315C1107.32 170.608 1107.46 170.808 1107.68 170.913C1107.91 171.019 1108.23 171.072 1108.65 171.072C1108.87 171.072 1109.14 171.072 1109.44 171.072C1109.76 171.06 1110.1 171.048 1110.45 171.036C1110.81 171.013 1111.17 170.984 1111.52 170.948L1111.75 172.99C1111.2 173.225 1110.6 173.389 1109.95 173.483C1109.31 173.577 1108.69 173.624 1108.09 173.624C1107.06 173.624 1106.21 173.466 1105.54 173.149C1104.87 172.832 1104.4 172.327 1104.13 171.635C1103.87 170.943 1103.82 170.033 1103.97 168.906C1104.12 167.838 1104.37 166.976 1104.73 166.319C1105.08 165.662 1105.58 165.18 1106.24 164.875C1106.91 164.57 1107.78 164.418 1108.85 164.418ZM1118.31 164.418C1119.46 164.418 1120.34 164.541 1120.97 164.787C1121.6 165.034 1122.02 165.392 1122.23 165.861C1122.46 166.319 1122.52 166.894 1122.41 167.586C1122.34 168.114 1122.16 168.531 1121.86 168.836C1121.58 169.129 1121.19 169.352 1120.68 169.505C1120.18 169.646 1119.54 169.745 1118.77 169.804L1114.21 170.174L1114.42 168.572L1118.03 168.202C1118.3 168.179 1118.52 168.144 1118.7 168.097C1118.88 168.038 1119.03 167.95 1119.14 167.833C1119.25 167.703 1119.32 167.516 1119.35 167.269C1119.38 167.07 1119.37 166.917 1119.31 166.812C1119.25 166.706 1119.14 166.636 1118.98 166.6C1118.82 166.553 1118.6 166.536 1118.29 166.548C1118 166.548 1117.75 166.583 1117.55 166.653C1117.35 166.724 1117.18 166.841 1117.04 167.005C1116.91 167.158 1116.8 167.387 1116.71 167.692C1116.62 167.985 1116.54 168.372 1116.46 168.854C1116.35 169.511 1116.32 170.004 1116.37 170.332C1116.43 170.661 1116.58 170.878 1116.81 170.984C1117.06 171.089 1117.4 171.142 1117.83 171.142C1118.1 171.142 1118.44 171.136 1118.85 171.124C1119.26 171.101 1119.69 171.077 1120.14 171.054C1120.6 171.019 1121 170.984 1121.34 170.948L1121.56 172.92C1121.18 173.084 1120.76 173.225 1120.3 173.342C1119.84 173.448 1119.38 173.518 1118.91 173.554C1118.44 173.601 1117.98 173.624 1117.53 173.624C1116.28 173.624 1115.31 173.448 1114.63 173.096C1113.95 172.732 1113.5 172.204 1113.27 171.512C1113.05 170.808 1112.99 169.951 1113.1 168.942C1113.2 168.026 1113.39 167.275 1113.64 166.688C1113.91 166.09 1114.26 165.632 1114.68 165.315C1115.12 164.987 1115.63 164.758 1116.23 164.629C1116.84 164.488 1117.53 164.418 1118.31 164.418Z" fill="#E4EDFE"/>
<path d="M850.741 115.296C859.46 108.054 868.431 109.656 876.559 116.772C874.693 117.964 867.545 122.813 867.545 122.813C859.533 118.206 853.651 113.504 849.55 116.488C849.972 116.066 850.32 115.655 850.741 115.296Z" fill="#CC9173"/>
<path d="M862.126 146.775C862.032 147.671 861.926 148.535 861.821 149.358C861.926 148.535 862.032 147.671 862.126 146.775Z" fill="#986852"/>
<path d="M862.685 140.513C862.537 142.621 862.369 144.561 862.168 146.416C862.369 144.561 862.537 142.579 862.685 140.513Z" fill="#986852"/>
<path d="M863.307 123.266C863.307 124.32 863.307 125.375 863.307 126.429C863.296 125.343 863.307 124.299 863.307 123.266Z" fill="#986852"/>
<path d="M847.8 118.364C853.271 109.572 867.64 121.052 867.64 121.052C867.64 121.052 867.492 169.999 860.092 164.074C852.269 157.812 847.283 147.502 845.491 136.749C844.365 130.529 845.171 124.113 847.8 118.364V118.364ZM856.739 134.472C857.503 139.711 859.226 144.764 861.82 149.379C862.833 140.712 863.329 131.992 863.307 123.266C861.616 122.128 859.815 121.164 857.93 120.388C856.349 124.907 855.939 129.752 856.739 134.472V134.472Z" fill="#AF775D"/>
<path d="M851.162 121.432C851.647 120.652 852.543 119.387 853.893 119.387C856.665 119.387 860.608 121.442 863.307 123.266C861.616 122.128 859.815 121.164 857.93 120.388C856.349 124.907 855.939 129.752 856.739 134.472C857.503 139.711 859.226 144.764 861.82 149.379C861.531 152.061 860.994 154.712 860.218 157.296C855.074 153.227 851.394 145.784 849.771 136.033C848.285 127.135 851.173 121.432 851.162 121.432Z" fill="#986852"/>
<path d="M863.265 127.262C863.265 128.063 863.265 128.875 863.265 129.676C863.233 128.875 863.254 128.084 863.265 127.262Z" fill="#986852"/>
<path d="M862.885 137.445C862.885 138.362 862.77 139.269 862.706 140.165C862.77 139.269 862.833 138.362 862.885 137.445Z" fill="#986852"/>
<path d="M863.19 130.498C863.19 131.552 863.117 132.606 863.074 133.661C863.117 132.617 863.159 131.552 863.19 130.498Z" fill="#986852"/>
<path d="M863.075 133.756C863.075 134.81 862.98 135.801 862.917 136.813C862.98 135.801 863.033 134.778 863.075 133.756Z" fill="#986852"/>
<path d="M871.646 234.832C877.118 230.9 885.593 228.36 895.134 228.36C904.675 228.36 913.15 230.9 918.622 234.832H925V240.578C925 249.897 911.622 257.445 895.134 257.445C878.646 257.445 865.269 249.897 865.269 240.578V234.832H871.646Z" fill="#AF775D"/>
<path d="M895.134 251.7C878.64 251.7 865.269 244.148 865.269 234.832C865.269 225.517 878.64 217.965 895.134 217.965C911.628 217.965 925 225.517 925 234.832C925 244.148 911.628 251.7 895.134 251.7Z" fill="#CC9173"/>
<path d="M881.998 227.231C885.056 225.028 889.8 223.615 895.134 223.615C900.468 223.615 905.201 225.028 908.259 227.231H911.822V233.04C911.822 238.248 904.347 242.475 895.134 242.475C885.92 242.475 878.435 238.248 878.435 233.04V227.231H881.998Z" fill="#AF775D"/>
<path d="M895.133 236.656C885.911 236.656 878.435 232.436 878.435 227.231C878.435 222.026 885.911 217.807 895.133 217.807C904.356 217.807 911.832 222.026 911.832 227.231C911.832 232.436 904.356 236.656 895.133 236.656Z" fill="#CC9173"/>
<path d="M886.975 204.123C889.407 202.572 892.25 201.789 895.134 201.878C898.014 201.79 900.854 202.573 903.283 204.123H905.497V225.418C905.497 228.655 900.858 231.28 895.134 231.28C889.41 231.28 884.761 228.655 884.761 225.418V204.123H886.975Z" fill="#AF775D"/>
<path d="M853.43 130.551H936.838C936.838 206.453 910.483 217.438 895.134 217.438C879.785 217.438 853.43 205.568 853.43 130.551Z" fill="#C4896D"/>
<path d="M884.128 215.287C869.728 209.437 853.43 189.491 853.43 130.551H860.683C864.299 133.355 867.778 138.215 870.297 146.417C870.297 146.417 870.002 208.119 884.128 215.287Z" fill="#CC9173"/>
<path d="M898.307 217.28C901.933 200.128 902.155 153.764 902.155 153.764L933.138 130.572H936.838C936.838 201.446 913.814 215.698 898.307 217.28Z" fill="#BB8267"/>
<path d="M895.134 154.102C872.101 154.102 853.43 143.558 853.43 130.551C853.43 117.544 872.101 107 895.134 107C918.166 107 936.838 117.544 936.838 130.551C936.838 143.558 918.166 154.102 895.134 154.102Z" fill="#E19F7F"/>
<path d="M895.134 150.486C915.775 150.486 933.254 141.356 933.254 130.551C933.254 119.745 915.775 110.616 895.134 110.616C874.493 110.616 857.046 119.745 857.046 130.551C857.046 141.356 874.482 150.486 895.134 150.486Z" fill="#C3896D"/>
<path d="M921.078 188.817C921.078 188.817 926.96 187.436 929.67 184.6C929.585 185.296 935.594 187.92 938.82 180.014C939.526 178.275 937.671 190.556 937.671 190.556L928.246 193.107L921.078 188.817Z" fill="#CC9173"/>
<path d="M928.394 191.083C932.611 191.083 935.626 187.731 936.575 182.133C937.713 175.312 936.027 166.32 926.602 157.454C926.771 155.947 926.971 154.534 927.108 152.984C927.245 153.058 927.382 153.09 927.519 153.164C936.712 158.519 942.657 171.823 940.813 182.903C938.968 193.982 929.996 198.547 920.783 193.192C920.53 193.055 920.319 192.844 920.076 192.686C920.424 191.473 920.72 190.134 921.057 188.869C923.372 189.987 925.848 190.734 928.394 191.083V191.083Z" fill="#AF775D"/>
<path d="M940.812 182.903C942.657 171.823 936.712 158.519 927.519 153.164C927.519 153.164 935.879 149.252 936.09 147.028C936.227 147.102 936.353 147.133 936.49 147.218C945.683 152.563 951.639 165.867 949.784 176.904C948.487 184.579 940.981 192.095 933.433 194.182C937.112 192.39 939.864 188.437 940.812 182.903Z" fill="#CC9173"/>
<path d="M857.066 130.298C857.245 123.699 863.876 117.763 873.754 114.179C877.138 120.504 891.433 145.046 911.705 148.388C906.28 149.796 900.696 150.505 895.091 150.496C878.287 150.496 863.613 144.445 858.732 136.37C857.686 134.514 857.114 132.428 857.066 130.298Z" fill="#BB8267"/>
<rect x="504.064" y="129.823" width="251.748" height="104.434" rx="20.7485" fill="url(#paint3_linear_40_1299)"/>
<path d="M593.185 187.199C594.584 187.199 595.75 187.355 596.683 187.666C597.632 187.961 598.308 188.474 598.713 189.205C599.132 189.936 599.257 190.939 599.086 192.214C598.992 192.867 598.821 193.458 598.573 193.987C598.324 194.515 597.951 194.951 597.453 195.293C596.971 195.635 596.302 195.853 595.447 195.946L595.424 196.086C595.704 196.133 595.984 196.241 596.263 196.412C596.559 196.583 596.815 196.848 597.033 197.205C597.251 197.548 597.391 198.022 597.453 198.628L598.153 203.526H593.651L593.091 198.605C593.06 198.123 592.959 197.812 592.788 197.672C592.633 197.532 592.361 197.462 591.972 197.462C590.821 197.446 589.88 197.439 589.15 197.439C588.419 197.439 587.804 197.431 587.307 197.415C586.809 197.4 586.335 197.376 585.884 197.345L586.234 194.29H592.345C592.889 194.29 593.317 194.235 593.628 194.127C593.939 194.002 594.172 193.785 594.328 193.474C594.499 193.163 594.631 192.727 594.724 192.167C594.786 191.701 594.778 191.335 594.701 191.071C594.639 190.807 594.475 190.628 594.211 190.535C593.962 190.426 593.604 190.371 593.138 190.371C591.536 190.371 590.199 190.387 589.126 190.418C588.069 190.434 587.354 190.457 586.98 190.488L586.91 187.433C587.579 187.355 588.209 187.3 588.8 187.269C589.406 187.238 590.051 187.223 590.736 187.223C591.42 187.207 592.236 187.199 593.185 187.199ZM591.179 187.433L588.916 203.526H584.648L586.91 187.433H591.179ZM609.494 191.654C610.38 191.654 611.088 191.887 611.616 192.354C612.16 192.805 612.518 193.497 612.689 194.43C612.876 195.363 612.876 196.56 612.689 198.022C612.518 199.235 612.269 200.23 611.943 201.007C611.632 201.769 611.243 202.352 610.777 202.757C610.326 203.161 609.797 203.441 609.19 203.596C608.6 203.767 607.947 203.853 607.231 203.853C606.858 203.853 606.423 203.83 605.925 203.783C605.443 203.752 604.938 203.697 604.409 203.62C603.896 203.542 603.414 203.441 602.963 203.316C602.512 203.177 602.131 203.013 601.82 202.827L602.31 201.171C602.932 201.171 603.499 201.178 604.012 201.194C604.541 201.194 605.14 201.194 605.808 201.194C606.275 201.194 606.656 201.155 606.951 201.077C607.247 200.984 607.48 200.829 607.651 200.611C607.822 200.393 607.954 200.082 608.048 199.678C608.156 199.258 608.257 198.729 608.351 198.092C608.475 197.237 608.537 196.583 608.537 196.133C608.537 195.682 608.467 195.371 608.327 195.2C608.188 195.028 607.962 194.943 607.651 194.943C607.371 194.943 607.045 195.028 606.671 195.2C606.314 195.355 605.948 195.573 605.575 195.853C605.218 196.133 604.899 196.451 604.619 196.809L603.849 195.153C604.036 194.873 604.308 194.539 604.666 194.15C605.023 193.761 605.451 193.372 605.948 192.984C606.462 192.595 607.021 192.276 607.628 192.027C608.234 191.779 608.856 191.654 609.494 191.654ZM604.759 191.934L604.712 194.78L605.155 195.13L604.176 202.897L603.919 203.293C603.935 203.682 603.927 204.071 603.896 204.459C603.88 204.848 603.834 205.268 603.756 205.719L603.406 207.841H599.161L601.377 191.934H604.759ZM628.604 187.433L626.342 203.526H621.98L623.543 192.75C623.589 192.424 623.644 192.105 623.706 191.794C623.768 191.468 623.854 191.149 623.963 190.838L620.114 191.748L619.764 189.089L624.383 187.433H628.604ZM632.06 199.561C632.542 199.561 632.907 199.693 633.156 199.958C633.42 200.207 633.521 200.587 633.459 201.101L633.296 202.15C633.249 202.617 633.094 202.967 632.829 203.2C632.581 203.418 632.2 203.526 631.687 203.526H630.824C629.751 203.526 629.276 203.013 629.401 201.987L629.541 200.937C629.681 200.02 630.225 199.561 631.173 199.561H632.06ZM647.875 187.433L647.292 190.628H640.994L640.481 193.054L642.347 193.264C643.513 193.404 644.431 193.683 645.099 194.103C645.768 194.508 646.242 195.005 646.522 195.596C646.817 196.171 646.965 196.793 646.965 197.462C646.965 199.421 646.366 200.945 645.169 202.034C643.972 203.107 642.316 203.697 640.201 203.806C639.392 203.853 638.537 203.822 637.635 203.713C636.733 203.62 635.816 203.495 634.883 203.34L635.443 200.074C636.205 200.152 636.92 200.214 637.589 200.261C638.273 200.308 638.879 200.315 639.408 200.284C640.357 200.222 641.126 200.004 641.717 199.631C642.324 199.242 642.627 198.582 642.627 197.649C642.627 197.353 642.541 197.128 642.37 196.972C642.215 196.801 641.958 196.677 641.6 196.599C641.258 196.506 640.792 196.436 640.201 196.389L637.845 196.063C637.41 195.985 637.068 195.79 636.819 195.479C636.57 195.168 636.492 194.803 636.586 194.383L637.939 187.433H647.875ZM654.703 203.83C653.505 203.83 652.456 203.674 651.554 203.363C650.668 203.037 649.983 202.492 649.501 201.73C649.019 200.968 648.786 199.927 648.802 198.605C648.817 197.345 648.879 196.14 648.988 194.99C649.113 193.839 649.322 192.789 649.618 191.841C649.913 190.877 650.341 190.045 650.901 189.345C651.461 188.645 652.184 188.101 653.07 187.712C653.956 187.324 655.053 187.129 656.359 187.129C657.603 187.129 658.66 187.293 659.531 187.619C660.417 187.93 661.094 188.467 661.56 189.228C662.042 189.975 662.283 191.001 662.283 192.307C662.283 193.551 662.229 194.749 662.12 195.899C662.011 197.034 661.809 198.084 661.513 199.048C661.218 200.012 660.783 200.852 660.207 201.567C659.647 202.282 658.917 202.842 658.015 203.246C657.128 203.635 656.024 203.83 654.703 203.83ZM655.076 200.541C655.589 200.541 656.017 200.401 656.359 200.121C656.701 199.841 656.981 199.46 657.198 198.978C657.416 198.481 657.572 197.905 657.665 197.252C657.774 196.599 657.851 195.892 657.898 195.13C657.96 194.368 657.999 193.582 658.015 192.774C658.03 191.934 657.867 191.335 657.525 190.978C657.198 190.605 656.67 190.418 655.939 190.418C655.441 190.418 655.029 190.558 654.703 190.838C654.376 191.118 654.104 191.507 653.886 192.004C653.684 192.486 653.529 193.061 653.42 193.73C653.311 194.383 653.225 195.091 653.163 195.853C653.117 196.615 653.085 197.408 653.07 198.232C653.054 199.04 653.202 199.631 653.513 200.004C653.84 200.362 654.361 200.541 655.076 200.541ZM669.713 203.83C668.516 203.83 667.466 203.674 666.564 203.363C665.678 203.037 664.994 202.492 664.512 201.73C664.03 200.968 663.797 199.927 663.812 198.605C663.828 197.345 663.89 196.14 663.999 194.99C664.123 193.839 664.333 192.789 664.628 191.841C664.924 190.877 665.352 190.045 665.911 189.345C666.471 188.645 667.194 188.101 668.08 187.712C668.967 187.324 670.063 187.129 671.369 187.129C672.613 187.129 673.671 187.293 674.541 187.619C675.428 187.93 676.104 188.467 676.571 189.228C677.053 189.975 677.294 191.001 677.294 192.307C677.294 193.551 677.239 194.749 677.13 195.899C677.021 197.034 676.819 198.084 676.524 199.048C676.228 200.012 675.793 200.852 675.218 201.567C674.658 202.282 673.927 202.842 673.025 203.246C672.139 203.635 671.035 203.83 669.713 203.83ZM670.086 200.541C670.6 200.541 671.027 200.401 671.369 200.121C671.711 199.841 671.991 199.46 672.209 198.978C672.427 198.481 672.582 197.905 672.675 197.252C672.784 196.599 672.862 195.892 672.909 195.13C672.971 194.368 673.01 193.582 673.025 192.774C673.041 191.934 672.878 191.335 672.535 190.978C672.209 190.605 671.68 190.418 670.949 190.418C670.452 190.418 670.04 190.558 669.713 190.838C669.387 191.118 669.115 191.507 668.897 192.004C668.695 192.486 668.539 193.061 668.43 193.73C668.321 194.383 668.236 195.091 668.174 195.853C668.127 196.615 668.096 197.408 668.08 198.232C668.065 199.04 668.213 199.631 668.524 200.004C668.85 200.362 669.371 200.541 670.086 200.541ZM680.759 199.561C681.241 199.561 681.606 199.693 681.855 199.958C682.119 200.207 682.22 200.587 682.158 201.101L681.995 202.15C681.948 202.617 681.793 202.967 681.528 203.2C681.279 203.418 680.899 203.526 680.385 203.526H679.522C678.449 203.526 677.975 203.013 678.1 201.987L678.24 200.937C678.379 200.02 678.924 199.561 679.872 199.561H680.759ZM690.486 203.83C689.289 203.83 688.24 203.674 687.338 203.363C686.451 203.037 685.767 202.492 685.285 201.73C684.803 200.968 684.57 199.927 684.585 198.605C684.601 197.345 684.663 196.14 684.772 194.99C684.896 193.839 685.106 192.789 685.402 191.841C685.697 190.877 686.125 190.045 686.685 189.345C687.244 188.645 687.967 188.101 688.854 187.712C689.74 187.324 690.836 187.129 692.143 187.129C693.386 187.129 694.444 187.293 695.315 187.619C696.201 187.93 696.877 188.467 697.344 189.228C697.826 189.975 698.067 191.001 698.067 192.307C698.067 193.551 698.013 194.749 697.904 195.899C697.795 197.034 697.593 198.084 697.297 199.048C697.002 200.012 696.566 200.852 695.991 201.567C695.431 202.282 694.7 202.842 693.799 203.246C692.912 203.635 691.808 203.83 690.486 203.83ZM690.86 200.541C691.373 200.541 691.8 200.401 692.143 200.121C692.485 199.841 692.765 199.46 692.982 198.978C693.2 198.481 693.355 197.905 693.449 197.252C693.558 196.599 693.635 195.892 693.682 195.13C693.744 194.368 693.783 193.582 693.799 192.774C693.814 191.934 693.651 191.335 693.309 190.978C692.982 190.605 692.454 190.418 691.723 190.418C691.225 190.418 690.813 190.558 690.486 190.838C690.16 191.118 689.888 191.507 689.67 192.004C689.468 192.486 689.312 193.061 689.204 193.73C689.095 194.383 689.009 195.091 688.947 195.853C688.9 196.615 688.869 197.408 688.854 198.232C688.838 199.04 688.986 199.631 689.297 200.004C689.623 200.362 690.144 200.541 690.86 200.541ZM705.497 203.83C704.3 203.83 703.25 203.674 702.348 203.363C701.462 203.037 700.778 202.492 700.296 201.73C699.814 200.968 699.58 199.927 699.596 198.605C699.612 197.345 699.674 196.14 699.783 194.99C699.907 193.839 700.117 192.789 700.412 191.841C700.708 190.877 701.135 190.045 701.695 189.345C702.255 188.645 702.978 188.101 703.864 187.712C704.751 187.324 705.847 187.129 707.153 187.129C708.397 187.129 709.454 187.293 710.325 187.619C711.212 187.93 711.888 188.467 712.354 189.228C712.836 189.975 713.077 191.001 713.077 192.307C713.077 193.551 713.023 194.749 712.914 195.899C712.805 197.034 712.603 198.084 712.308 199.048C712.012 200.012 711.577 200.852 711.002 201.567C710.442 202.282 709.711 202.842 708.809 203.246C707.923 203.635 706.819 203.83 705.497 203.83ZM705.87 200.541C706.383 200.541 706.811 200.401 707.153 200.121C707.495 199.841 707.775 199.46 707.993 198.978C708.21 198.481 708.366 197.905 708.459 197.252C708.568 196.599 708.646 195.892 708.692 195.13C708.755 194.368 708.794 193.582 708.809 192.774C708.825 191.934 708.661 191.335 708.319 190.978C707.993 190.605 707.464 190.418 706.733 190.418C706.236 190.418 705.824 190.558 705.497 190.838C705.171 191.118 704.898 191.507 704.681 192.004C704.479 192.486 704.323 193.061 704.214 193.73C704.105 194.383 704.02 195.091 703.958 195.853C703.911 196.615 703.88 197.408 703.864 198.232C703.849 199.04 703.997 199.631 704.307 200.004C704.634 200.362 705.155 200.541 705.87 200.541ZM720.508 203.83C719.31 203.83 718.261 203.674 717.359 203.363C716.472 203.037 715.788 202.492 715.306 201.73C714.824 200.968 714.591 199.927 714.607 198.605C714.622 197.345 714.684 196.14 714.793 194.99C714.917 193.839 715.127 192.789 715.423 191.841C715.718 190.877 716.146 190.045 716.706 189.345C717.265 188.645 717.989 188.101 718.875 187.712C719.761 187.324 720.857 187.129 722.164 187.129C723.408 187.129 724.465 187.293 725.336 187.619C726.222 187.93 726.898 188.467 727.365 189.228C727.847 189.975 728.088 191.001 728.088 192.307C728.088 193.551 728.034 194.749 727.925 195.899C727.816 197.034 727.614 198.084 727.318 199.048C727.023 200.012 726.587 200.852 726.012 201.567C725.452 202.282 724.722 202.842 723.82 203.246C722.933 203.635 721.829 203.83 720.508 203.83ZM720.881 200.541C721.394 200.541 721.822 200.401 722.164 200.121C722.506 199.841 722.786 199.46 723.003 198.978C723.221 198.481 723.376 197.905 723.47 197.252C723.579 196.599 723.656 195.892 723.703 195.13C723.765 194.368 723.804 193.582 723.82 192.774C723.835 191.934 723.672 191.335 723.33 190.978C723.003 190.605 722.475 190.418 721.744 190.418C721.246 190.418 720.834 190.558 720.508 190.838C720.181 191.118 719.909 191.507 719.691 192.004C719.489 192.486 719.334 193.061 719.225 193.73C719.116 194.383 719.03 195.091 718.968 195.853C718.922 196.615 718.89 197.408 718.875 198.232C718.859 199.04 719.007 199.631 719.318 200.004C719.645 200.362 720.165 200.541 720.881 200.541Z" fill="#322A78"/>
<path d="M651.446 161.055C652.327 161.055 653.072 161.126 653.682 161.267C654.304 161.396 654.773 161.642 655.09 162.006C655.407 162.37 655.566 162.892 655.566 163.573C655.566 164.159 655.472 164.693 655.284 165.174C655.108 165.644 654.85 166.09 654.509 166.512C654.169 166.935 653.758 167.357 653.277 167.78L649.845 170.808C650.15 170.725 650.443 170.673 650.725 170.649C651.018 170.614 651.306 170.596 651.587 170.596H655.002L654.633 173.413H645.567L645.831 171.653C645.866 171.394 645.919 171.16 645.989 170.948C646.06 170.737 646.183 170.538 646.359 170.35L649.545 167.516C649.991 167.093 650.42 166.694 650.83 166.319C651.253 165.931 651.593 165.568 651.851 165.227C652.109 164.875 652.239 164.558 652.239 164.277C652.239 164.148 652.197 164.048 652.115 163.977C652.033 163.907 651.91 163.86 651.746 163.837C651.593 163.813 651.394 163.801 651.147 163.801C650.701 163.801 650.285 163.807 649.897 163.819C649.522 163.819 649.123 163.825 648.7 163.837C648.29 163.848 647.803 163.866 647.239 163.889L647.292 161.443C647.914 161.325 648.477 161.243 648.982 161.196C649.498 161.137 649.962 161.102 650.373 161.091C650.783 161.067 651.141 161.055 651.446 161.055ZM663.787 164.418C664.268 164.418 664.69 164.511 665.054 164.699C665.418 164.887 665.688 165.169 665.864 165.544C666.051 165.908 666.104 166.366 666.022 166.917L665.107 173.413H661.903L662.677 167.938C662.724 167.621 662.707 167.404 662.625 167.287C662.543 167.158 662.366 167.105 662.097 167.128C661.803 167.128 661.48 167.216 661.128 167.392C660.776 167.569 660.354 167.856 659.861 168.255L659.386 166.829C660.019 166.078 660.724 165.491 661.498 165.069C662.284 164.635 663.047 164.418 663.787 164.418ZM659.843 164.664L659.896 166.988L660.178 167.216L659.315 173.413H656.111L657.326 164.664H659.843ZM671.028 164.418C671.92 164.418 672.759 164.482 673.545 164.611C674.331 164.729 674.953 164.922 675.411 165.192L675.059 166.442C674.589 166.442 674.155 166.442 673.756 166.442C673.369 166.43 672.917 166.424 672.401 166.424C672.072 166.424 671.796 166.454 671.573 166.512C671.35 166.571 671.168 166.682 671.028 166.847C670.899 167.011 670.787 167.246 670.693 167.551C670.611 167.856 670.535 168.261 670.464 168.766C670.406 169.282 670.365 169.704 670.341 170.033C670.329 170.362 670.376 170.602 670.482 170.755C670.588 170.896 670.775 170.966 671.045 170.966C671.468 170.943 671.861 170.813 672.225 170.579C672.6 170.344 672.976 170.062 673.351 169.734L673.95 171.072C673.786 171.271 673.563 171.518 673.281 171.811C673.011 172.093 672.688 172.374 672.313 172.656C671.949 172.926 671.55 173.155 671.116 173.342C670.681 173.53 670.218 173.624 669.725 173.624C669.033 173.624 668.475 173.454 668.053 173.114C667.63 172.773 667.349 172.251 667.208 171.547C667.067 170.831 667.067 169.922 667.208 168.818C667.325 167.926 667.501 167.193 667.736 166.618C667.971 166.043 668.246 165.597 668.563 165.28C668.892 164.952 669.261 164.729 669.672 164.611C670.095 164.482 670.547 164.418 671.028 164.418ZM677.47 161.091L675.745 173.413H673.21L673.158 171.142L672.858 170.966L673.686 164.981L673.844 164.699C673.844 164.406 673.85 164.112 673.862 163.819C673.885 163.514 673.92 163.197 673.967 162.868L674.284 161.091H677.47ZM687.88 161.091C689.053 161.091 689.98 161.22 690.661 161.478C691.342 161.724 691.799 162.153 692.034 162.763C692.28 163.373 692.327 164.212 692.175 165.28C692.034 166.325 691.793 167.128 691.453 167.692C691.113 168.255 690.626 168.648 689.992 168.871C689.358 169.082 688.525 169.188 687.492 169.188C686.929 169.188 686.372 169.159 685.82 169.1C685.268 169.041 684.758 168.971 684.288 168.889C683.819 168.795 683.42 168.701 683.091 168.607C682.763 168.502 682.534 168.408 682.405 168.325L682.511 166.812C683.273 166.812 684.06 166.812 684.869 166.812C685.679 166.812 686.46 166.812 687.211 166.812C687.598 166.812 687.897 166.771 688.108 166.688C688.331 166.606 688.502 166.442 688.619 166.195C688.748 165.937 688.848 165.55 688.918 165.034C688.977 164.635 688.983 164.324 688.936 164.101C688.889 163.878 688.771 163.719 688.584 163.625C688.408 163.531 688.144 163.485 687.792 163.485C686.641 163.485 685.662 163.496 684.852 163.52C684.042 163.531 683.496 163.549 683.215 163.573L683.162 161.267C683.666 161.208 684.136 161.167 684.57 161.143C685.016 161.12 685.497 161.108 686.014 161.108C686.53 161.096 687.152 161.091 687.88 161.091ZM686.454 161.267L684.746 173.413H681.454L683.162 161.267H686.454ZM697.261 161.091L695.923 170.455C695.877 170.725 695.906 170.907 696.011 171.001C696.117 171.095 696.34 171.142 696.68 171.142H697.42L697.596 173.272C697.42 173.354 697.185 173.419 696.892 173.466C696.598 173.524 696.305 173.565 696.011 173.589C695.718 173.624 695.478 173.642 695.29 173.642C694.386 173.642 693.694 173.425 693.213 172.99C692.743 172.544 692.555 171.94 692.649 171.177L694.075 161.091H697.261ZM704.21 164.418C704.515 164.418 704.867 164.435 705.266 164.47C705.677 164.506 706.088 164.552 706.498 164.611C706.909 164.658 707.285 164.711 707.625 164.77C707.977 164.828 708.247 164.887 708.435 164.946L706.076 166.6C705.7 166.589 705.348 166.583 705.02 166.583C704.691 166.571 704.339 166.565 703.963 166.565C703.682 166.565 703.435 166.594 703.224 166.653C703.013 166.7 702.831 166.8 702.678 166.952C702.538 167.093 702.408 167.31 702.291 167.604C702.185 167.897 702.097 168.284 702.027 168.766C701.933 169.423 701.874 169.927 701.851 170.279C701.839 170.62 701.886 170.849 701.992 170.966C702.097 171.083 702.279 171.142 702.538 171.142C702.807 171.119 703.095 171.007 703.4 170.808C703.705 170.596 703.999 170.321 704.28 169.98C704.574 169.64 704.838 169.264 705.072 168.854L705.6 169.787C705.401 170.561 705.096 171.23 704.685 171.793C704.274 172.357 703.781 172.791 703.206 173.096C702.631 173.401 701.98 173.577 701.252 173.624C700.443 173.671 699.832 173.513 699.422 173.149C699.011 172.785 698.759 172.239 698.665 171.512C698.583 170.772 698.618 169.875 698.77 168.818C698.923 167.797 699.152 166.993 699.457 166.407C699.762 165.808 700.143 165.368 700.601 165.086C701.059 164.805 701.587 164.623 702.185 164.541C702.796 164.459 703.47 164.418 704.21 164.418ZM705.301 164.699L708.435 164.946L707.238 173.413H704.773V171.476L704.368 171.212L705.301 164.699ZM714.2 164.418C714.822 164.418 715.473 164.47 716.154 164.576C716.835 164.67 717.433 164.828 717.95 165.051L717.509 167.005C716.911 166.993 716.365 166.988 715.872 166.988C715.379 166.988 714.957 166.988 714.605 166.988C714.171 166.988 713.824 167.052 713.566 167.181C713.308 167.299 713.109 167.504 712.968 167.797C712.827 168.079 712.721 168.484 712.651 169.012C712.569 169.587 712.557 170.021 712.616 170.315C712.674 170.608 712.815 170.808 713.038 170.913C713.261 171.019 713.584 171.072 714.006 171.072C714.229 171.072 714.493 171.072 714.799 171.072C715.115 171.06 715.45 171.048 715.802 171.036C716.166 171.013 716.524 170.984 716.876 170.948L717.105 172.99C716.553 173.225 715.954 173.389 715.309 173.483C714.664 173.577 714.042 173.624 713.443 173.624C712.41 173.624 711.559 173.466 710.891 173.149C710.222 172.832 709.752 172.327 709.482 171.635C709.224 170.943 709.171 170.033 709.324 168.906C709.476 167.838 709.729 166.976 710.081 166.319C710.433 165.662 710.938 165.18 711.595 164.875C712.264 164.57 713.132 164.418 714.2 164.418ZM723.663 164.418C724.813 164.418 725.699 164.541 726.321 164.787C726.955 165.034 727.377 165.392 727.588 165.861C727.811 166.319 727.87 166.894 727.764 167.586C727.694 168.114 727.512 168.531 727.219 168.836C726.937 169.129 726.544 169.352 726.039 169.505C725.535 169.646 724.895 169.745 724.12 169.804L719.561 170.174L719.772 168.572L723.381 168.202C723.651 168.179 723.874 168.144 724.05 168.097C724.238 168.038 724.384 167.95 724.49 167.833C724.607 167.703 724.678 167.516 724.701 167.269C724.737 167.07 724.725 166.917 724.666 166.812C724.607 166.706 724.496 166.636 724.332 166.6C724.179 166.553 723.95 166.536 723.645 166.548C723.352 166.548 723.105 166.583 722.906 166.653C722.706 166.724 722.536 166.841 722.395 167.005C722.266 167.158 722.155 167.387 722.061 167.692C721.979 167.985 721.897 168.372 721.814 168.854C721.709 169.511 721.679 170.004 721.726 170.332C721.785 170.661 721.932 170.878 722.166 170.984C722.413 171.089 722.753 171.142 723.187 171.142C723.457 171.142 723.798 171.136 724.208 171.124C724.619 171.101 725.048 171.077 725.494 171.054C725.951 171.019 726.35 170.984 726.691 170.948L726.919 172.92C726.532 173.084 726.11 173.225 725.652 173.342C725.194 173.448 724.731 173.518 724.261 173.554C723.792 173.601 723.334 173.624 722.888 173.624C721.633 173.624 720.664 173.448 719.984 173.096C719.303 172.732 718.851 172.204 718.628 171.512C718.405 170.808 718.347 169.951 718.452 168.942C718.558 168.026 718.74 167.275 718.998 166.688C719.268 166.09 719.614 165.632 720.036 165.315C720.471 164.987 720.987 164.758 721.586 164.629C722.196 164.488 722.888 164.418 723.663 164.418Z" fill="#E4EDFE"/>
<path d="M459.32 115.297C468.038 108.054 477.009 109.657 485.137 116.773C483.271 117.964 476.124 122.813 476.124 122.813C468.112 118.206 462.229 113.504 458.129 116.488C458.55 116.066 458.898 115.655 459.32 115.297Z" fill="#C3C9EE"/>
<path d="M470.706 146.775C470.611 147.671 470.506 148.536 470.4 149.358C470.506 148.536 470.611 147.671 470.706 146.775Z" fill="#949CBF"/>
<path d="M471.264 140.513C471.117 142.622 470.948 144.561 470.748 146.417C470.948 144.561 471.117 142.579 471.264 140.513Z" fill="#949CBF"/>
<path d="M471.886 123.266C471.886 124.321 471.886 125.375 471.886 126.429C471.876 125.343 471.886 124.299 471.886 123.266Z" fill="#949CBF"/>
<path d="M456.379 118.364C461.85 109.572 476.219 121.053 476.219 121.053C476.219 121.053 476.071 169.999 468.671 164.075C460.849 157.813 455.862 147.503 454.07 136.75C452.944 130.529 453.75 124.113 456.379 118.364V118.364ZM465.319 134.473C466.083 139.711 467.805 144.764 470.4 149.379C471.412 140.712 471.908 131.992 471.886 123.266C470.196 122.128 468.394 121.164 466.51 120.389C464.928 124.907 464.518 129.753 465.319 134.473V134.473Z" fill="#ADB4E1"/>
<path d="M459.742 121.432C460.227 120.652 461.123 119.387 462.472 119.387C465.245 119.387 469.187 121.443 471.886 123.266C470.196 122.128 468.394 121.164 466.51 120.388C464.928 124.907 464.518 129.753 465.319 134.473C466.083 139.711 467.805 144.764 470.4 149.379C470.11 152.062 469.574 154.712 468.797 157.296C463.653 153.227 459.974 145.784 458.35 136.033C456.864 127.135 459.752 121.432 459.742 121.432Z" fill="#949CBF"/>
<path d="M471.844 127.262C471.844 128.063 471.844 128.875 471.844 129.676C471.813 128.875 471.834 128.084 471.844 127.262Z" fill="#949CBF"/>
<path d="M471.465 137.446C471.465 138.363 471.349 139.269 471.286 140.165C471.349 139.269 471.412 138.363 471.465 137.446Z" fill="#949CBF"/>
<path d="M471.77 130.498C471.77 131.552 471.696 132.607 471.654 133.661C471.696 132.617 471.738 131.552 471.77 130.498Z" fill="#949CBF"/>
<path d="M471.654 133.756C471.654 134.81 471.559 135.801 471.496 136.813C471.559 135.801 471.612 134.778 471.654 133.756Z" fill="#949CBF"/>
<path d="M480.225 234.832C485.696 230.9 494.172 228.36 503.713 228.36C513.253 228.36 521.729 230.9 527.2 234.832H533.578V240.578C533.578 249.897 520.2 257.445 503.713 257.445C487.225 257.445 473.847 249.897 473.847 240.578V234.832H480.225Z" fill="#ADB4E1"/>
<path d="M503.713 251.7C487.218 251.7 473.847 244.148 473.847 234.832C473.847 225.517 487.218 217.965 503.713 217.965C520.207 217.965 533.578 225.517 533.578 234.832C533.578 244.148 520.207 251.7 503.713 251.7Z" fill="#C3C9EE"/>
<path d="M490.577 227.231C493.634 225.028 498.378 223.615 503.713 223.615C509.047 223.615 513.78 225.028 516.837 227.231H520.401V233.04C520.401 238.248 512.926 242.475 503.713 242.475C494.499 242.475 487.014 238.248 487.014 233.04V227.231H490.577Z" fill="#ADB4E1"/>
<path d="M503.712 236.656C494.49 236.656 487.014 232.436 487.014 227.231C487.014 222.026 494.49 217.807 503.712 217.807C512.935 217.807 520.411 222.026 520.411 227.231C520.411 232.436 512.935 236.656 503.712 236.656Z" fill="#C3C9EE"/>
<path d="M495.553 204.123C497.985 202.572 500.829 201.789 503.713 201.878C506.593 201.79 509.433 202.573 511.862 204.123H514.075V225.418C514.075 228.655 509.437 231.28 503.713 231.28C497.988 231.28 493.339 228.655 493.339 225.418V204.123H495.553Z" fill="#ADB4E1"/>
<path d="M462.008 130.551H545.417C545.417 206.453 519.062 217.438 503.713 217.438C488.363 217.438 462.008 205.568 462.008 130.551Z" fill="#B9C1F0"/>
<path d="M492.707 215.287C478.306 209.437 462.008 189.491 462.008 130.551H469.261C472.877 133.355 476.356 138.215 478.875 146.417C478.875 146.417 478.58 208.119 492.707 215.287Z" fill="#C3C9EE"/>
<path d="M506.886 217.28C510.512 200.128 510.734 153.764 510.734 153.764L541.717 130.572H545.417C545.417 201.446 522.393 215.698 506.886 217.28Z" fill="#B4BBE7"/>
<path d="M503.713 154.102C480.68 154.102 462.008 143.558 462.008 130.551C462.008 117.544 480.68 107 503.713 107C526.745 107 545.417 117.544 545.417 130.551C545.417 143.558 526.745 154.102 503.713 154.102Z" fill="#DCE1F8"/>
<path d="M503.713 150.486C524.354 150.486 541.833 141.356 541.833 130.551C541.833 119.745 524.354 110.616 503.713 110.616C483.072 110.616 465.625 119.745 465.625 130.551C465.625 141.356 483.061 150.486 503.713 150.486Z" fill="#B4BBE7"/>
<path d="M529.656 188.817C529.656 188.817 535.539 187.436 538.248 184.6C538.164 185.296 544.173 187.92 547.398 180.014C548.105 178.275 546.249 190.556 546.249 190.556L536.825 193.107L529.656 188.817Z" fill="#C3C9EE"/>
<path d="M536.972 191.083C541.189 191.083 544.204 187.731 545.153 182.133C546.292 175.312 544.605 166.32 535.18 157.454C535.349 155.947 535.549 154.534 535.686 152.984C535.823 153.058 535.96 153.09 536.097 153.164C545.29 158.519 551.236 171.823 549.391 182.903C547.546 193.982 538.575 198.547 529.361 193.192C529.108 193.055 528.897 192.844 528.655 192.686C529.003 191.473 529.298 190.134 529.635 188.869C531.95 189.987 534.426 190.734 536.972 191.083V191.083Z" fill="#ADB4E1"/>
<path d="M549.391 182.903C551.236 171.823 545.29 158.519 536.097 153.164C536.097 153.164 544.457 149.252 544.668 147.028C544.805 147.102 544.932 147.133 545.069 147.218C554.261 152.563 560.217 165.867 558.362 176.904C557.065 184.579 549.559 192.095 542.011 194.182C545.691 192.39 548.442 188.437 549.391 182.903Z" fill="#C3C9EE"/>
<path d="M465.645 130.298C465.824 123.699 472.455 117.763 482.333 114.179C485.717 120.504 500.012 145.046 520.284 148.388C514.859 149.796 509.275 150.505 503.67 150.496C486.866 150.496 472.192 144.445 467.311 136.37C466.265 134.514 465.692 132.428 465.645 130.298V130.298Z" fill="#ABB2DC"/>
<defs>
<filter id="filter0_d_40_1299" x="558.991" y="33.5352" width="93.9343" height="33.7888" filterUnits="userSpaceOnUse" color-interpolation-filters="sRGB">
<feFlood flood-opacity="0" result="BackgroundImageFix"/>
<feColorMatrix in="SourceAlpha" type="matrix" values="0 0 0 0 0 0 0 0 0 0 0 0 0 0 0 0 0 0 127 0" result="hardAlpha"/>
<feOffset/>
<feGaussianBlur stdDeviation="3.5"/>
<feComposite in2="hardAlpha" operator="out"/>
<feColorMatrix type="matrix" values="0 0 0 0 0.392157 0 0 0 0 0.329412 0 0 0 0 0.941176 0 0 0 1 0"/>
<feBlend mode="normal" in2="BackgroundImageFix" result="effect1_dropShadow_40_1299"/>
<feBlend mode="normal" in="SourceGraphic" in2="effect1_dropShadow_40_1299" result="shape"/>
</filter>
<linearGradient id="paint0_linear_40_1299" x1="5" y1="5" x2="47.4482" y2="428.283" gradientUnits="userSpaceOnUse">
<stop stop-color="#6454F0"/>
<stop offset="0.510417" stop-color="#43A0E7" stop-opacity="0"/>
<stop offset="1" stop-color="#24E8DE"/>
</linearGradient>
<linearGradient id="paint1_linear_40_1299" x1="364.545" y1="234.257" x2="213.814" y2="48.0514" gradientUnits="userSpaceOnUse">
<stop stop-color="#24E8DE"/>
<stop offset="1" stop-color="#5092F3"/>
</linearGradient>
<linearGradient id="paint2_linear_40_1299" x1="1150" y1="234.257" x2="999.268" y2="48.0511" gradientUnits="userSpaceOnUse">
<stop stop-color="#24E8DE"/>
<stop offset="1" stop-color="#5092F3"/>
</linearGradient>
<linearGradient id="paint3_linear_40_1299" x1="755.812" y1="234.257" x2="605.081" y2="48.0514" gradientUnits="userSpaceOnUse">
<stop stop-color="#24E8DE"/>
<stop offset="1" stop-color="#5092F3"/>
</linearGradient>
</defs>
</svg>
