<svg width="1212" height="317" viewBox="0 0 1212 317" fill="none" xmlns="http://www.w3.org/2000/svg">
<rect x="2.5" y="2.5" width="1207" height="312" rx="17.5" fill="#100D28" stroke="url(#paint0_linear_32_601)" stroke-width="5"/>
<g filter="url(#filter0_d_32_601)">
<path d="M575.845 41.1022C577.645 41.1022 579.067 41.3002 580.111 41.6961C581.154 42.0741 581.856 42.731 582.216 43.6669C582.594 44.6028 582.666 45.8896 582.432 47.5274C582.216 49.1293 581.847 50.3621 581.325 51.226C580.804 52.0899 580.057 52.6928 579.085 53.0348C578.113 53.3588 576.835 53.5207 575.251 53.5207C574.387 53.5207 573.532 53.4758 572.686 53.3858C571.841 53.2958 571.058 53.1878 570.338 53.0618C569.618 52.9178 569.006 52.7738 568.502 52.6299C567.998 52.4679 567.647 52.3239 567.449 52.1979L567.611 49.8762C568.781 49.8762 569.987 49.8762 571.229 49.8762C572.47 49.8762 573.667 49.8762 574.819 49.8762C575.413 49.8762 575.872 49.8132 576.196 49.6872C576.538 49.5612 576.799 49.3092 576.979 48.9313C577.177 48.5353 577.33 47.9414 577.438 47.1495C577.528 46.5376 577.537 46.0606 577.465 45.7186C577.393 45.3767 577.213 45.1337 576.925 44.9897C576.655 44.8457 576.25 44.7738 575.71 44.7738C573.946 44.7738 572.444 44.7918 571.202 44.8277C569.96 44.8457 569.123 44.8727 568.691 44.9087L568.61 41.3721C569.384 41.2822 570.104 41.2192 570.77 41.1832C571.454 41.1472 572.192 41.1292 572.983 41.1292C573.775 41.1112 574.729 41.1022 575.845 41.1022ZM573.658 41.3721L571.04 60H565.991L568.61 41.3721H573.658ZM588.397 46.5825L588.559 49.5252L588.991 49.8762L587.614 60H582.674L584.564 46.5825H588.397ZM594.931 46.2046L593.905 50.7131H592.771C592.213 50.7131 591.601 50.7941 590.935 50.956C590.287 51.118 589.45 51.361 588.424 51.685L588.235 48.9043C589.243 48.0044 590.233 47.3295 591.205 46.8795C592.195 46.4296 593.131 46.2046 594.013 46.2046H594.931ZM601.421 46.5825L599.559 60H594.672L596.535 46.5825H601.421ZM600.72 40.5352C601.242 40.5352 601.619 40.6612 601.853 40.9132C602.087 41.1652 602.177 41.5521 602.123 42.0741L601.934 43.5049C601.826 44.4048 601.287 44.8547 600.315 44.8547H598.371C597.327 44.8547 596.868 44.3418 596.994 43.3159L597.183 41.8851C597.273 40.9852 597.804 40.5352 598.776 40.5352H600.72ZM609.98 49.7952L615.784 49.8222L608.198 56.7874L602.367 56.7604L609.98 49.7952ZM614.893 56.7604L614.461 60H601.989L602.394 56.7604H614.893ZM616.189 46.5825L615.757 49.8222H603.555L603.987 46.5825H616.189ZM625.107 46.2046C626.871 46.2046 628.23 46.3936 629.184 46.7715C630.156 47.1495 630.804 47.6984 631.128 48.4183C631.47 49.1203 631.56 50.0022 631.398 51.064C631.29 51.8739 631.011 52.5129 630.561 52.9808C630.129 53.4308 629.526 53.7727 628.752 54.0067C627.978 54.2227 626.997 54.3756 625.809 54.4656L618.817 55.0326L619.141 52.5759L624.676 52.0089C625.089 51.9729 625.431 51.9189 625.701 51.8469C625.989 51.757 626.214 51.622 626.376 51.442C626.556 51.244 626.664 50.956 626.7 50.5781C626.754 50.2721 626.736 50.0381 626.646 49.8762C626.556 49.7142 626.385 49.6062 626.133 49.5522C625.899 49.4802 625.548 49.4532 625.08 49.4712C624.631 49.4712 624.253 49.5252 623.947 49.6332C623.641 49.7412 623.38 49.9212 623.164 50.1731C622.966 50.4071 622.795 50.7581 622.651 51.226C622.525 51.676 622.399 52.2699 622.273 53.0078C622.111 54.0157 622.066 54.7716 622.138 55.2755C622.228 55.7795 622.453 56.1124 622.813 56.2744C623.191 56.4364 623.713 56.5174 624.379 56.5174C624.793 56.5174 625.314 56.5084 625.944 56.4904C626.574 56.4544 627.231 56.4184 627.915 56.3824C628.617 56.3284 629.229 56.2744 629.751 56.2204L630.102 59.2441C629.508 59.4961 628.86 59.712 628.158 59.892C627.456 60.054 626.745 60.162 626.025 60.216C625.305 60.288 624.604 60.324 623.92 60.324C621.994 60.324 620.509 60.054 619.465 59.5141C618.421 58.9561 617.728 58.1462 617.386 57.0843C617.044 56.0045 616.954 54.6906 617.116 53.1428C617.278 51.739 617.557 50.5871 617.953 49.6872C618.367 48.7693 618.898 48.0674 619.546 47.5814C620.212 47.0775 621.004 46.7265 621.922 46.5286C622.858 46.3126 623.92 46.2046 625.107 46.2046ZM639.419 46.2046C640.103 46.2046 640.85 46.2316 641.66 46.2856C642.47 46.3396 643.253 46.4116 644.009 46.5016C644.765 46.5735 645.403 46.6725 645.925 46.7985L645.52 49.6872C644.639 49.6872 643.766 49.6872 642.902 49.6872C642.038 49.6692 641.183 49.6602 640.337 49.6602C639.689 49.6602 639.176 49.6692 638.798 49.6872C638.438 49.7052 638.186 49.7502 638.042 49.8222C637.898 49.8942 637.808 50.0112 637.772 50.1731C637.736 50.3891 637.817 50.5691 638.015 50.7131C638.213 50.8571 638.591 51.01 639.149 51.172L642.281 52.1439C643.001 52.3599 643.595 52.6478 644.063 53.0078C644.531 53.3678 644.864 53.8177 645.062 54.3577C645.278 54.8976 645.341 55.5365 645.251 56.2744C645.107 57.4263 644.756 58.2902 644.198 58.8661C643.64 59.4241 642.884 59.802 641.93 60C640.994 60.198 639.869 60.297 638.555 60.297C637.925 60.297 637.277 60.279 636.612 60.243C635.946 60.225 635.244 60.171 634.506 60.081C633.768 60.009 632.949 59.901 632.049 59.757L632.481 56.8414C632.751 56.8594 633.138 56.8684 633.642 56.8684C634.146 56.8684 634.686 56.8684 635.262 56.8684C635.856 56.8684 636.414 56.8684 636.935 56.8684C637.907 56.8684 638.645 56.8504 639.149 56.8144C639.653 56.7784 640.004 56.7154 640.202 56.6254C640.4 56.5174 640.508 56.3734 640.526 56.1934C640.562 56.0315 640.535 55.9055 640.445 55.8155C640.373 55.7255 640.22 55.6355 639.986 55.5455C639.752 55.4555 639.428 55.3475 639.014 55.2216L635.991 54.2227C635.199 53.9527 634.569 53.6107 634.101 53.1968C633.651 52.7828 633.345 52.2879 633.183 51.712C633.039 51.136 633.012 50.4971 633.102 49.7952C633.228 48.9853 633.498 48.3193 633.912 47.7974C634.344 47.2755 635.001 46.8795 635.883 46.6095C636.764 46.3396 637.943 46.2046 639.419 46.2046Z" fill="#E4EDFE"/>
</g>
<rect x="112.797" y="129.823" width="251.748" height="104.434" rx="20.7485" fill="url(#paint1_linear_32_601)"/>
<path d="M195.128 187.2C196.528 187.2 197.694 187.355 198.627 187.666C199.575 187.961 200.252 188.475 200.656 189.205C201.076 189.936 201.2 190.939 201.029 192.214C200.936 192.867 200.765 193.458 200.516 193.987C200.267 194.516 199.894 194.951 199.396 195.293C198.914 195.635 198.246 195.853 197.391 195.946L197.367 196.086C197.647 196.133 197.927 196.242 198.207 196.413C198.502 196.584 198.759 196.848 198.977 197.206C199.194 197.548 199.334 198.022 199.396 198.628L200.096 203.527H195.595L195.035 198.605C195.004 198.123 194.903 197.812 194.732 197.672C194.576 197.532 194.304 197.462 193.915 197.462C192.764 197.447 191.824 197.439 191.093 197.439C190.362 197.439 189.748 197.431 189.25 197.416C188.753 197.4 188.278 197.377 187.827 197.346L188.177 194.29H194.288C194.833 194.29 195.26 194.236 195.571 194.127C195.882 194.002 196.115 193.785 196.271 193.474C196.442 193.163 196.574 192.727 196.667 192.168C196.73 191.701 196.722 191.336 196.644 191.071C196.582 190.807 196.419 190.628 196.154 190.535C195.906 190.426 195.548 190.372 195.081 190.372C193.48 190.372 192.143 190.387 191.07 190.418C190.012 190.434 189.297 190.457 188.924 190.488L188.854 187.433C189.522 187.355 190.152 187.301 190.743 187.269C191.349 187.238 191.995 187.223 192.679 187.223C193.363 187.207 194.18 187.2 195.128 187.2ZM193.122 187.433L190.86 203.527H186.591L188.854 187.433H193.122ZM211.437 191.654C212.323 191.654 213.031 191.888 213.56 192.354C214.104 192.805 214.461 193.497 214.633 194.43C214.819 195.363 214.819 196.56 214.633 198.022C214.461 199.235 214.213 200.23 213.886 201.008C213.575 201.77 213.186 202.353 212.72 202.757C212.269 203.161 211.74 203.441 211.134 203.597C210.543 203.768 209.89 203.853 209.175 203.853C208.801 203.853 208.366 203.83 207.868 203.783C207.386 203.752 206.881 203.698 206.352 203.62C205.839 203.542 205.357 203.441 204.906 203.317C204.455 203.177 204.074 203.013 203.763 202.827L204.253 201.171C204.875 201.171 205.443 201.179 205.956 201.194C206.485 201.194 207.083 201.194 207.752 201.194C208.218 201.194 208.599 201.155 208.895 201.078C209.19 200.984 209.423 200.829 209.594 200.611C209.766 200.393 209.898 200.082 209.991 199.678C210.1 199.258 210.201 198.73 210.294 198.092C210.419 197.237 210.481 196.584 210.481 196.133C210.481 195.682 210.411 195.371 210.271 195.2C210.131 195.029 209.905 194.943 209.594 194.943C209.315 194.943 208.988 195.029 208.615 195.2C208.257 195.355 207.892 195.573 207.519 195.853C207.161 196.133 206.842 196.452 206.562 196.809L205.793 195.153C205.979 194.873 206.251 194.539 206.609 194.15C206.967 193.761 207.394 193.373 207.892 192.984C208.405 192.595 208.965 192.276 209.571 192.028C210.178 191.779 210.8 191.654 211.437 191.654ZM206.702 191.934L206.656 194.78L207.099 195.13L206.119 202.897L205.863 203.293C205.878 203.682 205.87 204.071 205.839 204.46C205.824 204.848 205.777 205.268 205.699 205.719L205.349 207.842H201.104L203.32 191.934H206.702ZM233.487 187.433L232.903 190.628H226.606L226.093 193.054L227.959 193.264C229.125 193.404 230.042 193.684 230.711 194.104C231.38 194.508 231.854 195.005 232.134 195.596C232.429 196.172 232.577 196.794 232.577 197.462C232.577 199.422 231.978 200.945 230.781 202.034C229.584 203.107 227.928 203.698 225.813 203.807C225.004 203.853 224.149 203.822 223.247 203.713C222.345 203.62 221.428 203.496 220.495 203.34L221.055 200.075C221.817 200.152 222.532 200.215 223.2 200.261C223.885 200.308 224.491 200.316 225.02 200.285C225.968 200.222 226.738 200.005 227.329 199.631C227.935 199.243 228.239 198.582 228.239 197.649C228.239 197.353 228.153 197.128 227.982 196.972C227.826 196.801 227.57 196.677 227.212 196.599C226.87 196.506 226.404 196.436 225.813 196.389L223.457 196.063C223.022 195.985 222.68 195.791 222.431 195.48C222.182 195.169 222.104 194.803 222.197 194.383L223.55 187.433H233.487ZM236.349 199.561C236.831 199.561 237.197 199.694 237.445 199.958C237.71 200.207 237.811 200.588 237.749 201.101L237.585 202.15C237.539 202.617 237.383 202.967 237.119 203.2C236.87 203.418 236.489 203.527 235.976 203.527H235.113C234.04 203.527 233.566 203.013 233.69 201.987L233.83 200.938C233.97 200.02 234.514 199.561 235.463 199.561H236.349ZM246.077 203.83C244.88 203.83 243.83 203.674 242.928 203.363C242.042 203.037 241.358 202.493 240.876 201.731C240.394 200.969 240.161 199.927 240.176 198.605C240.192 197.346 240.254 196.141 240.363 194.99C240.487 193.839 240.697 192.79 240.992 191.841C241.288 190.877 241.715 190.045 242.275 189.345C242.835 188.646 243.558 188.101 244.444 187.713C245.331 187.324 246.427 187.13 247.733 187.13C248.977 187.13 250.035 187.293 250.905 187.619C251.792 187.93 252.468 188.467 252.935 189.229C253.417 189.975 253.658 191.001 253.658 192.308C253.658 193.552 253.603 194.749 253.494 195.9C253.385 197.035 253.183 198.084 252.888 199.048C252.592 200.012 252.157 200.852 251.582 201.567C251.022 202.283 250.291 202.842 249.389 203.247C248.503 203.635 247.399 203.83 246.077 203.83ZM246.45 200.541C246.963 200.541 247.391 200.401 247.733 200.121C248.075 199.841 248.355 199.46 248.573 198.978C248.791 198.481 248.946 197.905 249.039 197.252C249.148 196.599 249.226 195.892 249.273 195.13C249.335 194.368 249.374 193.583 249.389 192.774C249.405 191.934 249.242 191.336 248.899 190.978C248.573 190.605 248.044 190.418 247.313 190.418C246.816 190.418 246.404 190.558 246.077 190.838C245.751 191.118 245.478 191.507 245.261 192.004C245.059 192.486 244.903 193.062 244.794 193.73C244.685 194.383 244.6 195.091 244.538 195.853C244.491 196.615 244.46 197.408 244.444 198.232C244.429 199.041 244.577 199.631 244.888 200.005C245.214 200.362 245.735 200.541 246.45 200.541ZM261.088 203.83C259.89 203.83 258.841 203.674 257.939 203.363C257.053 203.037 256.368 202.493 255.886 201.731C255.404 200.969 255.171 199.927 255.187 198.605C255.202 197.346 255.264 196.141 255.373 194.99C255.498 193.839 255.708 192.79 256.003 191.841C256.298 190.877 256.726 190.045 257.286 189.345C257.846 188.646 258.569 188.101 259.455 187.713C260.341 187.324 261.438 187.13 262.744 187.13C263.988 187.13 265.045 187.293 265.916 187.619C266.802 187.93 267.479 188.467 267.945 189.229C268.427 189.975 268.668 191.001 268.668 192.308C268.668 193.552 268.614 194.749 268.505 195.9C268.396 197.035 268.194 198.084 267.898 199.048C267.603 200.012 267.168 200.852 266.592 201.567C266.032 202.283 265.302 202.842 264.4 203.247C263.513 203.635 262.409 203.83 261.088 203.83ZM261.461 200.541C261.974 200.541 262.402 200.401 262.744 200.121C263.086 199.841 263.366 199.46 263.583 198.978C263.801 198.481 263.957 197.905 264.05 197.252C264.159 196.599 264.236 195.892 264.283 195.13C264.345 194.368 264.384 193.583 264.4 192.774C264.415 191.934 264.252 191.336 263.91 190.978C263.583 190.605 263.055 190.418 262.324 190.418C261.826 190.418 261.414 190.558 261.088 190.838C260.761 191.118 260.489 191.507 260.271 192.004C260.069 192.486 259.914 193.062 259.805 193.73C259.696 194.383 259.61 195.091 259.548 195.853C259.502 196.615 259.471 197.408 259.455 198.232C259.439 199.041 259.587 199.631 259.898 200.005C260.225 200.362 260.746 200.541 261.461 200.541ZM276.098 203.83C274.901 203.83 273.851 203.674 272.949 203.363C272.063 203.037 271.379 202.493 270.897 201.731C270.415 200.969 270.182 199.927 270.197 198.605C270.213 197.346 270.275 196.141 270.384 194.99C270.508 193.839 270.718 192.79 271.014 191.841C271.309 190.877 271.737 190.045 272.296 189.345C272.856 188.646 273.579 188.101 274.466 187.713C275.352 187.324 276.448 187.13 277.754 187.13C278.998 187.13 280.056 187.293 280.926 187.619C281.813 187.93 282.489 188.467 282.956 189.229C283.438 189.975 283.679 191.001 283.679 192.308C283.679 193.552 283.624 194.749 283.515 195.9C283.407 197.035 283.204 198.084 282.909 199.048C282.614 200.012 282.178 200.852 281.603 201.567C281.043 202.283 280.312 202.842 279.41 203.247C278.524 203.635 277.42 203.83 276.098 203.83ZM276.471 200.541C276.985 200.541 277.412 200.401 277.754 200.121C278.096 199.841 278.376 199.46 278.594 198.978C278.812 198.481 278.967 197.905 279.06 197.252C279.169 196.599 279.247 195.892 279.294 195.13C279.356 194.368 279.395 193.583 279.41 192.774C279.426 191.934 279.263 191.336 278.921 190.978C278.594 190.605 278.065 190.418 277.334 190.418C276.837 190.418 276.425 190.558 276.098 190.838C275.772 191.118 275.5 191.507 275.282 192.004C275.08 192.486 274.924 193.062 274.815 193.73C274.707 194.383 274.621 195.091 274.559 195.853C274.512 196.615 274.481 197.408 274.466 198.232C274.45 199.041 274.598 199.631 274.909 200.005C275.235 200.362 275.756 200.541 276.471 200.541ZM287.144 199.561C287.626 199.561 287.991 199.694 288.24 199.958C288.504 200.207 288.605 200.588 288.543 201.101L288.38 202.15C288.333 202.617 288.178 202.967 287.913 203.2C287.665 203.418 287.284 203.527 286.77 203.527H285.907C284.835 203.527 284.36 203.013 284.485 201.987L284.625 200.938C284.765 200.02 285.309 199.561 286.257 199.561H287.144ZM296.872 203.83C295.674 203.83 294.625 203.674 293.723 203.363C292.836 203.037 292.152 202.493 291.67 201.731C291.188 200.969 290.955 199.927 290.97 198.605C290.986 197.346 291.048 196.141 291.157 194.99C291.281 193.839 291.491 192.79 291.787 191.841C292.082 190.877 292.51 190.045 293.07 189.345C293.629 188.646 294.353 188.101 295.239 187.713C296.125 187.324 297.221 187.13 298.528 187.13C299.772 187.13 300.829 187.293 301.7 187.619C302.586 187.93 303.262 188.467 303.729 189.229C304.211 189.975 304.452 191.001 304.452 192.308C304.452 193.552 304.398 194.749 304.289 195.9C304.18 197.035 303.978 198.084 303.682 199.048C303.387 200.012 302.951 200.852 302.376 201.567C301.816 202.283 301.086 202.842 300.184 203.247C299.297 203.635 298.193 203.83 296.872 203.83ZM297.245 200.541C297.758 200.541 298.186 200.401 298.528 200.121C298.87 199.841 299.15 199.46 299.367 198.978C299.585 198.481 299.74 197.905 299.834 197.252C299.943 196.599 300.02 195.892 300.067 195.13C300.129 194.368 300.168 193.583 300.184 192.774C300.199 191.934 300.036 191.336 299.694 190.978C299.367 190.605 298.839 190.418 298.108 190.418C297.61 190.418 297.198 190.558 296.872 190.838C296.545 191.118 296.273 191.507 296.055 192.004C295.853 192.486 295.698 193.062 295.589 193.73C295.48 194.383 295.394 195.091 295.332 195.853C295.286 196.615 295.254 197.408 295.239 198.232C295.223 199.041 295.371 199.631 295.682 200.005C296.009 200.362 296.529 200.541 297.245 200.541ZM311.882 203.83C310.685 203.83 309.635 203.674 308.733 203.363C307.847 203.037 307.163 202.493 306.681 201.731C306.199 200.969 305.965 199.927 305.981 198.605C305.997 197.346 306.059 196.141 306.168 194.99C306.292 193.839 306.502 192.79 306.797 191.841C307.093 190.877 307.52 190.045 308.08 189.345C308.64 188.646 309.363 188.101 310.249 187.713C311.136 187.324 312.232 187.13 313.538 187.13C314.782 187.13 315.839 187.293 316.71 187.619C317.597 187.93 318.273 188.467 318.739 189.229C319.222 189.975 319.463 191.001 319.463 192.308C319.463 193.552 319.408 194.749 319.299 195.9C319.19 197.035 318.988 198.084 318.693 199.048C318.397 200.012 317.962 200.852 317.387 201.567C316.827 202.283 316.096 202.842 315.194 203.247C314.308 203.635 313.204 203.83 311.882 203.83ZM312.255 200.541C312.768 200.541 313.196 200.401 313.538 200.121C313.88 199.841 314.16 199.46 314.378 198.978C314.596 198.481 314.751 197.905 314.844 197.252C314.953 196.599 315.031 195.892 315.078 195.13C315.14 194.368 315.179 193.583 315.194 192.774C315.21 191.934 315.046 191.336 314.704 190.978C314.378 190.605 313.849 190.418 313.118 190.418C312.621 190.418 312.209 190.558 311.882 190.838C311.556 191.118 311.283 191.507 311.066 192.004C310.864 192.486 310.708 193.062 310.599 193.73C310.49 194.383 310.405 195.091 310.343 195.853C310.296 196.615 310.265 197.408 310.249 198.232C310.234 199.041 310.382 199.631 310.693 200.005C311.019 200.362 311.54 200.541 312.255 200.541ZM326.893 203.83C325.695 203.83 324.646 203.674 323.744 203.363C322.858 203.037 322.173 202.493 321.691 201.731C321.209 200.969 320.976 199.927 320.992 198.605C321.007 197.346 321.069 196.141 321.178 194.99C321.303 193.839 321.512 192.79 321.808 191.841C322.103 190.877 322.531 190.045 323.091 189.345C323.651 188.646 324.374 188.101 325.26 187.713C326.146 187.324 327.243 187.13 328.549 187.13C329.793 187.13 330.85 187.293 331.721 187.619C332.607 187.93 333.284 188.467 333.75 189.229C334.232 189.975 334.473 191.001 334.473 192.308C334.473 193.552 334.419 194.749 334.31 195.9C334.201 197.035 333.999 198.084 333.703 199.048C333.408 200.012 332.973 200.852 332.397 201.567C331.837 202.283 331.107 202.842 330.205 203.247C329.318 203.635 328.214 203.83 326.893 203.83ZM327.266 200.541C327.779 200.541 328.207 200.401 328.549 200.121C328.891 199.841 329.171 199.46 329.388 198.978C329.606 198.481 329.762 197.905 329.855 197.252C329.964 196.599 330.041 195.892 330.088 195.13C330.15 194.368 330.189 193.583 330.205 192.774C330.22 191.934 330.057 191.336 329.715 190.978C329.388 190.605 328.86 190.418 328.129 190.418C327.631 190.418 327.219 190.558 326.893 190.838C326.566 191.118 326.294 191.507 326.076 192.004C325.874 192.486 325.719 193.062 325.61 193.73C325.501 194.383 325.415 195.091 325.353 195.853C325.307 196.615 325.275 197.408 325.26 198.232C325.244 199.041 325.392 199.631 325.703 200.005C326.03 200.362 326.551 200.541 327.266 200.541Z" fill="#322A78"/>
<path d="M268.629 161.267L266.921 173.413H263.629L264.809 165.28C264.844 165.034 264.885 164.793 264.932 164.559C264.979 164.312 265.043 164.072 265.126 163.837L262.221 164.523L261.957 162.517L265.442 161.267H268.629ZM273.912 164.418C274.358 164.418 274.845 164.435 275.373 164.471C275.901 164.506 276.412 164.553 276.905 164.611C277.398 164.658 277.814 164.723 278.155 164.805L277.891 166.689C277.316 166.689 276.746 166.689 276.183 166.689C275.62 166.677 275.062 166.671 274.511 166.671C274.088 166.671 273.754 166.677 273.507 166.689C273.273 166.7 273.108 166.73 273.015 166.777C272.921 166.824 272.862 166.9 272.838 167.005C272.815 167.146 272.868 167.264 272.997 167.358C273.126 167.451 273.372 167.551 273.736 167.657L275.778 168.291C276.248 168.431 276.635 168.619 276.94 168.854C277.245 169.089 277.462 169.382 277.591 169.734C277.732 170.086 277.773 170.503 277.715 170.984C277.621 171.735 277.392 172.298 277.028 172.674C276.664 173.038 276.171 173.284 275.549 173.413C274.939 173.542 274.206 173.607 273.349 173.607C272.938 173.607 272.516 173.595 272.082 173.572C271.647 173.56 271.19 173.525 270.708 173.466C270.227 173.419 269.693 173.349 269.107 173.255L269.388 171.353C269.564 171.365 269.817 171.371 270.145 171.371C270.474 171.371 270.826 171.371 271.201 171.371C271.589 171.371 271.952 171.371 272.293 171.371C272.927 171.371 273.408 171.359 273.736 171.336C274.065 171.312 274.294 171.271 274.423 171.213C274.552 171.142 274.622 171.048 274.634 170.931C274.657 170.825 274.64 170.743 274.581 170.685C274.534 170.626 274.435 170.567 274.282 170.509C274.129 170.45 273.918 170.379 273.648 170.297L271.677 169.646C271.16 169.47 270.75 169.247 270.444 168.977C270.151 168.707 269.952 168.384 269.846 168.009C269.752 167.633 269.734 167.217 269.793 166.759C269.875 166.231 270.051 165.797 270.321 165.456C270.603 165.116 271.031 164.858 271.606 164.682C272.181 164.506 272.95 164.418 273.912 164.418ZM284.335 162.305L283.173 170.456C283.138 170.726 283.161 170.908 283.244 171.001C283.326 171.095 283.513 171.142 283.807 171.142H284.916L285.074 173.255C284.828 173.349 284.534 173.419 284.194 173.466C283.854 173.525 283.519 173.566 283.191 173.589C282.862 173.624 282.592 173.642 282.381 173.642C281.524 173.642 280.867 173.419 280.409 172.973C279.952 172.527 279.782 171.917 279.899 171.142L281.184 162.305H284.335ZM286.254 164.664L285.99 166.653H279.019L279.265 164.752L280.955 164.664H286.254ZM296.529 161.091C297.702 161.091 298.629 161.22 299.31 161.478C299.991 161.724 300.448 162.153 300.683 162.763C300.93 163.373 300.977 164.212 300.824 165.28C300.683 166.325 300.443 167.129 300.102 167.692C299.762 168.255 299.275 168.648 298.641 168.871C298.007 169.083 297.174 169.188 296.141 169.188C295.578 169.188 295.021 169.159 294.469 169.1C293.918 169.042 293.407 168.971 292.938 168.889C292.468 168.795 292.069 168.701 291.741 168.607C291.412 168.502 291.183 168.408 291.054 168.326L291.16 166.812C291.923 166.812 292.709 166.812 293.519 166.812C294.328 166.812 295.109 166.812 295.86 166.812C296.247 166.812 296.546 166.771 296.758 166.689C296.981 166.606 297.151 166.442 297.268 166.196C297.397 165.938 297.497 165.55 297.567 165.034C297.626 164.635 297.632 164.324 297.585 164.101C297.538 163.878 297.421 163.72 297.233 163.626C297.057 163.532 296.793 163.485 296.441 163.485C295.291 163.485 294.311 163.497 293.501 163.52C292.691 163.532 292.145 163.549 291.864 163.573L291.811 161.267C292.316 161.208 292.785 161.167 293.219 161.144C293.665 161.12 294.146 161.108 294.663 161.108C295.179 161.097 295.801 161.091 296.529 161.091ZM295.103 161.267L293.395 173.413H290.104L291.811 161.267H295.103ZM305.91 161.091L304.573 170.456C304.526 170.726 304.555 170.908 304.661 171.001C304.766 171.095 304.989 171.142 305.33 171.142H306.069L306.245 173.272C306.069 173.354 305.834 173.419 305.541 173.466C305.247 173.525 304.954 173.566 304.661 173.589C304.367 173.624 304.127 173.642 303.939 173.642C303.035 173.642 302.343 173.425 301.862 172.991C301.392 172.545 301.205 171.94 301.298 171.177L302.724 161.091H305.91ZM312.859 164.418C313.164 164.418 313.516 164.435 313.915 164.471C314.326 164.506 314.737 164.553 315.147 164.611C315.558 164.658 315.934 164.711 316.274 164.77C316.626 164.829 316.896 164.887 317.084 164.946L314.725 166.601C314.349 166.589 313.997 166.583 313.669 166.583C313.34 166.571 312.988 166.565 312.613 166.565C312.331 166.565 312.084 166.595 311.873 166.653C311.662 166.7 311.48 166.8 311.328 166.953C311.187 167.093 311.058 167.311 310.94 167.604C310.835 167.897 310.747 168.285 310.676 168.766C310.582 169.423 310.524 169.928 310.5 170.28C310.488 170.62 310.535 170.849 310.641 170.966C310.747 171.084 310.928 171.142 311.187 171.142C311.457 171.119 311.744 171.007 312.049 170.808C312.354 170.597 312.648 170.321 312.929 169.98C313.223 169.64 313.487 169.265 313.722 168.854L314.25 169.787C314.05 170.561 313.745 171.23 313.334 171.794C312.924 172.357 312.431 172.791 311.856 173.096C311.281 173.401 310.629 173.577 309.902 173.624C309.092 173.671 308.482 173.513 308.071 173.149C307.66 172.785 307.408 172.24 307.314 171.512C307.232 170.773 307.267 169.875 307.42 168.819C307.572 167.798 307.801 166.994 308.106 166.407C308.411 165.808 308.793 165.368 309.25 165.087C309.708 164.805 310.236 164.623 310.835 164.541C311.445 164.459 312.12 164.418 312.859 164.418ZM313.95 164.699L317.084 164.946L315.887 173.413H313.422V171.477L313.017 171.213L313.95 164.699ZM322.849 164.418C323.471 164.418 324.122 164.471 324.803 164.576C325.484 164.67 326.082 164.829 326.599 165.051L326.159 167.005C325.56 166.994 325.014 166.988 324.521 166.988C324.029 166.988 323.606 166.988 323.254 166.988C322.82 166.988 322.474 167.052 322.215 167.182C321.957 167.299 321.758 167.504 321.617 167.798C321.476 168.079 321.37 168.484 321.3 169.012C321.218 169.587 321.206 170.022 321.265 170.315C321.324 170.608 321.464 170.808 321.687 170.913C321.91 171.019 322.233 171.072 322.656 171.072C322.879 171.072 323.143 171.072 323.448 171.072C323.765 171.06 324.099 171.048 324.451 171.037C324.815 171.013 325.173 170.984 325.525 170.949L325.754 172.991C325.202 173.225 324.604 173.39 323.958 173.483C323.313 173.577 322.691 173.624 322.092 173.624C321.059 173.624 320.209 173.466 319.54 173.149C318.871 172.832 318.401 172.328 318.131 171.635C317.873 170.943 317.82 170.033 317.973 168.907C318.126 167.839 318.378 166.976 318.73 166.319C319.082 165.662 319.587 165.181 320.244 164.875C320.913 164.57 321.781 164.418 322.849 164.418ZM332.312 164.418C333.462 164.418 334.348 164.541 334.97 164.787C335.604 165.034 336.026 165.392 336.237 165.861C336.46 166.319 336.519 166.894 336.414 167.586C336.343 168.114 336.161 168.531 335.868 168.836C335.586 169.13 335.193 169.353 334.688 169.505C334.184 169.646 333.544 169.746 332.77 169.804L328.21 170.174L328.422 168.572L332.03 168.202C332.3 168.179 332.523 168.144 332.699 168.097C332.887 168.038 333.034 167.95 333.139 167.833C333.257 167.704 333.327 167.516 333.351 167.27C333.386 167.07 333.374 166.917 333.315 166.812C333.257 166.706 333.145 166.636 332.981 166.601C332.828 166.554 332.599 166.536 332.294 166.548C332.001 166.548 331.754 166.583 331.555 166.653C331.355 166.724 331.185 166.841 331.044 167.005C330.915 167.158 330.804 167.387 330.71 167.692C330.628 167.985 330.546 168.373 330.464 168.854C330.358 169.511 330.329 170.004 330.376 170.333C330.434 170.661 330.581 170.878 330.816 170.984C331.062 171.089 331.402 171.142 331.837 171.142C332.107 171.142 332.447 171.136 332.858 171.125C333.268 171.101 333.697 171.078 334.143 171.054C334.6 171.019 334.999 170.984 335.34 170.949L335.569 172.92C335.181 173.084 334.759 173.225 334.301 173.343C333.843 173.448 333.38 173.519 332.91 173.554C332.441 173.601 331.983 173.624 331.537 173.624C330.282 173.624 329.313 173.448 328.633 173.096C327.952 172.732 327.5 172.204 327.277 171.512C327.054 170.808 326.996 169.951 327.101 168.942C327.207 168.026 327.389 167.275 327.647 166.689C327.917 166.09 328.263 165.632 328.686 165.316C329.12 164.987 329.636 164.758 330.235 164.629C330.845 164.488 331.537 164.418 332.312 164.418Z" fill="#E4EDFE"/>
<path d="M68.7446 115.297C77.4629 108.054 86.4341 109.657 94.562 116.773C92.6961 117.964 85.5486 122.813 85.5486 122.813C77.5367 118.206 71.6542 113.504 67.5534 116.488C67.9751 116.066 68.323 115.655 68.7446 115.297Z" fill="#FECB31"/>
<path d="M80.1302 146.775C80.0354 147.671 79.9299 148.536 79.8245 149.358C79.9299 148.536 80.0354 147.671 80.1302 146.775Z" fill="#DD8B18"/>
<path d="M80.689 140.513C80.5414 142.622 80.3727 144.561 80.1724 146.417C80.3727 144.561 80.5414 142.579 80.689 140.513Z" fill="#DD8B18"/>
<path d="M81.3108 123.267C81.3108 124.321 81.3108 125.375 81.3108 126.429C81.3002 125.343 81.3108 124.3 81.3108 123.267Z" fill="#DD8B18"/>
<path d="M65.8036 118.364C71.2749 109.572 85.6437 121.053 85.6437 121.053C85.6437 121.053 85.4961 169.999 78.0956 164.075C70.2734 157.813 65.2871 147.503 63.4949 136.75C62.3689 130.529 63.1746 124.113 65.8036 118.364V118.364ZM74.7432 134.473C75.5073 139.711 77.2297 144.764 79.8245 149.379C80.8366 140.712 81.333 131.992 81.3109 123.266C79.6203 122.128 77.819 121.164 75.9345 120.389C74.3528 124.907 73.9429 129.753 74.7432 134.473V134.473Z" fill="#F59C1E"/>
<path d="M69.1664 121.432C69.6513 120.652 70.5474 119.387 71.8968 119.387C74.6693 119.387 78.612 121.443 81.3108 123.266C79.6202 122.128 77.8189 121.164 75.9344 120.388C74.3526 124.907 73.9428 129.753 74.7431 134.473C75.5071 139.711 77.2296 144.764 79.8244 149.379C79.5346 152.062 78.9982 154.712 78.222 157.296C73.0775 153.227 69.3983 145.784 67.7748 136.033C66.2884 127.135 69.1769 121.432 69.1664 121.432Z" fill="#DD8B18"/>
<path d="M81.2688 127.262C81.2688 128.063 81.2688 128.875 81.2688 129.676C81.2372 128.875 81.2583 128.084 81.2688 127.262Z" fill="#DD8B18"/>
<path d="M80.8894 137.446C80.8894 138.363 80.7734 139.269 80.7102 140.165C80.7734 139.269 80.8367 138.363 80.8894 137.446Z" fill="#DD8B18"/>
<path d="M81.1948 130.498C81.1948 131.552 81.121 132.607 81.0789 133.661C81.121 132.617 81.1632 131.552 81.1948 130.498Z" fill="#DD8B18"/>
<path d="M81.0789 133.756C81.0789 134.81 80.984 135.801 80.9207 136.813C80.984 135.801 81.0367 134.778 81.0789 133.756Z" fill="#DD8B18"/>
<path d="M89.6497 234.832C95.121 230.9 103.597 228.36 113.137 228.36C122.678 228.36 131.154 230.9 136.625 234.832H143.003V240.578C143.003 249.897 129.625 257.445 113.137 257.445C96.6496 257.445 83.2718 249.897 83.2718 240.578V234.832H89.6497Z" fill="#F59C1E"/>
<path d="M113.137 251.7C96.643 251.7 83.2718 244.148 83.2718 234.833C83.2718 225.517 96.643 217.965 113.137 217.965C129.632 217.965 143.003 225.517 143.003 234.833C143.003 244.148 129.632 251.7 113.137 251.7Z" fill="#FECB31"/>
<path d="M100.002 227.231C103.06 225.028 107.803 223.615 113.138 223.615C118.472 223.615 123.205 225.028 126.262 227.231H129.826V233.04C129.826 238.248 122.351 242.475 113.138 242.475C103.924 242.475 96.4391 238.248 96.4391 233.04V227.231H100.002Z" fill="#F59C1E"/>
<path d="M113.137 236.656C103.915 236.656 96.4386 232.436 96.4386 227.231C96.4386 222.026 103.915 217.807 113.137 217.807C122.36 217.807 129.836 222.026 129.836 227.231C129.836 232.436 122.36 236.656 113.137 236.656Z" fill="#FECB31"/>
<path d="M104.978 204.123C107.41 202.572 110.254 201.789 113.138 201.878C116.018 201.79 118.858 202.573 121.287 204.123H123.5V225.418C123.5 228.655 118.862 231.28 113.138 231.28C107.413 231.28 102.764 228.655 102.764 225.418V204.123H104.978Z" fill="#F59C1E"/>
<path d="M71.4329 130.551H154.841C154.841 206.453 128.486 217.438 113.137 217.438C97.788 217.438 71.4329 205.568 71.4329 130.551Z" fill="#FEBC30"/>
<path d="M102.131 215.287C87.7311 209.437 71.4331 189.491 71.4331 130.551H78.686C82.302 133.355 85.7808 138.215 88.3004 146.417C88.3004 146.417 88.0052 208.119 102.131 215.287Z" fill="#FECB31"/>
<path d="M116.31 217.28C119.937 200.128 120.158 153.764 120.158 153.764L151.141 130.572H154.841C154.841 201.446 131.818 215.699 116.31 217.28Z" fill="#ECAF2D"/>
<path d="M113.137 154.102C90.1045 154.102 71.4329 143.558 71.4329 130.551C71.4329 117.544 90.1045 107 113.137 107C136.17 107 154.841 117.544 154.841 130.551C154.841 143.558 136.17 154.102 113.137 154.102Z" fill="#FFDE7A"/>
<path d="M113.138 150.486C133.779 150.486 151.257 141.356 151.257 130.551C151.257 119.745 133.779 110.616 113.138 110.616C92.4963 110.616 75.0493 119.745 75.0493 130.551C75.0493 141.356 92.4857 150.486 113.138 150.486Z" fill="#FEBC30"/>
<path d="M139.081 188.817C139.081 188.817 144.963 187.436 147.673 184.6C147.588 185.296 153.597 187.92 156.823 180.014C157.529 178.275 155.674 190.556 155.674 190.556L146.25 193.107L139.081 188.817Z" fill="#FECB31"/>
<path d="M146.397 191.083C150.614 191.083 153.629 187.731 154.578 182.133C155.716 175.312 154.03 166.32 144.605 157.454C144.774 155.947 144.974 154.534 145.111 152.984C145.248 153.058 145.385 153.09 145.522 153.164C154.715 158.519 160.661 171.823 158.816 182.903C156.971 193.982 148 198.547 138.786 193.192C138.533 193.055 138.322 192.844 138.08 192.686C138.428 191.473 138.723 190.134 139.06 188.869C141.375 189.987 143.851 190.734 146.397 191.083V191.083Z" fill="#F59C1E"/>
<path d="M158.816 182.903C160.66 171.823 154.715 158.519 145.522 153.164C145.522 153.164 153.882 149.252 154.093 147.028C154.23 147.102 154.356 147.133 154.493 147.218C163.686 152.563 169.642 165.867 167.787 176.904C166.49 184.579 158.984 192.095 151.436 194.182C155.115 192.39 157.867 188.437 158.816 182.903Z" fill="#FECB31"/>
<path d="M75.0695 130.298C75.2487 123.699 81.8797 117.763 91.7575 114.179C95.1415 120.504 109.436 145.046 129.709 148.388C124.283 149.796 118.7 150.505 113.095 150.496C96.2906 150.496 81.6161 144.445 76.7352 136.37C75.6891 134.514 75.117 132.428 75.0695 130.298Z" fill="#ECAF2D"/>
<rect x="898.251" y="129.823" width="251.748" height="104.434" rx="20.7485" fill="url(#paint2_linear_32_601)"/>
<path d="M980.923 187.199C982.322 187.199 983.489 187.355 984.422 187.666C985.37 187.961 986.047 188.474 986.451 189.205C986.871 189.936 986.995 190.939 986.824 192.214C986.731 192.867 986.56 193.458 986.311 193.987C986.062 194.515 985.689 194.951 985.191 195.293C984.709 195.635 984.041 195.853 983.185 195.946L983.162 196.086C983.442 196.133 983.722 196.241 984.002 196.412C984.297 196.583 984.554 196.848 984.771 197.205C984.989 197.548 985.129 198.022 985.191 198.628L985.891 203.526H981.389L980.83 198.605C980.799 198.123 980.697 197.812 980.526 197.672C980.371 197.532 980.099 197.462 979.71 197.462C978.559 197.446 977.619 197.439 976.888 197.439C976.157 197.439 975.543 197.431 975.045 197.415C974.548 197.4 974.073 197.376 973.622 197.345L973.972 194.29H980.083C980.628 194.29 981.055 194.235 981.366 194.127C981.677 194.002 981.91 193.785 982.066 193.474C982.237 193.163 982.369 192.727 982.462 192.167C982.525 191.701 982.517 191.335 982.439 191.071C982.377 190.807 982.214 190.628 981.949 190.535C981.7 190.426 981.343 190.371 980.876 190.371C979.275 190.371 977.937 190.387 976.864 190.418C975.807 190.434 975.092 190.457 974.719 190.488L974.649 187.433C975.317 187.355 975.947 187.3 976.538 187.269C977.144 187.238 977.79 187.223 978.474 187.223C979.158 187.207 979.974 187.199 980.923 187.199ZM978.917 187.433L976.655 203.526H972.386L974.649 187.433H978.917ZM997.232 191.654C998.118 191.654 998.826 191.887 999.355 192.354C999.899 192.805 1000.26 193.497 1000.43 194.43C1000.61 195.363 1000.61 196.56 1000.43 198.022C1000.26 199.235 1000.01 200.23 999.681 201.007C999.37 201.769 998.981 202.352 998.515 202.757C998.064 203.161 997.535 203.441 996.929 203.596C996.338 203.767 995.685 203.853 994.97 203.853C994.596 203.853 994.161 203.83 993.663 203.783C993.181 203.752 992.676 203.697 992.147 203.62C991.634 203.542 991.152 203.441 990.701 203.316C990.25 203.177 989.869 203.013 989.558 202.827L990.048 201.171C990.67 201.171 991.238 201.178 991.751 201.194C992.279 201.194 992.878 201.194 993.547 201.194C994.013 201.194 994.394 201.155 994.69 201.077C994.985 200.984 995.218 200.829 995.389 200.611C995.56 200.393 995.693 200.082 995.786 199.678C995.895 199.258 995.996 198.729 996.089 198.092C996.214 197.237 996.276 196.583 996.276 196.133C996.276 195.682 996.206 195.371 996.066 195.2C995.926 195.028 995.7 194.943 995.389 194.943C995.109 194.943 994.783 195.028 994.41 195.2C994.052 195.355 993.687 195.573 993.314 195.853C992.956 196.133 992.637 196.451 992.357 196.809L991.587 195.153C991.774 194.873 992.046 194.539 992.404 194.15C992.761 193.761 993.189 193.372 993.687 192.984C994.2 192.595 994.76 192.276 995.366 192.027C995.972 191.779 996.594 191.654 997.232 191.654ZM992.497 191.934L992.45 194.78L992.894 195.13L991.914 202.897L991.657 203.293C991.673 203.682 991.665 204.071 991.634 204.459C991.619 204.848 991.572 205.268 991.494 205.719L991.144 207.841H986.899L989.115 191.934H992.497ZM1013.8 187.106C1015.54 187.106 1016.84 187.355 1017.7 187.852C1018.57 188.334 1019 189.205 1019 190.465C1019 191.258 1018.88 191.981 1018.65 192.634C1018.43 193.271 1018.09 193.8 1017.63 194.22C1017.16 194.624 1016.57 194.873 1015.85 194.966L1015.83 195.06C1016.78 195.184 1017.45 195.495 1017.86 195.993C1018.26 196.49 1018.47 197.143 1018.47 197.952C1018.47 199.32 1018.19 200.44 1017.63 201.311C1017.08 202.166 1016.3 202.803 1015.27 203.223C1014.24 203.627 1013 203.837 1011.54 203.853C1010.76 203.853 1009.91 203.806 1009 203.713C1008.09 203.635 1007.21 203.526 1006.36 203.386L1006.66 200.308C1007.33 200.354 1007.9 200.393 1008.37 200.424C1008.85 200.44 1009.29 200.448 1009.7 200.448C1010.11 200.448 1010.54 200.44 1010.98 200.424C1012.02 200.409 1012.82 200.175 1013.38 199.724C1013.94 199.274 1014.22 198.582 1014.22 197.649C1014.22 197.4 1014.16 197.198 1014.03 197.042C1013.92 196.887 1013.75 196.77 1013.52 196.692C1013.29 196.599 1012.98 196.552 1012.59 196.552L1009.28 196.529L1009.65 193.823H1012.84C1013.62 193.823 1014.16 193.645 1014.45 193.287C1014.75 192.929 1014.9 192.346 1014.9 191.538C1014.9 191.164 1014.78 190.9 1014.55 190.745C1014.33 190.589 1013.86 190.511 1013.15 190.511C1012.34 190.511 1011.53 190.519 1010.72 190.535C1009.93 190.535 1009.24 190.535 1008.65 190.535V187.526C1009.59 187.37 1010.52 187.261 1011.42 187.199C1012.32 187.137 1013.12 187.106 1013.8 187.106ZM1022.46 199.561C1022.95 199.561 1023.31 199.693 1023.56 199.958C1023.82 200.207 1023.92 200.587 1023.86 201.101L1023.7 202.15C1023.65 202.617 1023.5 202.967 1023.23 203.2C1022.98 203.418 1022.6 203.526 1022.09 203.526H1021.23C1020.15 203.526 1019.68 203.013 1019.8 201.987L1019.94 200.937C1020.08 200.02 1020.63 199.561 1021.58 199.561H1022.46ZM1032.19 203.83C1030.99 203.83 1029.94 203.674 1029.04 203.363C1028.16 203.037 1027.47 202.492 1026.99 201.73C1026.51 200.968 1026.27 199.927 1026.29 198.605C1026.31 197.345 1026.37 196.14 1026.48 194.99C1026.6 193.839 1026.81 192.789 1027.11 191.841C1027.4 190.877 1027.83 190.045 1028.39 189.345C1028.95 188.645 1029.67 188.101 1030.56 187.712C1031.44 187.324 1032.54 187.129 1033.85 187.129C1035.09 187.129 1036.15 187.293 1037.02 187.619C1037.91 187.93 1038.58 188.467 1039.05 189.228C1039.53 189.975 1039.77 191.001 1039.77 192.307C1039.77 193.551 1039.72 194.749 1039.61 195.899C1039.5 197.034 1039.3 198.084 1039 199.048C1038.71 200.012 1038.27 200.852 1037.7 201.567C1037.14 202.282 1036.4 202.842 1035.5 203.246C1034.62 203.635 1033.51 203.83 1032.19 203.83ZM1032.56 200.541C1033.08 200.541 1033.5 200.401 1033.85 200.121C1034.19 199.841 1034.47 199.46 1034.69 198.978C1034.9 198.481 1035.06 197.905 1035.15 197.252C1035.26 196.599 1035.34 195.892 1035.39 195.13C1035.45 194.368 1035.49 193.582 1035.5 192.774C1035.52 191.934 1035.36 191.335 1035.01 190.978C1034.69 190.605 1034.16 190.418 1033.43 190.418C1032.93 190.418 1032.52 190.558 1032.19 190.838C1031.86 191.118 1031.59 191.507 1031.37 192.004C1031.17 192.486 1031.02 193.061 1030.91 193.73C1030.8 194.383 1030.71 195.091 1030.65 195.853C1030.6 196.615 1030.57 197.408 1030.56 198.232C1030.54 199.04 1030.69 199.631 1031 200.004C1031.33 200.362 1031.85 200.541 1032.56 200.541ZM1047.2 203.83C1046 203.83 1044.95 203.674 1044.05 203.363C1043.17 203.037 1042.48 202.492 1042 201.73C1041.52 200.968 1041.28 199.927 1041.3 198.605C1041.32 197.345 1041.38 196.14 1041.49 194.99C1041.61 193.839 1041.82 192.789 1042.12 191.841C1042.41 190.877 1042.84 190.045 1043.4 189.345C1043.96 188.645 1044.68 188.101 1045.57 187.712C1046.46 187.324 1047.55 187.129 1048.86 187.129C1050.1 187.129 1051.16 187.293 1052.03 187.619C1052.92 187.93 1053.59 188.467 1054.06 189.228C1054.54 189.975 1054.78 191.001 1054.78 192.307C1054.78 193.551 1054.73 194.749 1054.62 195.899C1054.51 197.034 1054.31 198.084 1054.01 199.048C1053.72 200.012 1053.28 200.852 1052.71 201.567C1052.15 202.282 1051.42 202.842 1050.51 203.246C1049.63 203.635 1048.52 203.83 1047.2 203.83ZM1047.57 200.541C1048.09 200.541 1048.52 200.401 1048.86 200.121C1049.2 199.841 1049.48 199.46 1049.7 198.978C1049.91 198.481 1050.07 197.905 1050.16 197.252C1050.27 196.599 1050.35 195.892 1050.4 195.13C1050.46 194.368 1050.5 193.582 1050.51 192.774C1050.53 191.934 1050.37 191.335 1050.02 190.978C1049.7 190.605 1049.17 190.418 1048.44 190.418C1047.94 190.418 1047.53 190.558 1047.2 190.838C1046.87 191.118 1046.6 191.507 1046.39 192.004C1046.18 192.486 1046.03 193.061 1045.92 193.73C1045.81 194.383 1045.72 195.091 1045.66 195.853C1045.62 196.615 1045.58 197.408 1045.57 198.232C1045.55 199.04 1045.7 199.631 1046.01 200.004C1046.34 200.362 1046.86 200.541 1047.57 200.541ZM1062.21 203.83C1061.01 203.83 1059.97 203.674 1059.06 203.363C1058.18 203.037 1057.49 202.492 1057.01 201.73C1056.53 200.968 1056.3 199.927 1056.31 198.605C1056.33 197.345 1056.39 196.14 1056.5 194.99C1056.62 193.839 1056.83 192.789 1057.13 191.841C1057.42 190.877 1057.85 190.045 1058.41 189.345C1058.97 188.645 1059.69 188.101 1060.58 187.712C1061.47 187.324 1062.56 187.129 1063.87 187.129C1065.11 187.129 1066.17 187.293 1067.04 187.619C1067.93 187.93 1068.6 188.467 1069.07 189.228C1069.55 189.975 1069.79 191.001 1069.79 192.307C1069.79 193.551 1069.74 194.749 1069.63 195.899C1069.52 197.034 1069.32 198.084 1069.02 199.048C1068.73 200.012 1068.29 200.852 1067.72 201.567C1067.16 202.282 1066.43 202.842 1065.52 203.246C1064.64 203.635 1063.53 203.83 1062.21 203.83ZM1062.59 200.541C1063.1 200.541 1063.53 200.401 1063.87 200.121C1064.21 199.841 1064.49 199.46 1064.71 198.978C1064.93 198.481 1065.08 197.905 1065.17 197.252C1065.28 196.599 1065.36 195.892 1065.41 195.13C1065.47 194.368 1065.51 193.582 1065.52 192.774C1065.54 191.934 1065.38 191.335 1065.03 190.978C1064.71 190.605 1064.18 190.418 1063.45 190.418C1062.95 190.418 1062.54 190.558 1062.21 190.838C1061.89 191.118 1061.61 191.507 1061.4 192.004C1061.19 192.486 1061.04 193.061 1060.93 193.73C1060.82 194.383 1060.73 195.091 1060.67 195.853C1060.63 196.615 1060.59 197.408 1060.58 198.232C1060.56 199.04 1060.71 199.631 1061.02 200.004C1061.35 200.362 1061.87 200.541 1062.59 200.541ZM1073.26 199.561C1073.74 199.561 1074.1 199.693 1074.35 199.958C1074.62 200.207 1074.72 200.587 1074.66 201.101L1074.49 202.15C1074.45 202.617 1074.29 202.967 1074.03 203.2C1073.78 203.418 1073.4 203.526 1072.88 203.526H1072.02C1070.95 203.526 1070.47 203.013 1070.6 201.987L1070.74 200.937C1070.88 200.02 1071.42 199.561 1072.37 199.561H1073.26ZM1082.99 203.83C1081.79 203.83 1080.74 203.674 1079.84 203.363C1078.95 203.037 1078.27 202.492 1077.78 201.73C1077.3 200.968 1077.07 199.927 1077.08 198.605C1077.1 197.345 1077.16 196.14 1077.27 194.99C1077.4 193.839 1077.61 192.789 1077.9 191.841C1078.2 190.877 1078.62 190.045 1079.18 189.345C1079.74 188.645 1080.47 188.101 1081.35 187.712C1082.24 187.324 1083.34 187.129 1084.64 187.129C1085.89 187.129 1086.94 187.293 1087.81 187.619C1088.7 187.93 1089.38 188.467 1089.84 189.228C1090.32 189.975 1090.57 191.001 1090.57 192.307C1090.57 193.551 1090.51 194.749 1090.4 195.899C1090.29 197.034 1090.09 198.084 1089.8 199.048C1089.5 200.012 1089.07 200.852 1088.49 201.567C1087.93 202.282 1087.2 202.842 1086.3 203.246C1085.41 203.635 1084.31 203.83 1082.99 203.83ZM1083.36 200.541C1083.87 200.541 1084.3 200.401 1084.64 200.121C1084.98 199.841 1085.26 199.46 1085.48 198.978C1085.7 198.481 1085.85 197.905 1085.95 197.252C1086.06 196.599 1086.13 195.892 1086.18 195.13C1086.24 194.368 1086.28 193.582 1086.3 192.774C1086.31 191.934 1086.15 191.335 1085.81 190.978C1085.48 190.605 1084.95 190.418 1084.22 190.418C1083.72 190.418 1083.31 190.558 1082.99 190.838C1082.66 191.118 1082.39 191.507 1082.17 192.004C1081.97 192.486 1081.81 193.061 1081.7 193.73C1081.59 194.383 1081.51 195.091 1081.45 195.853C1081.4 196.615 1081.37 197.408 1081.35 198.232C1081.34 199.04 1081.48 199.631 1081.8 200.004C1082.12 200.362 1082.64 200.541 1083.36 200.541ZM1098 203.83C1096.8 203.83 1095.75 203.674 1094.85 203.363C1093.96 203.037 1093.28 202.492 1092.79 201.73C1092.31 200.968 1092.08 199.927 1092.09 198.605C1092.11 197.345 1092.17 196.14 1092.28 194.99C1092.41 193.839 1092.62 192.789 1092.91 191.841C1093.21 190.877 1093.63 190.045 1094.19 189.345C1094.75 188.645 1095.48 188.101 1096.36 187.712C1097.25 187.324 1098.35 187.129 1099.65 187.129C1100.9 187.129 1101.95 187.293 1102.82 187.619C1103.71 187.93 1104.39 188.467 1104.85 189.228C1105.34 189.975 1105.58 191.001 1105.58 192.307C1105.58 193.551 1105.52 194.749 1105.41 195.899C1105.3 197.034 1105.1 198.084 1104.81 199.048C1104.51 200.012 1104.08 200.852 1103.5 201.567C1102.94 202.282 1102.21 202.842 1101.31 203.246C1100.42 203.635 1099.32 203.83 1098 203.83ZM1098.37 200.541C1098.88 200.541 1099.31 200.401 1099.65 200.121C1099.99 199.841 1100.27 199.46 1100.49 198.978C1100.71 198.481 1100.86 197.905 1100.96 197.252C1101.07 196.599 1101.14 195.892 1101.19 195.13C1101.25 194.368 1101.29 193.582 1101.31 192.774C1101.32 191.934 1101.16 191.335 1100.82 190.978C1100.49 190.605 1099.96 190.418 1099.23 190.418C1098.73 190.418 1098.32 190.558 1098 190.838C1097.67 191.118 1097.4 191.507 1097.18 192.004C1096.98 192.486 1096.82 193.061 1096.71 193.73C1096.6 194.383 1096.52 195.091 1096.46 195.853C1096.41 196.615 1096.38 197.408 1096.36 198.232C1096.35 199.04 1096.5 199.631 1096.81 200.004C1097.13 200.362 1097.65 200.541 1098.37 200.541ZM1113.01 203.83C1111.81 203.83 1110.76 203.674 1109.86 203.363C1108.97 203.037 1108.29 202.492 1107.81 201.73C1107.32 200.968 1107.09 199.927 1107.11 198.605C1107.12 197.345 1107.18 196.14 1107.29 194.99C1107.42 193.839 1107.63 192.789 1107.92 191.841C1108.22 190.877 1108.64 190.045 1109.2 189.345C1109.76 188.645 1110.49 188.101 1111.37 187.712C1112.26 187.324 1113.36 187.129 1114.66 187.129C1115.91 187.129 1116.96 187.293 1117.83 187.619C1118.72 187.93 1119.4 188.467 1119.86 189.228C1120.35 189.975 1120.59 191.001 1120.59 192.307C1120.59 193.551 1120.53 194.749 1120.42 195.899C1120.31 197.034 1120.11 198.084 1119.82 199.048C1119.52 200.012 1119.09 200.852 1118.51 201.567C1117.95 202.282 1117.22 202.842 1116.32 203.246C1115.43 203.635 1114.33 203.83 1113.01 203.83ZM1113.38 200.541C1113.89 200.541 1114.32 200.401 1114.66 200.121C1115 199.841 1115.28 199.46 1115.5 198.978C1115.72 198.481 1115.88 197.905 1115.97 197.252C1116.08 196.599 1116.16 195.892 1116.2 195.13C1116.26 194.368 1116.3 193.582 1116.32 192.774C1116.33 191.934 1116.17 191.335 1115.83 190.978C1115.5 190.605 1114.97 190.418 1114.24 190.418C1113.75 190.418 1113.33 190.558 1113.01 190.838C1112.68 191.118 1112.41 191.507 1112.19 192.004C1111.99 192.486 1111.83 193.061 1111.72 193.73C1111.61 194.383 1111.53 195.091 1111.47 195.853C1111.42 196.615 1111.39 197.408 1111.37 198.232C1111.36 199.04 1111.51 199.631 1111.82 200.004C1112.14 200.362 1112.66 200.541 1113.38 200.541Z" fill="#322A78"/>
<path d="M1049.23 161.02C1050.55 161.02 1051.53 161.208 1052.17 161.583C1052.83 161.947 1053.16 162.604 1053.16 163.555C1053.16 164.153 1053.07 164.699 1052.9 165.192C1052.73 165.673 1052.47 166.072 1052.12 166.389C1051.77 166.694 1051.32 166.882 1050.78 166.952L1050.77 167.023C1051.48 167.117 1051.99 167.351 1052.3 167.727C1052.6 168.103 1052.75 168.595 1052.75 169.206C1052.75 170.238 1052.54 171.083 1052.12 171.741C1051.71 172.386 1051.12 172.867 1050.34 173.184C1049.57 173.489 1048.63 173.648 1047.53 173.659C1046.94 173.659 1046.3 173.624 1045.61 173.554C1044.93 173.495 1044.26 173.413 1043.62 173.307L1043.85 170.984C1044.35 171.019 1044.78 171.048 1045.13 171.072C1045.5 171.083 1045.83 171.089 1046.14 171.089C1046.45 171.089 1046.78 171.083 1047.1 171.072C1047.89 171.06 1048.49 170.884 1048.92 170.543C1049.34 170.203 1049.55 169.681 1049.55 168.977C1049.55 168.789 1049.5 168.636 1049.41 168.519C1049.33 168.402 1049.2 168.314 1049.02 168.255C1048.85 168.185 1048.61 168.149 1048.32 168.149L1045.82 168.132L1046.1 166.09H1048.51C1049.1 166.09 1049.5 165.955 1049.73 165.685C1049.95 165.415 1050.06 164.975 1050.06 164.365C1050.06 164.083 1049.97 163.884 1049.8 163.766C1049.63 163.649 1049.28 163.59 1048.74 163.59C1048.13 163.59 1047.52 163.596 1046.91 163.608C1046.31 163.608 1045.79 163.608 1045.34 163.608V161.337C1046.06 161.22 1046.76 161.137 1047.44 161.091C1048.12 161.044 1048.72 161.02 1049.23 161.02ZM1057.51 164.664L1057.62 166.583L1057.9 166.812L1057 173.413H1053.78L1055.01 164.664H1057.51ZM1061.77 164.418L1061.11 167.357H1060.37C1060 167.357 1059.6 167.41 1059.17 167.516C1058.75 167.621 1058.2 167.78 1057.53 167.991L1057.41 166.178C1058.07 165.591 1058.71 165.151 1059.35 164.858C1059.99 164.564 1060.6 164.418 1061.18 164.418H1061.77ZM1065.67 164.418C1066.57 164.418 1067.4 164.482 1068.19 164.611C1068.98 164.729 1069.6 164.922 1070.06 165.192L1069.7 166.442C1069.23 166.442 1068.8 166.442 1068.4 166.442C1068.01 166.43 1067.56 166.424 1067.05 166.424C1066.72 166.424 1066.44 166.454 1066.22 166.512C1066 166.571 1065.81 166.682 1065.67 166.847C1065.54 167.011 1065.43 167.246 1065.34 167.551C1065.26 167.856 1065.18 168.261 1065.11 168.766C1065.05 169.282 1065.01 169.704 1064.99 170.033C1064.97 170.362 1065.02 170.602 1065.13 170.755C1065.23 170.896 1065.42 170.966 1065.69 170.966C1066.11 170.943 1066.51 170.813 1066.87 170.579C1067.25 170.344 1067.62 170.062 1068 169.734L1068.6 171.072C1068.43 171.271 1068.21 171.518 1067.93 171.811C1067.66 172.093 1067.33 172.374 1066.96 172.656C1066.59 172.926 1066.2 173.155 1065.76 173.342C1065.33 173.53 1064.86 173.624 1064.37 173.624C1063.68 173.624 1063.12 173.454 1062.7 173.114C1062.28 172.773 1061.99 172.251 1061.85 171.547C1061.71 170.831 1061.71 169.922 1061.85 168.818C1061.97 167.926 1062.15 167.193 1062.38 166.618C1062.62 166.043 1062.89 165.597 1063.21 165.28C1063.54 164.952 1063.91 164.729 1064.32 164.611C1064.74 164.482 1065.19 164.418 1065.67 164.418ZM1072.12 161.091L1070.39 173.413H1067.86L1067.8 171.142L1067.5 170.966L1068.33 164.981L1068.49 164.699C1068.49 164.406 1068.5 164.112 1068.51 163.819C1068.53 163.514 1068.57 163.197 1068.61 162.868L1068.93 161.091H1072.12ZM1082.53 161.091C1083.7 161.091 1084.63 161.22 1085.31 161.478C1085.99 161.724 1086.44 162.153 1086.68 162.763C1086.93 163.373 1086.97 164.212 1086.82 165.28C1086.68 166.325 1086.44 167.128 1086.1 167.692C1085.76 168.255 1085.27 168.648 1084.64 168.871C1084 169.082 1083.17 169.188 1082.14 169.188C1081.57 169.188 1081.02 169.159 1080.47 169.1C1079.91 169.041 1079.4 168.971 1078.93 168.889C1078.46 168.795 1078.07 168.701 1077.74 168.607C1077.41 168.502 1077.18 168.408 1077.05 168.325L1077.16 166.812C1077.92 166.812 1078.71 166.812 1079.51 166.812C1080.32 166.812 1081.11 166.812 1081.86 166.812C1082.24 166.812 1082.54 166.771 1082.75 166.688C1082.98 166.606 1083.15 166.442 1083.26 166.195C1083.39 165.937 1083.49 165.55 1083.56 165.034C1083.62 164.635 1083.63 164.324 1083.58 164.101C1083.53 163.878 1083.42 163.719 1083.23 163.625C1083.05 163.531 1082.79 163.485 1082.44 163.485C1081.29 163.485 1080.31 163.496 1079.5 163.52C1078.69 163.531 1078.14 163.549 1077.86 163.573L1077.81 161.267C1078.31 161.208 1078.78 161.167 1079.22 161.143C1079.66 161.12 1080.14 161.108 1080.66 161.108C1081.18 161.096 1081.8 161.091 1082.53 161.091ZM1081.1 161.267L1079.39 173.413H1076.1L1077.81 161.267H1081.1ZM1091.91 161.091L1090.57 170.455C1090.52 170.725 1090.55 170.907 1090.66 171.001C1090.76 171.095 1090.99 171.142 1091.33 171.142H1092.07L1092.24 173.272C1092.07 173.354 1091.83 173.419 1091.54 173.466C1091.24 173.524 1090.95 173.565 1090.66 173.589C1090.36 173.624 1090.12 173.642 1089.94 173.642C1089.03 173.642 1088.34 173.425 1087.86 172.99C1087.39 172.544 1087.2 171.94 1087.29 171.177L1088.72 161.091H1091.91ZM1098.86 164.418C1099.16 164.418 1099.51 164.435 1099.91 164.47C1100.32 164.506 1100.73 164.552 1101.14 164.611C1101.55 164.658 1101.93 164.711 1102.27 164.77C1102.62 164.828 1102.89 164.887 1103.08 164.946L1100.72 166.6C1100.35 166.589 1099.99 166.583 1099.67 166.583C1099.34 166.571 1098.98 166.565 1098.61 166.565C1098.33 166.565 1098.08 166.594 1097.87 166.653C1097.66 166.7 1097.48 166.8 1097.32 166.952C1097.18 167.093 1097.05 167.31 1096.94 167.604C1096.83 167.897 1096.74 168.284 1096.67 168.766C1096.58 169.423 1096.52 169.927 1096.5 170.279C1096.48 170.62 1096.53 170.849 1096.64 170.966C1096.74 171.083 1096.92 171.142 1097.18 171.142C1097.45 171.119 1097.74 171.007 1098.05 170.808C1098.35 170.596 1098.64 170.321 1098.93 169.98C1099.22 169.64 1099.48 169.264 1099.72 168.854L1100.25 169.787C1100.05 170.561 1099.74 171.23 1099.33 171.793C1098.92 172.357 1098.43 172.791 1097.85 173.096C1097.28 173.401 1096.63 173.577 1095.9 173.624C1095.09 173.671 1094.48 173.513 1094.07 173.149C1093.66 172.785 1093.4 172.239 1093.31 171.512C1093.23 170.772 1093.26 169.875 1093.42 168.818C1093.57 167.797 1093.8 166.993 1094.1 166.407C1094.41 165.808 1094.79 165.368 1095.25 165.086C1095.7 164.805 1096.23 164.623 1096.83 164.541C1097.44 164.459 1098.12 164.418 1098.86 164.418ZM1099.95 164.699L1103.08 164.946L1101.88 173.413H1099.42V171.476L1099.01 171.212L1099.95 164.699ZM1108.85 164.418C1109.47 164.418 1110.12 164.47 1110.8 164.576C1111.48 164.67 1112.08 164.828 1112.6 165.051L1112.15 167.005C1111.56 166.993 1111.01 166.988 1110.52 166.988C1110.02 166.988 1109.6 166.988 1109.25 166.988C1108.82 166.988 1108.47 167.052 1108.21 167.181C1107.95 167.299 1107.75 167.504 1107.61 167.797C1107.47 168.079 1107.37 168.484 1107.3 169.012C1107.21 169.587 1107.2 170.021 1107.26 170.315C1107.32 170.608 1107.46 170.808 1107.68 170.913C1107.91 171.019 1108.23 171.072 1108.65 171.072C1108.87 171.072 1109.14 171.072 1109.44 171.072C1109.76 171.06 1110.1 171.048 1110.45 171.036C1110.81 171.013 1111.17 170.984 1111.52 170.948L1111.75 172.99C1111.2 173.225 1110.6 173.389 1109.95 173.483C1109.31 173.577 1108.69 173.624 1108.09 173.624C1107.06 173.624 1106.21 173.466 1105.54 173.149C1104.87 172.832 1104.4 172.327 1104.13 171.635C1103.87 170.943 1103.82 170.033 1103.97 168.906C1104.12 167.838 1104.37 166.976 1104.73 166.319C1105.08 165.662 1105.58 165.18 1106.24 164.875C1106.91 164.57 1107.78 164.418 1108.85 164.418ZM1118.31 164.418C1119.46 164.418 1120.34 164.541 1120.97 164.787C1121.6 165.034 1122.02 165.392 1122.23 165.861C1122.46 166.319 1122.52 166.894 1122.41 167.586C1122.34 168.114 1122.16 168.531 1121.86 168.836C1121.58 169.129 1121.19 169.352 1120.68 169.505C1120.18 169.646 1119.54 169.745 1118.77 169.804L1114.21 170.174L1114.42 168.572L1118.03 168.202C1118.3 168.179 1118.52 168.144 1118.7 168.097C1118.88 168.038 1119.03 167.95 1119.14 167.833C1119.25 167.703 1119.32 167.516 1119.35 167.269C1119.38 167.07 1119.37 166.917 1119.31 166.812C1119.25 166.706 1119.14 166.636 1118.98 166.6C1118.82 166.553 1118.6 166.536 1118.29 166.548C1118 166.548 1117.75 166.583 1117.55 166.653C1117.35 166.724 1117.18 166.841 1117.04 167.005C1116.91 167.158 1116.8 167.387 1116.71 167.692C1116.62 167.985 1116.54 168.372 1116.46 168.854C1116.35 169.511 1116.32 170.004 1116.37 170.332C1116.43 170.661 1116.58 170.878 1116.81 170.984C1117.06 171.089 1117.4 171.142 1117.83 171.142C1118.1 171.142 1118.44 171.136 1118.85 171.124C1119.26 171.101 1119.69 171.077 1120.14 171.054C1120.6 171.019 1121 170.984 1121.34 170.948L1121.56 172.92C1121.18 173.084 1120.76 173.225 1120.3 173.342C1119.84 173.448 1119.38 173.518 1118.91 173.554C1118.44 173.601 1117.98 173.624 1117.53 173.624C1116.28 173.624 1115.31 173.448 1114.63 173.096C1113.95 172.732 1113.5 172.204 1113.27 171.512C1113.05 170.808 1112.99 169.951 1113.1 168.942C1113.2 168.026 1113.39 167.275 1113.64 166.688C1113.91 166.09 1114.26 165.632 1114.68 165.315C1115.12 164.987 1115.63 164.758 1116.23 164.629C1116.84 164.488 1117.53 164.418 1118.31 164.418Z" fill="#E4EDFE"/>
<path d="M850.741 115.296C859.46 108.054 868.431 109.656 876.559 116.772C874.693 117.964 867.545 122.813 867.545 122.813C859.533 118.206 853.651 113.504 849.55 116.488C849.972 116.066 850.32 115.655 850.741 115.296Z" fill="#CC9173"/>
<path d="M862.126 146.775C862.032 147.671 861.926 148.535 861.821 149.358C861.926 148.535 862.032 147.671 862.126 146.775Z" fill="#986852"/>
<path d="M862.685 140.513C862.537 142.621 862.369 144.561 862.168 146.416C862.369 144.561 862.537 142.579 862.685 140.513Z" fill="#986852"/>
<path d="M863.307 123.266C863.307 124.32 863.307 125.375 863.307 126.429C863.296 125.343 863.307 124.299 863.307 123.266Z" fill="#986852"/>
<path d="M847.8 118.364C853.271 109.572 867.64 121.052 867.64 121.052C867.64 121.052 867.492 169.999 860.092 164.074C852.269 157.812 847.283 147.502 845.491 136.749C844.365 130.529 845.171 124.113 847.8 118.364V118.364ZM856.739 134.472C857.503 139.711 859.226 144.764 861.82 149.379C862.833 140.712 863.329 131.992 863.307 123.266C861.616 122.128 859.815 121.164 857.93 120.388C856.349 124.907 855.939 129.752 856.739 134.472V134.472Z" fill="#AF775D"/>
<path d="M851.162 121.432C851.647 120.652 852.543 119.387 853.893 119.387C856.665 119.387 860.608 121.442 863.307 123.266C861.616 122.128 859.815 121.164 857.93 120.388C856.349 124.907 855.939 129.752 856.739 134.472C857.503 139.711 859.226 144.764 861.82 149.379C861.531 152.061 860.994 154.712 860.218 157.296C855.074 153.227 851.394 145.784 849.771 136.033C848.285 127.135 851.173 121.432 851.162 121.432Z" fill="#986852"/>
<path d="M863.265 127.262C863.265 128.063 863.265 128.875 863.265 129.676C863.233 128.875 863.254 128.084 863.265 127.262Z" fill="#986852"/>
<path d="M862.885 137.445C862.885 138.362 862.77 139.269 862.706 140.165C862.77 139.269 862.833 138.362 862.885 137.445Z" fill="#986852"/>
<path d="M863.19 130.498C863.19 131.552 863.117 132.606 863.074 133.661C863.117 132.617 863.159 131.552 863.19 130.498Z" fill="#986852"/>
<path d="M863.075 133.756C863.075 134.81 862.98 135.801 862.917 136.813C862.98 135.801 863.033 134.778 863.075 133.756Z" fill="#986852"/>
<path d="M871.646 234.832C877.118 230.9 885.593 228.36 895.134 228.36C904.675 228.36 913.15 230.9 918.622 234.832H925V240.578C925 249.897 911.622 257.445 895.134 257.445C878.646 257.445 865.269 249.897 865.269 240.578V234.832H871.646Z" fill="#AF775D"/>
<path d="M895.134 251.7C878.64 251.7 865.269 244.148 865.269 234.832C865.269 225.517 878.64 217.965 895.134 217.965C911.628 217.965 925 225.517 925 234.832C925 244.148 911.628 251.7 895.134 251.7Z" fill="#CC9173"/>
<path d="M881.998 227.231C885.056 225.028 889.8 223.615 895.134 223.615C900.468 223.615 905.201 225.028 908.259 227.231H911.822V233.04C911.822 238.248 904.347 242.475 895.134 242.475C885.92 242.475 878.435 238.248 878.435 233.04V227.231H881.998Z" fill="#AF775D"/>
<path d="M895.133 236.656C885.911 236.656 878.435 232.436 878.435 227.231C878.435 222.026 885.911 217.807 895.133 217.807C904.356 217.807 911.832 222.026 911.832 227.231C911.832 232.436 904.356 236.656 895.133 236.656Z" fill="#CC9173"/>
<path d="M886.975 204.123C889.407 202.572 892.25 201.789 895.134 201.878C898.014 201.79 900.854 202.573 903.283 204.123H905.497V225.418C905.497 228.655 900.858 231.28 895.134 231.28C889.41 231.28 884.761 228.655 884.761 225.418V204.123H886.975Z" fill="#AF775D"/>
<path d="M853.43 130.551H936.838C936.838 206.453 910.483 217.438 895.134 217.438C879.785 217.438 853.43 205.568 853.43 130.551Z" fill="#C4896D"/>
<path d="M884.128 215.287C869.728 209.437 853.43 189.491 853.43 130.551H860.683C864.299 133.355 867.778 138.215 870.297 146.417C870.297 146.417 870.002 208.119 884.128 215.287Z" fill="#CC9173"/>
<path d="M898.307 217.28C901.933 200.128 902.155 153.764 902.155 153.764L933.138 130.572H936.838C936.838 201.446 913.814 215.698 898.307 217.28Z" fill="#BB8267"/>
<path d="M895.134 154.102C872.101 154.102 853.43 143.558 853.43 130.551C853.43 117.544 872.101 107 895.134 107C918.166 107 936.838 117.544 936.838 130.551C936.838 143.558 918.166 154.102 895.134 154.102Z" fill="#E19F7F"/>
<path d="M895.134 150.486C915.775 150.486 933.254 141.356 933.254 130.551C933.254 119.745 915.775 110.616 895.134 110.616C874.493 110.616 857.046 119.745 857.046 130.551C857.046 141.356 874.482 150.486 895.134 150.486Z" fill="#C3896D"/>
<path d="M921.078 188.817C921.078 188.817 926.96 187.436 929.67 184.6C929.585 185.296 935.594 187.92 938.82 180.014C939.526 178.275 937.671 190.556 937.671 190.556L928.246 193.107L921.078 188.817Z" fill="#CC9173"/>
<path d="M928.394 191.083C932.611 191.083 935.626 187.731 936.575 182.133C937.713 175.312 936.027 166.32 926.602 157.454C926.771 155.947 926.971 154.534 927.108 152.984C927.245 153.058 927.382 153.09 927.519 153.164C936.712 158.519 942.657 171.823 940.813 182.903C938.968 193.982 929.996 198.547 920.783 193.192C920.53 193.055 920.319 192.844 920.076 192.686C920.424 191.473 920.72 190.134 921.057 188.869C923.372 189.987 925.848 190.734 928.394 191.083V191.083Z" fill="#AF775D"/>
<path d="M940.812 182.903C942.657 171.823 936.712 158.519 927.519 153.164C927.519 153.164 935.879 149.252 936.09 147.028C936.227 147.102 936.353 147.133 936.49 147.218C945.683 152.563 951.639 165.867 949.784 176.904C948.487 184.579 940.981 192.095 933.433 194.182C937.112 192.39 939.864 188.437 940.812 182.903Z" fill="#CC9173"/>
<path d="M857.066 130.298C857.245 123.699 863.876 117.763 873.754 114.179C877.138 120.504 891.433 145.046 911.705 148.388C906.28 149.796 900.696 150.505 895.091 150.496C878.287 150.496 863.613 144.445 858.732 136.37C857.686 134.514 857.114 132.428 857.066 130.298Z" fill="#BB8267"/>
<rect x="504.064" y="129.823" width="251.748" height="104.434" rx="20.7485" fill="url(#paint3_linear_32_601)"/>
<path d="M586.156 187.199C587.555 187.199 588.722 187.355 589.655 187.666C590.603 187.961 591.28 188.474 591.684 189.205C592.104 189.936 592.228 190.939 592.057 192.214C591.964 192.867 591.793 193.458 591.544 193.987C591.295 194.515 590.922 194.951 590.424 195.293C589.942 195.635 589.274 195.853 588.418 195.946L588.395 196.086C588.675 196.133 588.955 196.241 589.235 196.412C589.53 196.583 589.787 196.848 590.004 197.205C590.222 197.548 590.362 198.022 590.424 198.628L591.124 203.526H586.622L586.063 198.605C586.032 198.123 585.93 197.812 585.759 197.672C585.604 197.532 585.332 197.462 584.943 197.462C583.792 197.446 582.852 197.439 582.121 197.439C581.39 197.439 580.776 197.431 580.278 197.415C579.781 197.4 579.306 197.376 578.855 197.345L579.205 194.29H585.316C585.861 194.29 586.288 194.235 586.599 194.127C586.91 194.002 587.143 193.785 587.299 193.474C587.47 193.163 587.602 192.727 587.695 192.167C587.758 191.701 587.75 191.335 587.672 191.071C587.61 190.807 587.447 190.628 587.182 190.535C586.933 190.426 586.576 190.371 586.109 190.371C584.508 190.371 583.17 190.387 582.097 190.418C581.04 190.434 580.325 190.457 579.952 190.488L579.882 187.433C580.55 187.355 581.18 187.3 581.771 187.269C582.377 187.238 583.023 187.223 583.707 187.223C584.391 187.207 585.207 187.199 586.156 187.199ZM584.15 187.433L581.888 203.526H577.619L579.882 187.433H584.15ZM602.465 191.654C603.351 191.654 604.059 191.887 604.588 192.354C605.132 192.805 605.489 193.497 605.66 194.43C605.847 195.363 605.847 196.56 605.66 198.022C605.489 199.235 605.241 200.23 604.914 201.007C604.603 201.769 604.214 202.352 603.748 202.757C603.297 203.161 602.768 203.441 602.162 203.596C601.571 203.767 600.918 203.853 600.203 203.853C599.829 203.853 599.394 203.83 598.896 203.783C598.414 203.752 597.909 203.697 597.38 203.62C596.867 203.542 596.385 203.441 595.934 203.316C595.483 203.177 595.102 203.013 594.791 202.827L595.281 201.171C595.903 201.171 596.471 201.178 596.984 201.194C597.512 201.194 598.111 201.194 598.78 201.194C599.246 201.194 599.627 201.155 599.923 201.077C600.218 200.984 600.451 200.829 600.622 200.611C600.793 200.393 600.926 200.082 601.019 199.678C601.128 199.258 601.229 198.729 601.322 198.092C601.447 197.237 601.509 196.583 601.509 196.133C601.509 195.682 601.439 195.371 601.299 195.2C601.159 195.028 600.933 194.943 600.622 194.943C600.342 194.943 600.016 195.028 599.643 195.2C599.285 195.355 598.92 195.573 598.547 195.853C598.189 196.133 597.87 196.451 597.59 196.809L596.82 195.153C597.007 194.873 597.279 194.539 597.637 194.15C597.994 193.761 598.422 193.372 598.92 192.984C599.433 192.595 599.993 192.276 600.599 192.027C601.205 191.779 601.827 191.654 602.465 191.654ZM597.73 191.934L597.683 194.78L598.127 195.13L597.147 202.897L596.89 203.293C596.906 203.682 596.898 204.071 596.867 204.459C596.852 204.848 596.805 205.268 596.727 205.719L596.377 207.841H592.132L594.348 191.934H597.73ZM621.646 187.433L616.771 196.646C616.662 196.848 616.615 196.996 616.631 197.089C616.662 197.182 616.778 197.229 616.981 197.229H626.007L625.657 199.701L623.931 200.098H613.645C613.117 200.098 612.689 199.981 612.362 199.748C612.036 199.499 611.834 199.18 611.756 198.792C611.694 198.387 611.772 197.983 611.989 197.579L617.47 187.433H621.646ZM625.214 190.581L623.395 203.526H619.406L620.829 193.1L621.879 190.581H625.214ZM629.473 199.561C629.955 199.561 630.32 199.693 630.569 199.958C630.833 200.207 630.934 200.587 630.872 201.101L630.709 202.15C630.662 202.617 630.507 202.967 630.242 203.2C629.994 203.418 629.613 203.526 629.099 203.526H628.236C627.164 203.526 626.689 203.013 626.814 201.987L626.954 200.937C627.094 200.02 627.638 199.561 628.586 199.561H629.473ZM639.201 203.83C638.003 203.83 636.954 203.674 636.052 203.363C635.165 203.037 634.481 202.492 633.999 201.73C633.517 200.968 633.284 199.927 633.3 198.605C633.315 197.345 633.377 196.14 633.486 194.99C633.611 193.839 633.82 192.789 634.116 191.841C634.411 190.877 634.839 190.045 635.399 189.345C635.959 188.645 636.682 188.101 637.568 187.712C638.454 187.324 639.55 187.129 640.857 187.129C642.101 187.129 643.158 187.293 644.029 187.619C644.915 187.93 645.592 188.467 646.058 189.228C646.54 189.975 646.781 191.001 646.781 192.307C646.781 193.551 646.727 194.749 646.618 195.899C646.509 197.034 646.307 198.084 646.011 199.048C645.716 200.012 645.281 200.852 644.705 201.567C644.145 202.282 643.415 202.842 642.513 203.246C641.626 203.635 640.522 203.83 639.201 203.83ZM639.574 200.541C640.087 200.541 640.515 200.401 640.857 200.121C641.199 199.841 641.479 199.46 641.696 198.978C641.914 198.481 642.07 197.905 642.163 197.252C642.272 196.599 642.349 195.892 642.396 195.13C642.458 194.368 642.497 193.582 642.513 192.774C642.528 191.934 642.365 191.335 642.023 190.978C641.696 190.605 641.168 190.418 640.437 190.418C639.939 190.418 639.527 190.558 639.201 190.838C638.874 191.118 638.602 191.507 638.384 192.004C638.182 192.486 638.027 193.061 637.918 193.73C637.809 194.383 637.723 195.091 637.661 195.853C637.615 196.615 637.583 197.408 637.568 198.232C637.552 199.04 637.7 199.631 638.011 200.004C638.338 200.362 638.859 200.541 639.574 200.541ZM654.211 203.83C653.014 203.83 651.964 203.674 651.062 203.363C650.176 203.037 649.492 202.492 649.01 201.73C648.528 200.968 648.295 199.927 648.31 198.605C648.326 197.345 648.388 196.14 648.497 194.99C648.621 193.839 648.831 192.789 649.126 191.841C649.422 190.877 649.849 190.045 650.409 189.345C650.969 188.645 651.692 188.101 652.578 187.712C653.465 187.324 654.561 187.129 655.867 187.129C657.111 187.129 658.169 187.293 659.039 187.619C659.926 187.93 660.602 188.467 661.069 189.228C661.551 189.975 661.792 191.001 661.792 192.307C661.792 193.551 661.737 194.749 661.628 195.899C661.519 197.034 661.317 198.084 661.022 199.048C660.726 200.012 660.291 200.852 659.716 201.567C659.156 202.282 658.425 202.842 657.523 203.246C656.637 203.635 655.533 203.83 654.211 203.83ZM654.584 200.541C655.097 200.541 655.525 200.401 655.867 200.121C656.209 199.841 656.489 199.46 656.707 198.978C656.925 198.481 657.08 197.905 657.173 197.252C657.282 196.599 657.36 195.892 657.407 195.13C657.469 194.368 657.508 193.582 657.523 192.774C657.539 191.934 657.376 191.335 657.033 190.978C656.707 190.605 656.178 190.418 655.447 190.418C654.95 190.418 654.538 190.558 654.211 190.838C653.885 191.118 653.613 191.507 653.395 192.004C653.193 192.486 653.037 193.061 652.928 193.73C652.819 194.383 652.734 195.091 652.672 195.853C652.625 196.615 652.594 197.408 652.578 198.232C652.563 199.04 652.711 199.631 653.022 200.004C653.348 200.362 653.869 200.541 654.584 200.541ZM669.222 203.83C668.024 203.83 666.975 203.674 666.073 203.363C665.187 203.037 664.502 202.492 664.02 201.73C663.538 200.968 663.305 199.927 663.321 198.605C663.336 197.345 663.398 196.14 663.507 194.99C663.632 193.839 663.842 192.789 664.137 191.841C664.432 190.877 664.86 190.045 665.42 189.345C665.98 188.645 666.703 188.101 667.589 187.712C668.475 187.324 669.572 187.129 670.878 187.129C672.122 187.129 673.179 187.293 674.05 187.619C674.936 187.93 675.613 188.467 676.079 189.228C676.561 189.975 676.802 191.001 676.802 192.307C676.802 193.551 676.748 194.749 676.639 195.899C676.53 197.034 676.328 198.084 676.032 199.048C675.737 200.012 675.302 200.852 674.726 201.567C674.166 202.282 673.436 202.842 672.534 203.246C671.647 203.635 670.543 203.83 669.222 203.83ZM669.595 200.541C670.108 200.541 670.536 200.401 670.878 200.121C671.22 199.841 671.5 199.46 671.717 198.978C671.935 198.481 672.091 197.905 672.184 197.252C672.293 196.599 672.371 195.892 672.417 195.13C672.479 194.368 672.518 193.582 672.534 192.774C672.549 191.934 672.386 191.335 672.044 190.978C671.717 190.605 671.189 190.418 670.458 190.418C669.96 190.418 669.548 190.558 669.222 190.838C668.895 191.118 668.623 191.507 668.405 192.004C668.203 192.486 668.048 193.061 667.939 193.73C667.83 194.383 667.744 195.091 667.682 195.853C667.636 196.615 667.605 197.408 667.589 198.232C667.573 199.04 667.721 199.631 668.032 200.004C668.359 200.362 668.88 200.541 669.595 200.541ZM680.267 199.561C680.749 199.561 681.115 199.693 681.363 199.958C681.628 200.207 681.729 200.587 681.667 201.101L681.503 202.15C681.457 202.617 681.301 202.967 681.037 203.2C680.788 203.418 680.407 203.526 679.894 203.526H679.031C677.958 203.526 677.484 203.013 677.608 201.987L677.748 200.937C677.888 200.02 678.432 199.561 679.381 199.561H680.267ZM689.995 203.83C688.798 203.83 687.748 203.674 686.846 203.363C685.96 203.037 685.276 202.492 684.794 201.73C684.312 200.968 684.078 199.927 684.094 198.605C684.109 197.345 684.172 196.14 684.281 194.99C684.405 193.839 684.615 192.789 684.91 191.841C685.206 190.877 685.633 190.045 686.193 189.345C686.753 188.645 687.476 188.101 688.362 187.712C689.249 187.324 690.345 187.129 691.651 187.129C692.895 187.129 693.952 187.293 694.823 187.619C695.71 187.93 696.386 188.467 696.852 189.228C697.334 189.975 697.575 191.001 697.575 192.307C697.575 193.551 697.521 194.749 697.412 195.899C697.303 197.034 697.101 198.084 696.806 199.048C696.51 200.012 696.075 200.852 695.5 201.567C694.94 202.282 694.209 202.842 693.307 203.246C692.421 203.635 691.317 203.83 689.995 203.83ZM690.368 200.541C690.881 200.541 691.309 200.401 691.651 200.121C691.993 199.841 692.273 199.46 692.491 198.978C692.708 198.481 692.864 197.905 692.957 197.252C693.066 196.599 693.144 195.892 693.19 195.13C693.253 194.368 693.292 193.582 693.307 192.774C693.323 191.934 693.159 191.335 692.817 190.978C692.491 190.605 691.962 190.418 691.231 190.418C690.734 190.418 690.322 190.558 689.995 190.838C689.668 191.118 689.396 191.507 689.179 192.004C688.977 192.486 688.821 193.061 688.712 193.73C688.603 194.383 688.518 195.091 688.456 195.853C688.409 196.615 688.378 197.408 688.362 198.232C688.347 199.04 688.494 199.631 688.805 200.004C689.132 200.362 689.653 200.541 690.368 200.541ZM705.006 203.83C703.808 203.83 702.759 203.674 701.857 203.363C700.97 203.037 700.286 202.492 699.804 201.73C699.322 200.968 699.089 199.927 699.104 198.605C699.12 197.345 699.182 196.14 699.291 194.99C699.415 193.839 699.625 192.789 699.921 191.841C700.216 190.877 700.644 190.045 701.204 189.345C701.763 188.645 702.487 188.101 703.373 187.712C704.259 187.324 705.355 187.129 706.662 187.129C707.906 187.129 708.963 187.293 709.834 187.619C710.72 187.93 711.396 188.467 711.863 189.228C712.345 189.975 712.586 191.001 712.586 192.307C712.586 193.551 712.532 194.749 712.423 195.899C712.314 197.034 712.112 198.084 711.816 199.048C711.521 200.012 711.085 200.852 710.51 201.567C709.95 202.282 709.22 202.842 708.318 203.246C707.431 203.635 706.327 203.83 705.006 203.83ZM705.379 200.541C705.892 200.541 706.32 200.401 706.662 200.121C707.004 199.841 707.284 199.46 707.501 198.978C707.719 198.481 707.874 197.905 707.968 197.252C708.077 196.599 708.154 195.892 708.201 195.13C708.263 194.368 708.302 193.582 708.318 192.774C708.333 191.934 708.17 191.335 707.828 190.978C707.501 190.605 706.973 190.418 706.242 190.418C705.744 190.418 705.332 190.558 705.006 190.838C704.679 191.118 704.407 191.507 704.189 192.004C703.987 192.486 703.832 193.061 703.723 193.73C703.614 194.383 703.528 195.091 703.466 195.853C703.42 196.615 703.388 197.408 703.373 198.232C703.357 199.04 703.505 199.631 703.816 200.004C704.143 200.362 704.663 200.541 705.379 200.541ZM720.016 203.83C718.819 203.83 717.769 203.674 716.867 203.363C715.981 203.037 715.297 202.492 714.815 201.73C714.333 200.968 714.099 199.927 714.115 198.605C714.131 197.345 714.193 196.14 714.302 194.99C714.426 193.839 714.636 192.789 714.931 191.841C715.227 190.877 715.654 190.045 716.214 189.345C716.774 188.645 717.497 188.101 718.383 187.712C719.27 187.324 720.366 187.129 721.672 187.129C722.916 187.129 723.974 187.293 724.844 187.619C725.731 187.93 726.407 188.467 726.874 189.228C727.356 189.975 727.597 191.001 727.597 192.307C727.597 193.551 727.542 194.749 727.433 195.899C727.324 197.034 727.122 198.084 726.827 199.048C726.531 200.012 726.096 200.852 725.521 201.567C724.961 202.282 724.23 202.842 723.328 203.246C722.442 203.635 721.338 203.83 720.016 203.83ZM720.389 200.541C720.902 200.541 721.33 200.401 721.672 200.121C722.014 199.841 722.294 199.46 722.512 198.978C722.73 198.481 722.885 197.905 722.978 197.252C723.087 196.599 723.165 195.892 723.212 195.13C723.274 194.368 723.313 193.582 723.328 192.774C723.344 191.934 723.18 191.335 722.838 190.978C722.512 190.605 721.983 190.418 721.252 190.418C720.755 190.418 720.343 190.558 720.016 190.838C719.69 191.118 719.417 191.507 719.2 192.004C718.998 192.486 718.842 193.061 718.733 193.73C718.624 194.383 718.539 195.091 718.477 195.853C718.43 196.615 718.399 197.408 718.383 198.232C718.368 199.04 718.516 199.631 718.827 200.004C719.153 200.362 719.674 200.541 720.389 200.541Z" fill="#322A78"/>
<path d="M651.447 161.055C652.327 161.055 653.072 161.126 653.682 161.267C654.304 161.396 654.774 161.642 655.091 162.006C655.407 162.37 655.566 162.892 655.566 163.573C655.566 164.159 655.472 164.693 655.284 165.174C655.108 165.644 654.85 166.09 654.51 166.512C654.169 166.935 653.759 167.357 653.277 167.78L649.845 170.808C650.15 170.725 650.443 170.673 650.725 170.649C651.018 170.614 651.306 170.596 651.587 170.596H655.003L654.633 173.413H645.567L645.831 171.653C645.866 171.394 645.919 171.16 645.99 170.948C646.06 170.737 646.183 170.538 646.359 170.35L649.546 167.516C649.991 167.093 650.42 166.694 650.831 166.319C651.253 165.931 651.593 165.568 651.852 165.227C652.11 164.875 652.239 164.558 652.239 164.277C652.239 164.148 652.198 164.048 652.116 163.977C652.033 163.907 651.91 163.86 651.746 163.837C651.593 163.813 651.394 163.801 651.147 163.801C650.701 163.801 650.285 163.807 649.898 163.819C649.522 163.819 649.123 163.825 648.701 163.837C648.29 163.848 647.803 163.866 647.239 163.889L647.292 161.443C647.914 161.325 648.478 161.243 648.982 161.196C649.499 161.137 649.962 161.102 650.373 161.091C650.784 161.067 651.142 161.055 651.447 161.055ZM663.787 164.418C664.268 164.418 664.69 164.511 665.054 164.699C665.418 164.887 665.688 165.169 665.864 165.544C666.052 165.908 666.105 166.366 666.022 166.917L665.107 173.413H661.903L662.678 167.938C662.725 167.621 662.707 167.404 662.625 167.287C662.543 167.158 662.367 167.105 662.097 167.128C661.803 167.128 661.481 167.216 661.129 167.392C660.777 167.569 660.354 167.856 659.861 168.255L659.386 166.829C660.02 166.078 660.724 165.491 661.498 165.069C662.285 164.635 663.047 164.418 663.787 164.418ZM659.844 164.664L659.896 166.988L660.178 167.216L659.315 173.413H656.112L657.326 164.664H659.844ZM671.028 164.418C671.92 164.418 672.759 164.482 673.545 164.611C674.331 164.729 674.953 164.922 675.411 165.192L675.059 166.442C674.59 166.442 674.155 166.442 673.756 166.442C673.369 166.43 672.917 166.424 672.401 166.424C672.072 166.424 671.797 166.454 671.574 166.512C671.351 166.571 671.169 166.682 671.028 166.847C670.899 167.011 670.787 167.246 670.693 167.551C670.611 167.856 670.535 168.261 670.465 168.766C670.406 169.282 670.365 169.704 670.341 170.033C670.33 170.362 670.377 170.602 670.482 170.755C670.588 170.896 670.776 170.966 671.046 170.966C671.468 170.943 671.861 170.813 672.225 170.579C672.6 170.344 672.976 170.062 673.352 169.734L673.95 171.072C673.786 171.271 673.563 171.518 673.281 171.811C673.011 172.093 672.688 172.374 672.313 172.656C671.949 172.926 671.55 173.155 671.116 173.342C670.682 173.53 670.218 173.624 669.725 173.624C669.033 173.624 668.475 173.454 668.053 173.114C667.63 172.773 667.349 172.251 667.208 171.547C667.067 170.831 667.067 169.922 667.208 168.818C667.325 167.926 667.501 167.193 667.736 166.618C667.971 166.043 668.247 165.597 668.563 165.28C668.892 164.952 669.262 164.729 669.672 164.611C670.095 164.482 670.547 164.418 671.028 164.418ZM677.471 161.091L675.746 173.413H673.211L673.158 171.142L672.859 170.966L673.686 164.981L673.844 164.699C673.844 164.406 673.85 164.112 673.862 163.819C673.886 163.514 673.921 163.197 673.968 162.868L674.285 161.091H677.471ZM687.88 161.091C689.053 161.091 689.98 161.22 690.661 161.478C691.342 161.724 691.799 162.153 692.034 162.763C692.281 163.373 692.328 164.212 692.175 165.28C692.034 166.325 691.794 167.128 691.453 167.692C691.113 168.255 690.626 168.648 689.992 168.871C689.358 169.082 688.525 169.188 687.493 169.188C686.929 169.188 686.372 169.159 685.82 169.1C685.269 169.041 684.758 168.971 684.289 168.889C683.819 168.795 683.42 168.701 683.092 168.607C682.763 168.502 682.534 168.408 682.405 168.325L682.511 166.812C683.274 166.812 684.06 166.812 684.87 166.812C685.679 166.812 686.46 166.812 687.211 166.812C687.598 166.812 687.897 166.771 688.109 166.688C688.332 166.606 688.502 166.442 688.619 166.195C688.748 165.937 688.848 165.55 688.918 165.034C688.977 164.635 688.983 164.324 688.936 164.101C688.889 163.878 688.772 163.719 688.584 163.625C688.408 163.531 688.144 163.485 687.792 163.485C686.642 163.485 685.662 163.496 684.852 163.52C684.042 163.531 683.497 163.549 683.215 163.573L683.162 161.267C683.667 161.208 684.136 161.167 684.57 161.143C685.016 161.12 685.497 161.108 686.014 161.108C686.53 161.096 687.152 161.091 687.88 161.091ZM686.454 161.267L684.746 173.413H681.455L683.162 161.267H686.454ZM697.262 161.091L695.924 170.455C695.877 170.725 695.906 170.907 696.012 171.001C696.117 171.095 696.34 171.142 696.681 171.142H697.42L697.596 173.272C697.42 173.354 697.185 173.419 696.892 173.466C696.599 173.524 696.305 173.565 696.012 173.589C695.718 173.624 695.478 173.642 695.29 173.642C694.386 173.642 693.694 173.425 693.213 172.99C692.743 172.544 692.556 171.94 692.649 171.177L694.075 161.091H697.262ZM704.21 164.418C704.515 164.418 704.867 164.435 705.266 164.47C705.677 164.506 706.088 164.552 706.499 164.611C706.909 164.658 707.285 164.711 707.625 164.77C707.977 164.828 708.247 164.887 708.435 164.946L706.076 166.6C705.7 166.589 705.348 166.583 705.02 166.583C704.691 166.571 704.339 166.565 703.964 166.565C703.682 166.565 703.436 166.594 703.224 166.653C703.013 166.7 702.831 166.8 702.679 166.952C702.538 167.093 702.409 167.31 702.291 167.604C702.186 167.897 702.098 168.284 702.027 168.766C701.933 169.423 701.875 169.927 701.851 170.279C701.839 170.62 701.886 170.849 701.992 170.966C702.098 171.083 702.28 171.142 702.538 171.142C702.808 171.119 703.095 171.007 703.4 170.808C703.705 170.596 703.999 170.321 704.28 169.98C704.574 169.64 704.838 169.264 705.073 168.854L705.601 169.787C705.401 170.561 705.096 171.23 704.685 171.793C704.275 172.357 703.782 172.791 703.207 173.096C702.632 173.401 701.98 173.577 701.253 173.624C700.443 173.671 699.833 173.513 699.422 173.149C699.011 172.785 698.759 172.239 698.665 171.512C698.583 170.772 698.618 169.875 698.771 168.818C698.923 167.797 699.152 166.993 699.457 166.407C699.762 165.808 700.144 165.368 700.601 165.086C701.059 164.805 701.587 164.623 702.186 164.541C702.796 164.459 703.471 164.418 704.21 164.418ZM705.301 164.699L708.435 164.946L707.238 173.413H704.773V171.476L704.369 171.212L705.301 164.699ZM714.2 164.418C714.822 164.418 715.474 164.47 716.154 164.576C716.835 164.67 717.433 164.828 717.95 165.051L717.51 167.005C716.911 166.993 716.365 166.988 715.873 166.988C715.38 166.988 714.957 166.988 714.605 166.988C714.171 166.988 713.825 167.052 713.567 167.181C713.308 167.299 713.109 167.504 712.968 167.797C712.827 168.079 712.722 168.484 712.651 169.012C712.569 169.587 712.557 170.021 712.616 170.315C712.675 170.608 712.815 170.808 713.038 170.913C713.261 171.019 713.584 171.072 714.007 171.072C714.23 171.072 714.494 171.072 714.799 171.072C715.116 171.06 715.45 171.048 715.802 171.036C716.166 171.013 716.524 170.984 716.876 170.948L717.105 172.99C716.553 173.225 715.955 173.389 715.309 173.483C714.664 173.577 714.042 173.624 713.443 173.624C712.411 173.624 711.56 173.466 710.891 173.149C710.222 172.832 709.752 172.327 709.483 171.635C709.224 170.943 709.172 170.033 709.324 168.906C709.477 167.838 709.729 166.976 710.081 166.319C710.433 165.662 710.938 165.18 711.595 164.875C712.264 164.57 713.132 164.418 714.2 164.418ZM723.663 164.418C724.813 164.418 725.699 164.541 726.321 164.787C726.955 165.034 727.377 165.392 727.589 165.861C727.812 166.319 727.87 166.894 727.765 167.586C727.694 168.114 727.512 168.531 727.219 168.836C726.937 169.129 726.544 169.352 726.039 169.505C725.535 169.646 724.895 169.745 724.121 169.804L719.561 170.174L719.773 168.572L723.381 168.202C723.651 168.179 723.874 168.144 724.05 168.097C724.238 168.038 724.385 167.95 724.49 167.833C724.608 167.703 724.678 167.516 724.702 167.269C724.737 167.07 724.725 166.917 724.666 166.812C724.608 166.706 724.496 166.636 724.332 166.6C724.179 166.553 723.951 166.536 723.645 166.548C723.352 166.548 723.106 166.583 722.906 166.653C722.707 166.724 722.536 166.841 722.396 167.005C722.266 167.158 722.155 167.387 722.061 167.692C721.979 167.985 721.897 168.372 721.815 168.854C721.709 169.511 721.68 170.004 721.727 170.332C721.785 170.661 721.932 170.878 722.167 170.984C722.413 171.089 722.753 171.142 723.188 171.142C723.458 171.142 723.798 171.136 724.209 171.124C724.619 171.101 725.048 171.077 725.494 171.054C725.951 171.019 726.35 170.984 726.691 170.948L726.92 172.92C726.532 173.084 726.11 173.225 725.652 173.342C725.194 173.448 724.731 173.518 724.262 173.554C723.792 173.601 723.334 173.624 722.888 173.624C721.633 173.624 720.665 173.448 719.984 173.096C719.303 172.732 718.851 172.204 718.628 171.512C718.405 170.808 718.347 169.951 718.452 168.942C718.558 168.026 718.74 167.275 718.998 166.688C719.268 166.09 719.614 165.632 720.037 165.315C720.471 164.987 720.987 164.758 721.586 164.629C722.196 164.488 722.888 164.418 723.663 164.418Z" fill="#E4EDFE"/>
<path d="M459.32 115.297C468.038 108.054 477.009 109.657 485.137 116.773C483.271 117.964 476.124 122.813 476.124 122.813C468.112 118.206 462.229 113.504 458.129 116.488C458.55 116.066 458.898 115.655 459.32 115.297Z" fill="#C3C9EE"/>
<path d="M470.706 146.775C470.611 147.671 470.506 148.536 470.4 149.358C470.506 148.536 470.611 147.671 470.706 146.775Z" fill="#949CBF"/>
<path d="M471.264 140.513C471.117 142.622 470.948 144.561 470.748 146.417C470.948 144.561 471.117 142.579 471.264 140.513Z" fill="#949CBF"/>
<path d="M471.886 123.266C471.886 124.321 471.886 125.375 471.886 126.429C471.876 125.343 471.886 124.299 471.886 123.266Z" fill="#949CBF"/>
<path d="M456.379 118.364C461.85 109.572 476.219 121.053 476.219 121.053C476.219 121.053 476.071 169.999 468.671 164.075C460.849 157.813 455.862 147.503 454.07 136.75C452.944 130.529 453.75 124.113 456.379 118.364V118.364ZM465.319 134.473C466.083 139.711 467.805 144.764 470.4 149.379C471.412 140.712 471.908 131.992 471.886 123.266C470.196 122.128 468.394 121.164 466.51 120.389C464.928 124.907 464.518 129.753 465.319 134.473V134.473Z" fill="#ADB4E1"/>
<path d="M459.742 121.432C460.227 120.652 461.123 119.387 462.472 119.387C465.245 119.387 469.187 121.443 471.886 123.266C470.196 122.128 468.394 121.164 466.51 120.388C464.928 124.907 464.518 129.753 465.319 134.473C466.083 139.711 467.805 144.764 470.4 149.379C470.11 152.062 469.574 154.712 468.797 157.296C463.653 153.227 459.974 145.784 458.35 136.033C456.864 127.135 459.752 121.432 459.742 121.432Z" fill="#949CBF"/>
<path d="M471.844 127.262C471.844 128.063 471.844 128.875 471.844 129.676C471.813 128.875 471.834 128.084 471.844 127.262Z" fill="#949CBF"/>
<path d="M471.465 137.446C471.465 138.363 471.349 139.269 471.286 140.165C471.349 139.269 471.412 138.363 471.465 137.446Z" fill="#949CBF"/>
<path d="M471.77 130.498C471.77 131.552 471.696 132.607 471.654 133.661C471.696 132.617 471.738 131.552 471.77 130.498Z" fill="#949CBF"/>
<path d="M471.654 133.756C471.654 134.81 471.559 135.801 471.496 136.813C471.559 135.801 471.612 134.778 471.654 133.756Z" fill="#949CBF"/>
<path d="M480.225 234.832C485.696 230.9 494.172 228.36 503.713 228.36C513.253 228.36 521.729 230.9 527.2 234.832H533.578V240.578C533.578 249.897 520.2 257.445 503.713 257.445C487.225 257.445 473.847 249.897 473.847 240.578V234.832H480.225Z" fill="#ADB4E1"/>
<path d="M503.713 251.7C487.218 251.7 473.847 244.148 473.847 234.832C473.847 225.517 487.218 217.965 503.713 217.965C520.207 217.965 533.578 225.517 533.578 234.832C533.578 244.148 520.207 251.7 503.713 251.7Z" fill="#C3C9EE"/>
<path d="M490.577 227.231C493.634 225.028 498.378 223.615 503.713 223.615C509.047 223.615 513.78 225.028 516.837 227.231H520.401V233.04C520.401 238.248 512.926 242.475 503.713 242.475C494.499 242.475 487.014 238.248 487.014 233.04V227.231H490.577Z" fill="#ADB4E1"/>
<path d="M503.712 236.656C494.49 236.656 487.014 232.436 487.014 227.231C487.014 222.026 494.49 217.807 503.712 217.807C512.935 217.807 520.411 222.026 520.411 227.231C520.411 232.436 512.935 236.656 503.712 236.656Z" fill="#C3C9EE"/>
<path d="M495.553 204.123C497.985 202.572 500.829 201.789 503.713 201.878C506.593 201.79 509.433 202.573 511.862 204.123H514.075V225.418C514.075 228.655 509.437 231.28 503.713 231.28C497.988 231.28 493.339 228.655 493.339 225.418V204.123H495.553Z" fill="#ADB4E1"/>
<path d="M462.008 130.551H545.417C545.417 206.453 519.062 217.438 503.713 217.438C488.363 217.438 462.008 205.568 462.008 130.551Z" fill="#B9C1F0"/>
<path d="M492.707 215.287C478.306 209.437 462.008 189.491 462.008 130.551H469.261C472.877 133.355 476.356 138.215 478.875 146.417C478.875 146.417 478.58 208.119 492.707 215.287Z" fill="#C3C9EE"/>
<path d="M506.886 217.28C510.512 200.128 510.734 153.764 510.734 153.764L541.717 130.572H545.417C545.417 201.446 522.393 215.698 506.886 217.28Z" fill="#B4BBE7"/>
<path d="M503.713 154.102C480.68 154.102 462.008 143.558 462.008 130.551C462.008 117.544 480.68 107 503.713 107C526.745 107 545.417 117.544 545.417 130.551C545.417 143.558 526.745 154.102 503.713 154.102Z" fill="#DCE1F8"/>
<path d="M503.713 150.486C524.354 150.486 541.833 141.356 541.833 130.551C541.833 119.745 524.354 110.616 503.713 110.616C483.072 110.616 465.625 119.745 465.625 130.551C465.625 141.356 483.061 150.486 503.713 150.486Z" fill="#B4BBE7"/>
<path d="M529.656 188.817C529.656 188.817 535.539 187.436 538.248 184.6C538.164 185.296 544.173 187.92 547.398 180.014C548.105 178.275 546.249 190.556 546.249 190.556L536.825 193.107L529.656 188.817Z" fill="#C3C9EE"/>
<path d="M536.972 191.083C541.189 191.083 544.204 187.731 545.153 182.133C546.292 175.312 544.605 166.32 535.18 157.454C535.349 155.947 535.549 154.534 535.686 152.984C535.823 153.058 535.96 153.09 536.097 153.164C545.29 158.519 551.236 171.823 549.391 182.903C547.546 193.982 538.575 198.547 529.361 193.192C529.108 193.055 528.897 192.844 528.655 192.686C529.003 191.473 529.298 190.134 529.635 188.869C531.95 189.987 534.426 190.734 536.972 191.083V191.083Z" fill="#ADB4E1"/>
<path d="M549.391 182.903C551.236 171.823 545.29 158.519 536.097 153.164C536.097 153.164 544.457 149.252 544.668 147.028C544.805 147.102 544.932 147.133 545.069 147.218C554.261 152.563 560.217 165.867 558.362 176.904C557.065 184.579 549.559 192.095 542.011 194.182C545.691 192.39 548.442 188.437 549.391 182.903Z" fill="#C3C9EE"/>
<path d="M465.645 130.298C465.824 123.699 472.455 117.763 482.333 114.179C485.717 120.504 500.012 145.046 520.284 148.388C514.859 149.796 509.275 150.505 503.67 150.496C486.866 150.496 472.192 144.445 467.311 136.37C466.265 134.514 465.692 132.428 465.645 130.298V130.298Z" fill="#ABB2DC"/>
<defs>
<filter id="filter0_d_32_601" x="558.991" y="33.5352" width="93.9343" height="33.7888" filterUnits="userSpaceOnUse" color-interpolation-filters="sRGB">
<feFlood flood-opacity="0" result="BackgroundImageFix"/>
<feColorMatrix in="SourceAlpha" type="matrix" values="0 0 0 0 0 0 0 0 0 0 0 0 0 0 0 0 0 0 127 0" result="hardAlpha"/>
<feOffset/>
<feGaussianBlur stdDeviation="3.5"/>
<feComposite in2="hardAlpha" operator="out"/>
<feColorMatrix type="matrix" values="0 0 0 0 0.392157 0 0 0 0 0.329412 0 0 0 0 0.941176 0 0 0 1 0"/>
<feBlend mode="normal" in2="BackgroundImageFix" result="effect1_dropShadow_32_601"/>
<feBlend mode="normal" in="SourceGraphic" in2="effect1_dropShadow_32_601" result="shape"/>
</filter>
<linearGradient id="paint0_linear_32_601" x1="5" y1="5" x2="47.4482" y2="428.283" gradientUnits="userSpaceOnUse">
<stop stop-color="#6454F0"/>
<stop offset="0.510417" stop-color="#43A0E7" stop-opacity="0"/>
<stop offset="1" stop-color="#24E8DE"/>
</linearGradient>
<linearGradient id="paint1_linear_32_601" x1="364.545" y1="234.257" x2="213.814" y2="48.0514" gradientUnits="userSpaceOnUse">
<stop stop-color="#24E8DE"/>
<stop offset="1" stop-color="#5092F3"/>
</linearGradient>
<linearGradient id="paint2_linear_32_601" x1="1150" y1="234.257" x2="999.268" y2="48.0511" gradientUnits="userSpaceOnUse">
<stop stop-color="#24E8DE"/>
<stop offset="1" stop-color="#5092F3"/>
</linearGradient>
<linearGradient id="paint3_linear_32_601" x1="755.812" y1="234.257" x2="605.081" y2="48.0514" gradientUnits="userSpaceOnUse">
<stop stop-color="#24E8DE"/>
<stop offset="1" stop-color="#5092F3"/>
</linearGradient>
</defs>
</svg>
