<svg width="2624" height="209" viewBox="0 0 2624 209" fill="none" xmlns="http://www.w3.org/2000/svg">
<path d="M1859.75 136.95H1282.6L704.644 136.95V3.54618e-05L1859.75 3.54618e-05V136.95Z" fill="#E4EDFE"/>
<path d="M2443 122C2443 149.614 2420.61 172 2393 172H1900.52C1885.73 172 1871.7 165.454 1862.2 154.122L1801.84 82.1216C1774.57 49.5824 1797.7 1.14088e-05 1840.16 1.14088e-05H2393C2420.61 1.14088e-05 2443 22.3858 2443 50V122Z" fill="#E4EDFE"/>
<path d="M2624 159C2624 186.614 2601.61 209 2574 209H2084.44C2068 209 2052.62 200.922 2043.28 187.394L1968.08 78.3936C1945.2 45.2253 1968.94 6.09436e-06 2009.24 6.09436e-06H2574C2601.61 6.09436e-06 2624 22.3858 2624 50V159Z" fill="#E4EDFE"/>
<path d="M-6.10352e-05 159C-6.10352e-05 186.614 22.3857 209 49.9999 209H540.378C556.803 209 572.18 200.934 581.516 187.421L656.821 78.4206C679.734 45.255 655.995 1.24574e-05 615.684 1.24574e-05H49.9999C22.3857 1.24574e-05 -6.10352e-05 22.3858 -6.10352e-05 50L-6.10352e-05 159Z" fill="#E4EDFE"/>
<path d="M175 122C175 149.614 197.386 172 225 172H717.481C732.268 172 746.297 165.454 755.798 154.122L816.156 82.1218C843.434 49.5825 820.3 8.50818e-06 777.839 8.50818e-06H225C197.386 8.50818e-06 175 22.3858 175 50V122Z" fill="#E4EDFE"/>
</svg>
