<svg width="2624" height="209" viewBox="0 0 2624 209" fill="none" xmlns="http://www.w3.org/2000/svg">
<path d="M764.254 72.0496L1341.4 72.0496L1919.36 72.0496V209L764.254 209V72.0496Z" fill="#E4EDFE"/>
<path d="M181 86.9999C181 59.3857 203.386 36.9999 231 36.9999L723.481 36.9999C738.268 36.9999 752.298 43.5458 761.798 54.8782L822.156 126.878C849.434 159.418 826.3 209 783.839 209L231 209C203.386 209 181 186.614 181 159V86.9999Z" fill="#E4EDFE"/>
<path d="M6.10352e-05 49.9999C6.10352e-05 22.3857 22.3858 -6.10352e-05 50.0001 -6.10352e-05L539.561 -6.10352e-05C555.997 -6.10352e-05 571.383 8.0776 580.717 21.6064L655.916 130.606C678.799 163.775 655.056 209 614.76 209L50.0001 209C22.3858 209 6.10352e-05 186.614 6.10352e-05 159L6.10352e-05 49.9999Z" fill="#E4EDFE"/>
<path d="M2624 49.9999C2624 22.3857 2601.61 -6.10352e-05 2574 -6.10352e-05L2083.62 -6.10352e-05C2067.2 -6.10352e-05 2051.82 8.06624 2042.48 21.5793L1967.18 130.579C1944.27 163.745 1968 209 2008.32 209L2574 209C2601.61 209 2624 186.614 2624 159V49.9999Z" fill="#E4EDFE"/>
<path d="M2449 86.9999C2449 59.3857 2426.61 36.9999 2399 36.9999L1906.52 36.9999C1891.73 36.9999 1877.7 43.5458 1868.2 54.8782L1807.84 126.878C1780.57 159.417 1803.7 209 1846.16 209L2399 209C2426.61 209 2449 186.614 2449 159V86.9999Z" fill="#E4EDFE"/>
</svg>
